<svg version="1.1" xmlns="http://www.w3.org/2000/svg" viewBox="0 0 2048 1940" preserveAspectRatio="none">
    <path d="M 708.322 1066.99 C 712.755 1061.25 740.432 1036.32 747.214 1029.95 L 819.271 960.928 L 1110.92 681.478 L 1236.11 561.546 C 1244.39 553.497 1276.27 526.126 1278.47 517.957 C 1275.32 507.38 1264.76 500.304 1258.11 492.138 C 1240.86 470.965 1198.85 446.185 1215.39 414.136 C 1225.27 394.986 1255.01 396.197 1273.37 394.227 L 1381.41 383.685 L 1590.78 363.016 L 1671 354.858 C 1688.15 353.272 1712.33 347.684 1727.53 356.715 C 1745.28 367.261 1742.95 384.663 1740.43 401.938 C 1736.44 429.387 1731.99 456.596 1727.66 483.907 L 1703.25 637.424 L 1681.86 772.518 C 1677.91 797.557 1674.37 822.678 1669.84 847.624 C 1668.86 853.032 1667.29 860.205 1664.05 864.689 C 1652.52 880.635 1629.82 883.236 1614.59 870.944 C 1592.79 853.36 1574.54 823.014 1552.26 806.721 C 1548.54 808.141 1544.06 809.855 1541.11 812.449 C 1521.88 829.326 1502.74 848.344 1484.46 866.128 L 1384.65 962.203 L 677.876 1637.38 L 450.663 1854.14 C 424.269 1879.13 398.895 1905.34 371.959 1929.8 C 368.51 1932.93 365.063 1937.22 361.542 1940 L 344.079 1940 C 352.811 1930.07 369.648 1915.18 379.937 1905.33 L 449.27 1838.83 L 669.319 1629.08 L 1371.51 956.403 C 1385.79 942.479 1399.84 930.114 1414 916.547 L 1495.1 839.068 C 1508.2 826.599 1526.11 807.333 1540.72 796.605 C 1546.25 793.97 1555.29 795.005 1559.96 797.939 C 1583.81 812.922 1610.69 860.052 1636.71 867.892 C 1649.8 862.1 1655.37 860.19 1657.96 845.057 C 1667.67 788.269 1675.98 731.036 1685.04 674.144 L 1709.38 522.052 C 1716.46 479.035 1723.37 436.007 1729.84 392.895 C 1730.93 385.589 1732.08 378.575 1727.06 372.435 C 1718.82 362.343 1708.89 362.752 1697.13 364.161 C 1680.7 365.785 1664.4 367.513 1648.05 369.177 L 1507.5 383.324 L 1328.99 400.985 C 1302.52 403.585 1275.77 405.854 1249.34 408.77 C 1243.22 409.874 1234.36 411.058 1229.77 415.458 C 1209.77 434.619 1241.61 455.009 1252.42 468.76 C 1267.34 487.737 1306.58 510.609 1280.83 536.117 C 1227.91 588.536 1172.92 638.89 1119.31 690.53 L 721.117 1071.64 C 722.354 1062.87 771.847 1020.63 780.754 1012.19 L 853.885 942.242 C 858.153 938.21 868.695 929.028 868.076 923.385 C 861.197 920.695 834.929 950.005 829.126 955.473 L 733.367 1046.18 C 727.495 1051.67 715.445 1064.83 708.322 1066.99 z"/>
    <path d="M 1311.92 303.968 C 1337.41 300.085 1370.65 297.824 1397.13 295.168 C 1452.47 289.22 1507.86 283.747 1563.29 278.748 C 1600.84 275.09 1638.32 270.505 1675.89 267.366 C 1691.49 266.063 1705.15 263.959 1720.81 265.223 C 1791.02 270.894 1838.59 334.502 1828.67 403.391 C 1824.09 435.145 1819.38 465.416 1814.48 496.385 L 1786.85 670.413 L 1766.91 796.854 C 1760.76 836.802 1757.87 885.996 1733.4 918.696 C 1714.51 943.53 1686.62 959.959 1655.74 964.45 C 1612.8 970.493 1576.97 957.045 1547.73 925.684 C 1540.81 932.663 1533.76 940.056 1526.5 946.666 C 1490.57 979.366 1457.61 1014.8 1421.07 1046.86 C 1403.88 1061.95 1388.14 1080.71 1371.06 1096.13 C 1360.74 1105.99 1349.8 1115.09 1339.49 1125.04 L 699.776 1737.93 L 538.007 1893.05 C 521.237 1909.3 505.056 1922.67 488.115 1940 L 471.074 1940 C 482.242 1927.04 508.295 1903.6 521.841 1890.48 L 649.192 1769.17 L 1026.31 1408.38 L 1407.45 1043.34 L 1496.15 958.659 C 1510.48 944.733 1533.51 920.542 1548.51 909.126 C 1553.13 913.381 1558.15 919.19 1562.87 923.758 C 1583.41 943.755 1611.22 954.515 1639.86 953.553 C 1671.21 952.67 1695.54 940.647 1717.17 918.073 C 1745.49 888.518 1745.53 849.86 1751.88 811.868 L 1776.25 659.108 L 1805.05 478.754 C 1810 446.974 1818.37 408.555 1817.46 377.075 C 1815.97 325.666 1770.49 281.45 1719.95 277.164 C 1705.47 275.935 1691.27 277.961 1676.69 279.38 L 1621.49 284.773 L 1411.69 305.451 C 1383.43 308.252 1343.5 314.189 1315.9 315.322 L 1314.74 315.361 C 1317.07 309.537 1320.95 310.056 1322.53 305.631 C 1318.98 304.073 1315.82 304.208 1311.92 303.968 z"/>
    <path d="M 1160.41 517.8 L 1163.79 520.407 C 1163.83 524.604 1160.6 527.354 1157.57 530.128 L 1158.23 530.782 L 1163.07 529.187 C 1148.28 545.574 1133.6 557.37 1118.09 572.13 L 1037.21 649.711 L 816.531 860.891 L 266.85 1386.71 L 118.131 1529.45 C 90.2472 1556.73 62.1126 1583.75 33.7306 1610.51 C 25.8554 1618 7.87701 1637.39 0 1640.92 L 0 1624.59 C 32.9354 1595.04 61.766 1565.6 93.436 1535.39 L 305.793 1331.8 L 873.742 789.871 L 1078.82 593.068 C 1092.4 580.216 1105.87 567.257 1119.24 554.193 C 1124.49 549.038 1139.08 534.032 1144.2 530.516 C 1160.82 530.739 1153.95 527.696 1160.41 517.8 z"/>
    <path d="M 1432.88 1160.09 C 1445.32 1156.29 1467.65 1154.91 1480.95 1153.51 C 1520.29 1149.37 1559.74 1145.99 1599.13 1141.97 L 1809.3 1121.03 L 1885.85 1113.41 C 1920.86 1110.26 1947.7 1106.05 1980.28 1123.78 C 2023.92 1147.54 2049.25 1193.5 2043.51 1243.22 C 2040.55 1268.94 2036.02 1294.3 2031.95 1319.85 L 2010.06 1458.36 L 1983.18 1627.77 C 1977.67 1662.67 1972.94 1719.04 1957.17 1748.61 C 1942.24 1776.61 1916.64 1797.4 1886.17 1806.27 C 1855.21 1815.35 1820.87 1811.72 1792.44 1796.29 C 1782.59 1790.95 1768.61 1780.4 1762.41 1770.91 L 1635.21 1890.58 C 1616.49 1907.86 1602.7 1924.4 1581.93 1940 L 1566.68 1940 C 1568.58 1937.48 1570.64 1935.09 1572.85 1932.84 C 1590.15 1915.3 1759.11 1756.41 1762.35 1755.97 C 1763.15 1755.86 1782.58 1774.35 1785.57 1776.63 C 1804.33 1790.96 1829.63 1799.64 1853.26 1799.24 C 1881.59 1798.76 1911.12 1785.59 1930.58 1764.91 C 1942.39 1752.36 1951.35 1735.04 1955.79 1718.45 C 1961.87 1695.76 1964.29 1670.9 1967.81 1647.64 L 1985.78 1532.12 C 1997.77 1457.04 2010.46 1381.84 2021.91 1306.67 C 2025.59 1282.53 2033.16 1247.61 2032.53 1224.64 C 2031.81 1198.87 2016.64 1168.49 1997.37 1150.99 C 1980.21 1135.36 1958.57 1125.51 1935.52 1122.84 C 1920.87 1121.2 1900.63 1123.85 1885.41 1125.34 L 1821.97 1131.63 L 1611.33 1152.6 C 1569.68 1157.02 1512.73 1164.29 1471.73 1166.14 C 1477.56 1162.19 1531.29 1158.36 1542.03 1157.27 C 1589.6 1152.13 1637.21 1147.38 1684.86 1143.04 C 1691.7 1142.35 1725.77 1139.35 1730.37 1138.06 C 1732.11 1135.81 1732.78 1135.12 1735.09 1133.46 L 1735.24 1132.51 C 1727.91 1131.21 1706.87 1132.99 1699.08 1133.88 L 1700.02 1133.97 C 1686.52 1135.87 1675.26 1135.9 1662.22 1137.3 L 1545.13 1149.24 L 1467.94 1157.14 C 1460.52 1157.9 1438.83 1161.7 1432.88 1160.09 z"/>
    <path d="M 1470.96 1241.97 C 1490.3 1238.07 1525.93 1236.01 1546.51 1234.07 L 1677.42 1221.05 L 1835.74 1205.11 C 1864.31 1202.31 1893.33 1198.91 1921.98 1197.47 C 1945.6 1196.28 1958.57 1214.57 1955.79 1237.01 C 1952.66 1262.29 1948.23 1287.54 1944.24 1312.89 L 1917.08 1483.69 L 1895.2 1622.5 C 1891.51 1645.85 1887.79 1669.29 1883.97 1692.61 C 1878.78 1724.25 1848.52 1734.72 1824.78 1712.95 C 1804.53 1694.37 1787.28 1668.48 1765.97 1651.32 C 1762.16 1652.86 1758.18 1654.52 1755.14 1657.32 C 1738.8 1672.37 1722.59 1687.9 1706.5 1703.21 L 1610.79 1793.98 C 1572.4 1829.98 1533.24 1865.74 1495.39 1902.34 C 1482.18 1915.12 1468.34 1926.55 1455.88 1940 L 1437.41 1940 C 1449.22 1927.2 1467.53 1911.73 1480.69 1899.29 L 1573.33 1811.83 L 1692.79 1699.39 C 1712.63 1680.75 1731.1 1661.02 1752.53 1644.02 C 1755.83 1641.4 1760.52 1640.71 1764.69 1639.77 C 1773.2 1641.98 1777.95 1644.8 1783.95 1651.21 C 1801.77 1670.24 1821.56 1689.98 1838.52 1709.57 C 1854.71 1715.03 1869.13 1710.53 1872.14 1691.97 C 1875.95 1668.5 1879.14 1645.01 1883.05 1621.54 L 1918.77 1395.91 C 1923.51 1366.19 1928.14 1332.99 1933.22 1303.75 C 1935.92 1288.37 1938.52 1272.96 1941.03 1257.55 C 1946.59 1223.79 1950.22 1205.26 1906.5 1210.37 C 1899.38 1211.21 1891.31 1211.82 1884.06 1212.52 L 1819.7 1218.72 L 1610.65 1239.45 C 1577.49 1242.79 1537.12 1248.27 1504.45 1249.93 C 1508.7 1245.94 1541.83 1244.32 1549.38 1243.48 L 1585.08 1239.7 C 1588.79 1239.28 1592.53 1238.2 1596.24 1237.98 C 1611.26 1237.07 1649.24 1235.61 1662.64 1231.96 L 1662.99 1231.06 L 1655.31 1229.86 C 1656.82 1226.47 1656.69 1227.4 1660.6 1225.06 L 1656.76 1225.1 L 1656.89 1225.09 C 1648.09 1224.92 1637.84 1227.51 1628.04 1228.45 L 1542.55 1236.59 C 1526.63 1238.23 1485.86 1244.09 1470.96 1241.97 z"/>
    <path d="M 1432.88 1160.09 C 1438.83 1161.7 1460.52 1157.9 1467.94 1157.14 L 1545.13 1149.24 L 1662.22 1137.3 C 1675.26 1135.9 1686.52 1135.87 1700.02 1133.97 L 1699.08 1133.88 C 1706.87 1132.99 1727.91 1131.21 1735.24 1132.51 L 1735.09 1133.46 C 1732.78 1135.12 1732.11 1135.81 1730.37 1138.06 C 1725.77 1139.35 1691.7 1142.35 1684.86 1143.04 C 1637.21 1147.38 1589.6 1152.13 1542.03 1157.27 C 1531.29 1158.36 1477.56 1162.19 1471.73 1166.14 C 1461.54 1167.84 1451.17 1168.63 1440.75 1170.31 C 1383.06 1179.57 1342.83 1236.68 1352.83 1294.01 C 1356.2 1316.11 1365.94 1334.28 1381.06 1350.59 C 1382.76 1352.42 1389.52 1360.58 1388.53 1362.75 C 1385.04 1370.45 1374.47 1376.64 1368.27 1382.55 L 1307.36 1440.22 L 1085.53 1649.68 C 1062.52 1671.68 1040.02 1694.15 1016.13 1715.22 C 1000.58 1728.93 983.013 1750.1 966.37 1761.75 C 944.454 1784.09 920.642 1804.68 898.213 1826.4 C 858.691 1864.66 817.778 1901.66 778.372 1940 L 760.674 1940 C 764.109 1935.1 779.898 1921.32 785.363 1916.23 L 842.462 1862.89 L 928.192 1780.97 C 938.432 1771.3 955.156 1754.55 965.79 1746.17 C 976.535 1734.07 991.356 1721.6 1003.48 1710.32 L 1069.65 1648.43 L 1270.35 1458.24 L 1330.92 1401.03 C 1345.25 1387.73 1359.88 1375.28 1373.73 1361.25 C 1355.11 1342.18 1343.37 1317.47 1340.33 1291 C 1337 1259.14 1344.38 1227.53 1364.59 1202.04 C 1379.4 1183.35 1408.66 1162.48 1432.88 1160.09 z"/>
    <path d="M 965.79 1746.17 L 967.321 1747.67 C 957.321 1758.61 943.225 1769.83 932.164 1780.44 L 841.114 1867.18 C 833.639 1874.2 798.401 1900.92 805.594 1909.12 C 809.881 1908.27 811.936 1903.83 814.157 1900.2 L 815.013 1900 C 816.833 1899.57 820.307 1898.79 821.48 1897.42 C 832.424 1884.62 845.385 1873.73 857.542 1862.01 C 882.29 1838.15 907.608 1814.75 932.818 1791.37 C 939.912 1784.84 959.798 1763.48 965.923 1759.99 L 966.37 1761.75 C 944.454 1784.09 920.642 1804.68 898.213 1826.4 C 858.691 1864.66 817.778 1901.66 778.372 1940 L 760.674 1940 C 764.109 1935.1 779.898 1921.32 785.363 1916.23 L 842.462 1862.89 L 928.192 1780.97 C 938.432 1771.3 955.156 1754.55 965.79 1746.17 z"/>
    <path d="M 901.174 3.52208 C 942.812 12.6794 975.465 38.7721 990.636 79.3477 C 1005.37 118.745 993.634 161.442 987.201 201.765 L 965.352 340.234 L 937.049 518.686 C 932.348 548.402 928.416 578.812 922.57 607.954 C 905.576 692.674 807.352 728.887 736.905 681.98 C 732.048 678.747 717.771 665.529 714.453 664.652 C 707.345 669.101 676.826 700.17 668.603 707.968 L 607.715 765.411 C 597.098 775.24 585.848 784.622 575.381 794.902 C 567.726 802.421 542.75 827.746 535.206 832.032 C 538.578 822.672 575.324 795.629 582.06 779.226 C 582.834 777.342 582.87 777.28 581.97 775.375 C 576.756 781.718 570.229 787.046 563.962 792.388 C 555.05 799.984 545.519 814.371 534.092 816.702 C 546.97 803.677 566.038 787.178 580.019 773.8 C 622.491 733.294 665.226 693.064 708.221 653.115 C 716.315 645.725 715.473 646.275 723.65 653.656 C 734.129 663.115 743.339 671.637 755.898 678.309 C 770.114 685.816 785.825 690.058 801.888 690.727 C 830.976 691.879 858.22 680.473 879.467 660.961 C 906.252 636.362 910.668 608.581 916.031 574.9 C 919.273 555.422 922.281 535.905 925.054 516.354 L 949.591 362.27 L 976.713 191.201 C 984.81 136.802 999.36 93.1838 956.232 47.047 C 932.916 22.104 907.233 15.2168 874.611 14.472 C 876.772 14.1749 876.617 14.1677 878.684 13.5173 C 877.018 12.5205 838.084 12.593 835.238 13.2709 L 837.49 14.6209 C 830.291 15.7436 822.473 16.7369 815.197 17.0259 C 777.953 18.5055 738.696 26.9364 701.594 27.5832 C 702.561 25.1324 706.93 23.4082 709.198 21.8698 C 715.927 17.3073 836.821 6.0356 851.604 5.2388 C 863.343 4.60612 890.628 6.03173 899.432 3.96431 C 900.015 3.82732 900.594 3.66949 901.174 3.52208 z"/>
    <path d="M 472.539 128.884 C 483.015 126.682 510.468 124.546 521.81 123.544 C 547.244 121.279 572.659 118.814 598.054 116.148 L 763.754 99.6326 C 790.305 96.6993 816.888 94.061 843.497 91.7182 C 853.736 90.8311 863.944 89.2466 874.225 88.9414 C 881.349 88.7298 888.981 89.3699 895.156 93.2825 C 902.416 97.8826 908.243 105.299 909.748 113.857 C 912.772 131.053 895.899 219.871 892.268 242.623 L 863.847 421.642 L 847.818 523.328 C 844.742 543.274 842.276 563.519 838.381 583.305 C 837.009 590.274 835.444 597.336 831.106 603.146 C 825.976 610.016 817.442 614.874 808.952 615.87 C 799.023 617.034 790.147 613.697 782.496 607.497 C 769.575 597.024 728.787 545.665 717.543 544.23 C 706.317 549.452 672.395 584.011 661.453 594.443 C 623.872 630.27 583.054 666.441 546.659 703.101 L 543.16 700.994 C 546.92 697.264 552.331 693.038 553.086 688.102 C 551.374 685.825 552.469 686.38 550.115 685.764 C 536.194 696.929 530.296 704.729 518.213 716.071 L 463.65 767.138 C 457.528 772.911 438.307 792.529 431.896 793.828 C 438.884 785.423 459.663 767.255 468.652 758.696 L 566.414 666.866 C 612.596 623.46 659.396 577.485 706.85 535.609 C 745.839 513.749 778.9 624.375 816.593 599.548 C 829.104 591.308 832.381 545.095 835.186 527.211 L 853.05 414.122 L 880.116 244.118 C 886.705 203.424 894.231 159.663 899.778 118.976 C 887.573 92.2142 866.272 101.53 841.381 103.996 L 777.799 110.043 L 586.538 128.986 C 561.627 131.417 534.121 135.442 509.435 137.019 C 515.427 132.03 588.118 125.992 600.072 125.931 C 605.594 120.057 608.702 119.957 616.489 117.49 C 606.978 117.133 591.986 118.873 582.188 119.748 L 509.031 126.993 C 495.041 128.267 486.642 130.305 472.539 128.884 z"/>
    <path d="M 708.322 1066.99 C 715.445 1064.83 727.495 1051.67 733.367 1046.18 L 829.126 955.473 C 834.929 950.005 861.197 920.695 868.076 923.385 C 868.695 929.028 858.153 938.21 853.885 942.242 L 780.754 1012.19 C 771.847 1020.63 722.354 1062.87 721.117 1071.64 C 705.326 1088.27 685.766 1105.41 668.836 1121.41 L 595.938 1191.54 L 292.105 1481.61 C 223.056 1548.85 153.441 1615.5 83.2665 1681.57 C 60.1226 1703.73 37.7359 1727.23 13.8738 1748.57 C 11.0112 1751.14 2.63061 1758.5 0 1760.08 L 0 1744.82 C 41.7989 1701.3 88.714 1661.39 131.29 1618.43 C 137.819 1611.84 145.701 1605.67 152.5 1599.08 L 579.73 1189.3 C 603.431 1166.75 627.319 1145.21 650.499 1121.86 C 668.982 1103.25 689.513 1085.59 708.322 1066.99 z"/>
    <path d="M 1470.96 1241.97 C 1485.86 1244.09 1526.63 1238.23 1542.55 1236.59 L 1628.04 1228.45 C 1637.84 1227.51 1648.09 1224.92 1656.89 1225.09 L 1656.76 1225.1 L 1660.6 1225.06 C 1656.69 1227.4 1656.82 1226.47 1655.31 1229.86 L 1662.99 1231.06 L 1662.64 1231.96 C 1649.24 1235.61 1611.26 1237.07 1596.24 1237.98 C 1592.53 1238.2 1588.79 1239.28 1585.08 1239.7 L 1549.38 1243.48 C 1541.83 1244.32 1508.7 1245.94 1504.45 1249.93 C 1494.84 1251.3 1469.84 1252.51 1462.33 1254.32 C 1376.71 1274.98 1537.41 1341.62 1497.07 1380.11 C 1489.38 1387.44 1480.3 1395.3 1472.5 1402.51 L 1409.13 1462.14 L 1121.56 1733.57 L 1059.88 1791.43 C 1055.66 1795.44 1039.7 1811.88 1036.01 1814.48 C 1026.66 1824.01 1017.05 1832.25 1007.35 1841.37 L 947.545 1897.97 L 914.696 1929.59 C 911.675 1932.5 907.139 1937.88 904.164 1940 L 886.481 1940 C 904.971 1919.08 929.027 1898.57 949.567 1879.73 C 966.368 1864.32 982.364 1846.82 999.679 1831.73 C 1005.67 1826.5 1010.02 1820.55 1016.92 1816.34 C 1021.43 1808.63 1094.59 1742.39 1105.87 1731.92 L 1362.13 1489.9 C 1404.41 1450.32 1447.52 1410.32 1488.95 1369.45 C 1505.42 1353.2 1424.22 1305.9 1426.07 1277.14 C 1428.06 1246.09 1446.06 1242.5 1470.96 1241.97 z"/>
    <path d="M 1016.92 1816.34 L 1018.08 1817.03 L 1017.63 1818.77 C 1008.85 1824.87 993.186 1840.91 984.747 1848.96 C 962.96 1869.74 942.022 1890.35 919.196 1910.09 C 912.331 1916.02 904.08 1927.6 896.237 1935.04 L 896.272 1936.31 C 900.936 1937.46 905.945 1936.63 909.106 1932.53 C 916.972 1922.31 928.393 1914.01 937.678 1905.02 L 984.104 1860.72 C 991.029 1854.02 1029.67 1815.35 1036.01 1814.48 C 1026.66 1824.01 1017.05 1832.25 1007.35 1841.37 L 947.545 1897.97 L 914.696 1929.59 C 911.675 1932.5 907.139 1937.88 904.164 1940 L 886.481 1940 C 904.971 1919.08 929.027 1898.57 949.567 1879.73 C 966.368 1864.32 982.364 1846.82 999.679 1831.73 C 1005.67 1826.5 1010.02 1820.55 1016.92 1816.34 z"/>
    <path d="M 327.602 252.926 C 300.867 227.686 289.967 185.689 294.977 150.019 C 299.023 119.176 315.225 91.2283 339.981 72.3919 C 354.511 61.5865 371.234 54.099 388.971 50.4571 C 403.456 47.5435 423.259 46.2651 438.16 44.5911 C 481.422 39.7313 525.155 36.2062 568.442 31.8463 L 758.094 12.8791 C 796.039 8.99105 833.918 4.26138 871.979 1.72252 C 882.281 1.03532 890.996 2.00555 901.174 3.52208 C 900.594 3.66949 900.015 3.82732 899.432 3.96431 C 890.628 6.03173 863.343 4.60612 851.604 5.2388 C 836.821 6.0356 715.927 17.3073 709.198 21.8698 C 706.93 23.4082 702.561 25.1324 701.594 27.5832 C 738.696 26.9364 777.953 18.5055 815.197 17.0259 C 822.473 16.7369 830.291 15.7436 837.49 14.6209 L 835.238 13.2709 C 838.084 12.593 877.018 12.5205 878.684 13.5173 C 876.617 14.1677 876.772 14.1749 874.611 14.472 C 832.69 15.851 780.85 22.3962 738.245 26.7386 L 539.965 46.718 L 445.241 55.8422 C 429.372 57.3561 401.793 59.3804 386.64 63.3706 C 367.016 68.3462 349.2 78.7708 335.248 93.4407 C 315.273 114.815 304.552 143.215 305.42 172.457 C 306.674 206.528 321.529 229.225 344.594 252.442 C 334.072 267.382 313.056 283.049 299.057 296.651 C 241.433 351.943 183.407 406.816 124.986 461.264 C 101.871 483.049 78.221 505.014 55.5025 527.07 C 42.7839 539.552 29.7801 551.74 16.5015 563.624 C 12.6451 567.136 3.65158 575.767 0 578.314 L 0 562.404 C 41.2274 522.338 83.0388 484.198 124.866 444.98 L 327.602 252.926 z"/>
    <path d="M 472.539 128.884 C 486.642 130.305 495.041 128.267 509.031 126.993 L 582.188 119.748 C 591.986 118.873 606.978 117.133 616.489 117.49 C 608.702 119.957 605.594 120.057 600.072 125.931 C 588.118 125.992 515.427 132.03 509.435 137.019 L 443.726 143.25 C 428.663 144.657 386.654 144.55 391.948 169.45 C 398.238 199.036 467.157 230.876 455.895 264.977 C 452.959 271.84 417.551 302.725 409.601 310.124 L 341.185 374.763 L 110.963 592.341 L 51.892 647.777 C 43.603 655.658 7.5517 692.292 0 695.799 L 0 680.209 C 1.43348 678.366 20.4722 660.889 24.0175 657.401 C 52.2107 629.666 82.008 603.046 110.75 576.008 L 363.42 337.178 C 381.957 320.056 400.318 302.743 418.5 285.244 C 427.366 276.837 442.917 264.101 448.07 253.614 C 433.873 235.537 414.722 219.55 398.731 200.886 C 382.857 186.731 370.271 162.874 388.797 144.468 C 400.496 132.845 456.198 128.708 472.539 128.884 z"/>
    <path d="M 534.092 816.702 C 545.519 814.371 555.05 799.984 563.962 792.388 C 570.229 787.046 576.756 781.718 581.97 775.375 C 582.87 777.28 582.834 777.342 582.06 779.226 C 575.324 795.629 538.578 822.672 535.206 832.032 C 526.876 841.654 508.423 858.194 498.793 867.358 L 425.567 936.334 L 237.257 1113.85 L 68.5558 1273.01 C 51.2063 1289.36 34.574 1306.7 16.587 1322.37 C 13.1741 1325.35 3.32653 1334.59 0 1336.73 L 0 1321.15 C 38.1336 1283.29 79.401 1246.84 118.431 1209.85 L 380.95 961.234 C 420.344 924.408 460.117 887.456 498.844 849.98 C 510.594 838.61 522.676 828.554 534.092 816.702 z"/>
    <path d="M 431.896 793.828 C 438.307 792.529 457.528 772.911 463.65 767.138 L 518.213 716.071 C 530.296 704.729 536.194 696.929 550.115 685.764 C 552.469 686.38 551.374 685.825 553.086 688.102 C 552.331 693.038 546.92 697.264 543.16 700.994 L 546.659 703.101 C 518.392 730.011 488.594 756.299 460.378 783.432 C 456.755 786.917 435.753 807.997 432.976 809.26 C 410.439 832.064 382.188 857.332 358.657 879.385 L 234.34 996.356 C 157.13 1069.05 78.6416 1146.65 0 1217.18 L 0 1201.25 C 17.5635 1183.43 34.2139 1169 52.1936 1152.3 L 120.406 1087.92 C 191.528 1019.63 263.227 951.95 335.498 884.88 L 404.15 820.194 C 408.394 816.158 428.525 795.923 431.896 793.828 z"/>
    <path d="M 432.976 809.26 L 432.762 808.08 C 436.717 799.222 477.568 765.901 486.42 756.354 C 503.681 737.737 526.516 719.841 543.16 700.994 L 546.659 703.101 C 518.392 730.011 488.594 756.299 460.378 783.432 C 456.755 786.917 435.753 807.997 432.976 809.26 z"/>
    <path d="M 1149.51 503.919 C 1145.03 497.061 1139.9 489.49 1136.62 482.313 C 1112.62 429.816 1127.91 364.703 1176.95 332.301 C 1205.98 313.121 1230.04 311.2 1263.82 308.228 C 1280.33 306.775 1295.3 304.39 1311.92 303.968 C 1315.82 304.208 1318.98 304.073 1322.53 305.631 C 1320.95 310.056 1317.07 309.537 1314.74 315.361 L 1313.17 315.666 C 1305.21 317.14 1294.91 317.225 1286.69 318.109 C 1248.37 322.231 1210.52 320.527 1178.76 346.146 C 1122.56 391.474 1124.76 469.005 1177.03 516.159 C 1173.8 519.384 1166.47 527.073 1163.07 529.187 L 1158.23 530.782 L 1157.57 530.128 C 1160.6 527.354 1163.83 524.604 1163.79 520.407 L 1160.41 517.8 C 1153.95 527.696 1160.82 530.739 1144.2 530.516 C 1149.44 526.416 1154.9 520.722 1159.71 515.975 C 1156.05 511.853 1152.93 508.256 1149.51 503.919 z"/>
</svg>