<svg version="1.1" xmlns="http://www.w3.org/2000/svg" viewBox="0 0 2048 1561" preserveAspectRatio="none">
    <defs>
        <linearGradient id="Gradient1" gradientUnits="userSpaceOnUse" x1="1978.92" y1="976.688" x2="1949.99" y2="977.337">
            <stop class="stop0" offset="0" stop-opacity="1" stop-color="rgb(54,9,133)"/>
            <stop class="stop1" offset="1" stop-opacity="1" stop-color="rgb(31,23,217)"/>
        </linearGradient>
        <linearGradient id="Gradient2" gradientUnits="userSpaceOnUse" x1="2018.6" y1="923.964" x2="2054.24" y2="923.04">
            <stop class="stop0" offset="0" stop-opacity="1" stop-color="rgb(50,21,212)"/>
            <stop class="stop1" offset="1" stop-opacity="1" stop-color="rgb(72,52,158)"/>
        </linearGradient>
        <linearGradient id="Gradient3" gradientUnits="userSpaceOnUse" x1="134.956" y1="-46.5607" x2="1166.11" y2="956.19">
            <stop class="stop0" offset="0" stop-opacity="1" stop-color="rgb(241,30,122)"/>
            <stop class="stop1" offset="1" stop-opacity="1" stop-color="rgb(132,28,149)"/>
        </linearGradient>
        <linearGradient id="Gradient4" gradientUnits="userSpaceOnUse" x1="845.062" y1="821.175" x2="1164.43" y2="1142.33">
            <stop class="stop0" offset="0" stop-opacity="1" stop-color="rgb(147,20,135)"/>
            <stop class="stop1" offset="1" stop-opacity="1" stop-color="rgb(92,18,148)"/>
        </linearGradient>
    </defs>
    <path fill="url(#Gradient4)" d="M 1187.48 494.259 C 1196.23 494.634 1202.26 495.418 1209.98 500.05 C 1219.39 505.775 1226.07 515.071 1228.5 525.812 C 1230.8 535.888 1228.72 545.115 1224.95 554.584 C 1215.5 578.336 1205.58 602.106 1195.85 625.746 L 1143.14 754.404 L 968.197 1181.16 L 889.254 1373.76 L 869.843 1421.35 C 859.63 1446.47 856.59 1463.77 827.249 1469.93 C 816.393 1470.15 807.889 1469.33 798.449 1463.18 C 789.642 1457.56 783.572 1448.52 781.694 1438.25 C 780.037 1429.62 780.847 1421.11 784.087 1413 C 793.684 1388.97 803.636 1364.95 813.451 1341.02 L 870.738 1201.43 L 1044.27 777.925 L 1118.73 596.357 C 1129.37 570.253 1141.81 536.503 1154.81 511.751 C 1160.34 501.224 1175.98 496.204 1187.48 494.259 z M 824.946 1461.16 C 851.696 1454.18 853.825 1434.97 863.368 1411.5 L 888.474 1349.82 L 975.316 1138.25 L 1141.74 732.055 L 1193.89 604.737 C 1202.48 583.718 1213.26 561.158 1219.68 539.623 C 1225.35 520.568 1205.58 503.795 1187.57 503.261 C 1159.59 510.304 1159.59 522.301 1149.42 547.051 L 1127.44 600.649 L 1047.69 795.245 L 880.795 1202.49 L 823.792 1341.54 C 813.78 1365.87 803.824 1390.29 793.769 1414.6 C 783.638 1439.09 797.709 1461.83 824.946 1461.16 z"/>
    <path fill="rgb(169,35,143)" d="M 656.902 738.367 C 662.539 738.008 667.577 737.821 673.166 738.98 C 683.777 741.217 693.003 747.715 698.683 756.953 C 707.255 770.977 706.586 796.152 692.516 807.434 C 680.026 817.078 665.381 823.715 651.848 831.765 C 588.046 869.712 520.918 904.164 457.504 942.569 C 504.727 967.771 554.831 997.629 601.611 1024.2 L 651.556 1052.57 C 667.744 1061.79 691.683 1072.21 698.212 1090.42 C 701.996 1101.14 701.312 1112.93 696.315 1123.14 C 682.509 1150.84 656.283 1149.5 632.2 1137.09 C 610.364 1123.62 584.557 1109.65 562.116 1096.84 L 425.206 1018.79 C 399.54 1004.12 371.818 989.476 347.25 973.044 C 340.717 968.25 336.827 961.327 334.74 953.662 C 324.338 915.464 362.373 901.735 389.995 886.08 L 454.38 849.505 L 567.314 785.147 C 587.138 773.839 637.181 742.619 656.902 738.367 z M 639.823 1130.1 C 649.183 1135.39 655.703 1138.71 667.175 1135.74 C 691.612 1129.4 700.449 1097.06 680.098 1080.81 C 672.614 1074.84 661.178 1069.27 652.55 1064.35 L 605.433 1037.43 L 438.264 942.414 L 607.588 846.226 L 654.195 819.796 C 662.478 815.12 676.726 808.015 683.657 802.145 C 708.077 781.463 691.416 744.599 659.595 747.293 C 638.884 752.603 599.066 777.648 578.831 789.253 L 486.749 841.785 L 404.701 888.653 C 388.692 897.747 356.266 912.739 345.524 928.211 C 339.042 937.546 343.26 959.717 353.199 965.638 C 363.889 973.333 376.405 979.967 387.908 986.521 L 445.985 1019.57 L 639.823 1130.1 z"/>
    <path fill="rgb(80,23,157)" d="M 1386.91 738.361 C 1406.41 737.289 1425.25 751.671 1441.89 761.213 L 1501.14 794.972 L 1628.44 867.602 C 1650.44 880.176 1673.09 892.614 1694.76 905.733 C 1702.36 910.333 1707.06 913.921 1711.41 921.597 C 1716.93 931.226 1718.3 942.68 1715.22 953.341 C 1709.26 974.407 1684.76 984.218 1666.8 994.428 L 1610.17 1026.65 L 1425.4 1132.07 C 1409.88 1140.65 1399.74 1147.7 1380.99 1144.51 C 1349.83 1139.27 1338.11 1092.14 1363.78 1073.72 C 1383.69 1059.44 1407.85 1047.04 1429.36 1034.82 L 1528.45 978.369 C 1548.84 966.806 1572.39 954.173 1592.07 941.804 C 1518.31 903.391 1443.34 855.173 1369.78 815.118 C 1335.48 796.444 1342.68 747.76 1386.91 738.361 z M 1611.98 941.851 C 1557.49 972.078 1502.71 1004.01 1448.43 1034.84 L 1398.69 1063.12 C 1384.3 1071.32 1364.96 1078.89 1360.19 1095.79 C 1357.76 1104.37 1358.93 1113.57 1363.43 1121.27 C 1376.38 1143.56 1399.84 1136.81 1417.51 1125.82 C 1483.62 1087.03 1551.82 1049.09 1618.43 1011 L 1666.65 983.526 C 1675.73 978.39 1690.56 970.884 1698.22 964.306 C 1708.49 955.494 1710.55 936.086 1702.53 925.013 C 1696.12 916.152 1685.26 910.949 1675.91 905.529 C 1660.92 897.045 1645.83 888.786 1630.86 880.297 L 1520.57 817.366 L 1443.08 772.915 C 1430.75 765.831 1402.49 747.386 1389.85 747.346 C 1376.88 750.298 1370.39 752.239 1362.36 763.792 C 1354.34 775.339 1357.17 794.049 1368.3 802.599 C 1376.67 809.029 1388.85 815.224 1398.26 820.561 L 1451.45 850.685 C 1502.69 879.685 1556.73 912.06 1608.12 939.79 L 1611.98 941.851 z"/>
    <path fill="rgb(169,35,143)" d="M 745.474 80.319 L 1604.29 80.1795 L 1802.5 80.2686 L 1867.41 80.2768 C 1887.36 80.2677 1921.01 78.4807 1939.07 84.2632 C 1979.38 103.181 1967.92 140.566 1969.26 177.782 C 1970.26 205.422 1968.61 233.463 1969.7 261.277 L 1222.61 261.326 L 977.283 261.37 L 897.471 261.363 C 883.623 261.359 866.409 261.79 852.877 261.076 C 845.31 261.757 831.84 261.363 823.833 261.357 L 771.714 261.305 L 603.36 261.316 L 79.9641 261.43 L 79.96 260.94 L 79.7569 175.483 C 79.7038 152.323 75.987 113.254 93.3516 96.0746 C 101.566 87.8573 112.291 82.6201 123.823 81.1947 C 138.729 79.2436 173.577 80.2808 189.947 80.2786 L 317.287 80.2618 L 745.474 80.319 z M 89.2641 252.073 C 137.607 251.085 188.409 251.789 236.945 251.787 L 504.167 251.789 L 712.834 251.796 C 748.049 251.793 789.061 250.837 823.866 252.03 C 843.805 250.844 872.562 251.739 893.075 251.739 L 1025.48 251.759 L 1433.05 251.753 L 1784.65 251.789 L 1895.95 251.769 C 1914.98 251.769 1941.69 251.049 1960.16 252.524 C 1959.26 223.014 1960.09 193.096 1960.03 162.975 C 1959.98 136.644 1965.03 94.5666 1926.52 90.9079 C 1900.89 88.4731 1871.1 89.9523 1845 89.987 L 1689.03 90.0777 L 1207 90.2362 L 1051.05 90.247 C 1026.79 90.2502 993.84 91.3002 970.219 90.0044 C 902.085 91.6084 828.025 90.2882 759.444 90.2958 L 363.85 90.3358 L 206.401 90.2773 C 178.551 90.2412 150.472 89.6374 122.677 91.0667 C 115.456 91.7411 106.284 96.4709 101.356 101.731 C 85.8888 118.244 90.1229 142.794 89.4328 163.263 C 88.4545 192.284 91.1613 223.291 89.2641 252.073 z"/>
    <path fill="rgb(211,37,130)" d="M 79.9641 261.43 L 79.96 260.94 L 79.7569 175.483 C 79.7038 152.323 75.987 113.254 93.3516 96.0746 C 101.566 87.8573 112.291 82.6201 123.823 81.1947 C 138.729 79.2436 173.577 80.2808 189.947 80.2786 L 317.287 80.2618 L 745.474 80.319 C 755.909 81.5395 776.663 81.0629 787.783 81.053 L 859.804 80.9913 L 1081.61 81.2089 L 1156.11 81.3587 C 1167.66 81.3901 1183.15 80.9847 1194.5 81.6221 C 1180.98 82.9845 1114.11 82.2749 1108.59 85.4778 C 1121.64 89.4928 1145.15 86.0658 1153.36 87.8702 L 1153.74 88.6585 C 1136.49 88.6745 972.63 88.7266 970.219 90.0044 C 902.085 91.6084 828.025 90.2882 759.444 90.2958 L 363.85 90.3358 L 206.401 90.2773 C 178.551 90.2412 150.472 89.6374 122.677 91.0667 C 115.456 91.7411 106.284 96.4709 101.356 101.731 C 85.8888 118.244 90.1229 142.794 89.4328 163.263 C 88.4545 192.284 91.1613 223.291 89.2641 252.073 C 137.607 251.085 188.409 251.789 236.945 251.787 L 504.167 251.789 L 712.834 251.796 C 748.049 251.793 789.061 250.837 823.866 252.03 C 832.612 253.337 846.136 252.786 855.421 252.875 L 929.229 253.279 C 937.062 253.303 959.758 252.968 966.685 253.82 C 936.14 254.663 906.373 255.935 875.726 254.686 C 873.409 254.591 871.045 255.297 869.133 256.597 C 868.096 258.254 868.84 257.747 867.086 258.4 C 876.231 259.388 893.445 259.113 903.202 259.239 C 889.995 260.254 864.483 258.514 852.877 261.076 C 845.31 261.757 831.84 261.363 823.833 261.357 L 771.714 261.305 L 603.36 261.316 L 79.9641 261.43 z"/>
    <path fill="url(#Gradient3)" d="M 7.95684 1561 C 7.23262 1521.15 7.73062 1479.96 7.72482 1440.04 L 7.70339 1221.51 L 7.58695 569.691 L 7.54761 260.311 L 7.51095 171.653 C 7.51109 154.799 6.78258 130.101 9.17046 114.085 C 13.7623 81.2547 31.5521 51.7194 58.4258 32.3097 C 95.5813 5.07972 130.893 8.06312 173.813 8.0617 L 252.929 8.05534 L 499.344 8.04411 L 1258.98 8.08173 L 1728.01 8.16042 L 1856.22 8.11529 C 1911.77 8.02892 1975.39 1.40252 2012.88 52.8887 C 2025.73 63.1784 2039.93 98.4333 2040.23 114.877 C 2038.05 112.503 2037.87 111.797 2037.2 108.645 L 2036.55 108.943 C 2035.2 114.235 2034.8 121.073 2032.19 124.334 C 2032 96.9569 2017.27 71.3353 1999.87 51.158 L 1998.9 50.5399 C 1995.76 48.5051 1989.8 42.519 1986.04 39.7398 C 1969.44 27.6906 1949.89 20.3504 1929.46 18.495 C 1915.06 17.3167 1895.75 17.8396 1881.07 17.8457 L 1799.92 17.9073 L 1544.42 17.9464 L 735.487 18.0867 L 289.501 18.0971 L 174.494 18.0469 C 159.282 18.0396 123.68 17.1835 110.251 19.8063 C 80.0837 25.561 53.5276 43.2749 36.6258 68.9169 C 25.8099 85.2788 19.2436 104.079 17.5211 123.617 C 16.3596 137.904 17.0524 160.237 17.0723 175.219 L 17.145 266.883 L 17.1442 562.963 L 17.1418 1561 L 7.95684 1561 z"/>
    <path fill="rgb(80,23,157)" d="M 1999.87 51.158 C 2011.16 53.0455 2015.35 71.9912 2021.86 75.4231 L 2023.92 74.8012 C 2025.84 70.1216 2014.19 59.4529 2011.9 54.0592 L 2012.88 52.8887 C 2025.73 63.1784 2039.93 98.4333 2040.23 114.877 C 2038.05 112.503 2037.87 111.797 2037.2 108.645 L 2036.55 108.943 C 2035.2 114.235 2034.8 121.073 2032.19 124.334 C 2032 96.9569 2017.27 71.3353 1999.87 51.158 z"/>
    <path fill="rgb(169,35,143)" d="M 80.2941 1561 C 80.0826 1456.62 78.8594 326.035 80.7793 323.069 C 89.4567 324.552 116.286 324.028 126.007 324.024 L 212.044 323.965 L 527.353 323.969 L 1697.41 324.325 C 1787.89 324.082 1879.38 325.265 1969.74 323.87 C 1968.81 356.202 1970.41 391.001 1969.01 422.396 C 1964.04 415.562 1968.06 405.38 1965.29 397.353 C 1963.57 399.974 1964.29 431.506 1964.14 437.634 L 1960.67 661.98 L 1960.53 732.395 C 1960.54 743.248 1961.09 760.233 1960.14 770.488 C 1959.05 720.629 1959.92 667.654 1959.92 617.604 L 1959.92 332.714 C 1928.42 334.682 1878.62 333.088 1845.98 333.159 C 1783.38 333.294 1719.32 333.817 1656.82 333.025 C 1547.29 334.436 1434.82 333.136 1325.09 333.14 L 678.26 333.205 L 284.193 333.265 L 155.14 333.273 C 134.843 333.278 109.236 334.098 89.4414 333.158 L 89.4248 1233.19 C 89.4336 1341.9 88.2559 1452.51 89.5415 1561 L 80.2941 1561 z"/>
    <path fill="rgb(80,23,157)" d="M 1697.41 324.325 C 1787.89 324.082 1879.38 325.265 1969.74 323.87 C 1968.81 356.202 1970.41 391.001 1969.01 422.396 C 1964.04 415.562 1968.06 405.38 1965.29 397.353 C 1963.57 399.974 1964.29 431.506 1964.14 437.634 L 1960.67 661.98 L 1960.53 732.395 C 1960.54 743.248 1961.09 760.233 1960.14 770.488 C 1959.05 720.629 1959.92 667.654 1959.92 617.604 L 1959.92 332.714 C 1928.42 334.682 1878.62 333.088 1845.98 333.159 C 1783.38 333.294 1719.32 333.817 1656.82 333.025 L 1656.3 331.738 C 1661.5 328.214 1943.55 333.756 1948.59 329.753 C 1939.33 324.939 1929.31 327.118 1919.22 327.017 L 1862.43 326.671 C 1839.77 326.758 1713.41 328.547 1697.41 324.325 z"/>
    <path fill="url(#Gradient2)" d="M 2032.19 124.334 C 2034.8 121.073 2035.2 114.235 2036.55 108.943 L 2037.2 108.645 C 2037.87 111.797 2038.05 112.503 2040.23 114.877 C 2041.83 123.181 2041.43 146.638 2041.44 155.834 L 2041.44 227.752 C 2041.44 234.272 2041.9 271.782 2041.13 276.573 C 2042 301.447 2041.42 329.351 2041.41 354.395 L 2041.35 492.221 L 2041.31 910.394 L 2041.53 1342.72 L 2041.5 1481.67 C 2041.48 1506.93 2041.98 1535.89 2041.11 1561 L 2032.76 1561 C 2033.4 1543.02 2032.56 1519.97 2032.55 1501.43 L 2032.55 1372.6 L 2032.7 921.074 L 2032.66 770.943 C 2032.65 742.947 2032.01 712.566 2032.96 684.768 C 2031.84 675.257 2032.71 643.04 2032.71 631.944 L 2032.61 519.26 L 2032.19 124.334 z"/>
    <path fill="rgb(129,31,177)" d="M 2032.19 124.334 C 2034.8 121.073 2035.2 114.235 2036.55 108.943 L 2037.2 108.645 C 2037.87 111.797 2038.05 112.503 2040.23 114.877 C 2041.83 123.181 2041.43 146.638 2041.44 155.834 L 2041.44 227.752 C 2041.44 234.272 2041.9 271.782 2041.13 276.573 C 2040.08 282.943 2039.85 289.131 2039.5 295.56 C 2037.69 294.379 2037.07 292.589 2035.88 290.519 L 2034.84 291.28 C 2033.72 304.989 2034.06 322.153 2034.03 336.092 L 2033.92 405.447 L 2033.59 619.155 C 2033.59 626.027 2034.16 682.091 2032.96 684.768 C 2031.84 675.257 2032.71 643.04 2032.71 631.944 L 2032.61 519.26 L 2032.19 124.334 z"/>
    <path fill="url(#Gradient1)" d="M 1960.14 770.488 C 1961.09 760.233 1960.54 743.248 1960.53 732.395 L 1960.67 661.98 L 1964.14 437.634 C 1964.29 431.506 1963.57 399.974 1965.29 397.353 C 1968.06 405.38 1964.04 415.562 1969.01 422.396 C 1970.59 455.295 1969.24 499.787 1969.23 533.351 L 1969.18 748.734 L 1969.15 992.121 C 1969.15 1031.83 1970.42 1078.65 1968.93 1117.7 C 1970 1171.79 1969.17 1228.73 1969.17 1283.1 L 1969.14 1561 L 1960.11 1561 C 1958.51 1447.12 1959.93 1329.62 1959.93 1215.49 L 1959.91 1052.99 C 1959.91 1023.59 1959.31 992.362 1960.14 963.181 C 1959.8 954.001 1959.83 944.207 1959.98 935.017 C 1960.86 880.388 1958.62 825.015 1960.14 770.488 z"/>
    <path fill="rgb(80,23,157)" d="M 1960.14 963.181 C 1961.26 971.066 1960.72 1002.74 1960.74 1011.99 L 1961.1 1115.47 L 1963.46 1478 C 1963.56 1487.6 1962.61 1553.43 1964.27 1557.63 L 1966.49 1557.95 C 1968.56 1552.61 1964.26 1552.43 1964.55 1546.95 C 1965.03 1538.01 1963.63 1526.98 1964.97 1518.05 C 1965.56 1514.16 1964.48 1505.82 1964.46 1502.42 C 1964.4 1485.95 1964.44 1469.47 1964.57 1453 L 1965.3 1271.67 L 1965.48 1005.36 C 1965.51 973.306 1966.82 944.125 1966.11 912.006 L 1966.21 912.486 C 1966.45 902.822 1966.66 893.119 1967.09 883.459 C 1967.26 879.676 1966.64 873.482 1967.11 870.09 C 1968.39 894.743 1966.04 1114.72 1968.93 1117.7 C 1970 1171.79 1969.17 1228.73 1969.17 1283.1 L 1969.14 1561 L 1960.11 1561 C 1958.51 1447.12 1959.93 1329.62 1959.93 1215.49 L 1959.91 1052.99 C 1959.91 1023.59 1959.31 992.362 1960.14 963.181 z"/>
</svg>