<?xml version="1.0" encoding="UTF-8"?>
<!DOCTYPE svg PUBLIC "-//W3C//DTD SVG 1.1//EN" "http://www.w3.org/Graphics/SVG/1.1/DTD/svg11.dtd">
<svg xmlns="http://www.w3.org/2000/svg" version="1.1" width="278px" height="277px" style="shape-rendering:geometricPrecision; text-rendering:geometricPrecision; image-rendering:optimizeQuality; fill-rule:evenodd; clip-rule:evenodd" xmlns:xlink="http://www.w3.org/1999/xlink">
<g><path style="opacity:0.993" fill="#fefffe" d="M 118.5,-0.5 C 131.833,-0.5 145.167,-0.5 158.5,-0.5C 216.415,10.5709 254.581,44.2375 273,100.5C 274.589,107.621 276.089,114.621 277.5,121.5C 277.5,132.5 277.5,143.5 277.5,154.5C 268.957,208.404 239.624,246.237 189.5,268C 179.252,271.642 168.919,274.476 158.5,276.5C 145.167,276.5 131.833,276.5 118.5,276.5C 60.5854,265.429 22.4187,231.762 4,175.5C 2.41113,168.379 0.911125,161.379 -0.5,154.5C -0.5,143.5 -0.5,132.5 -0.5,121.5C 8.04261,67.5961 37.3759,29.7628 87.5,8C 97.7479,4.35772 108.081,1.52439 118.5,-0.5 Z"/></g>
<g><path style="opacity:0.909" fill="#1b168c" d="M 207.5,147.5 C 204.5,147.5 201.5,147.5 198.5,147.5C 194.536,144.037 190.702,140.37 187,136.5C 185.06,139.608 182.394,140.275 179,138.5C 178.667,122.833 178.333,107.167 178,91.5C 174.056,76.5553 164.556,67.3887 149.5,64C 132.008,60.2414 117.175,64.7414 105,77.5C 101.296,82.9421 98.9626,88.9421 98,95.5C 97.5001,110.163 97.3334,124.83 97.5,139.5C 95.1667,139.5 92.8333,139.5 90.5,139.5C 90.6495,138.448 90.4828,137.448 90,136.5C 87.9633,138.706 85.7966,140.706 83.5,142.5C 81.0521,141.527 78.3854,141.194 75.5,141.5C 80.1302,136.369 84.9635,131.369 90,126.5C 90.3333,114.833 90.6667,103.167 91,91.5C 91.873,85.7523 93.873,80.419 97,75.5C 101.167,71.3333 105.333,67.1667 109.5,63C 113.443,60.1956 117.777,58.1956 122.5,57C 147.949,50.4595 167.783,57.9595 182,79.5C 184.145,83.9338 185.478,88.6005 186,93.5C 186.333,104.5 186.667,115.5 187,126.5C 194.036,133.368 200.869,140.368 207.5,147.5 Z"/></g>
<g><path style="opacity:0.881" fill="#0c178c" d="M 108.5,94.5 C 112.306,94.02 115.639,95.02 118.5,97.5C 120.14,95.3602 122.307,94.3602 125,94.5C 129.382,94.2705 130.382,95.9372 128,99.5C 125.246,102.762 122.079,105.429 118.5,107.5C 114.585,105.093 111.085,102.093 108,98.5C 107.421,97.0715 107.588,95.7382 108.5,94.5 Z"/></g>
<g><path style="opacity:0.877" fill="#0c178c" d="M 148.5,94.5 C 152.401,93.8571 155.734,94.8571 158.5,97.5C 160.14,95.3602 162.307,94.3602 165,94.5C 169.382,94.2705 170.382,95.9372 168,99.5C 165.246,102.762 162.079,105.429 158.5,107.5C 154.585,105.093 151.085,102.093 148,98.5C 147.421,97.0715 147.588,95.7382 148.5,94.5 Z"/></g>
<g><path style="opacity:0.939" fill="#24158c" d="M 66.5,140.5 C 63.5,140.5 60.5,140.5 57.5,140.5C 58.4577,139.038 59.6244,137.705 61,136.5C 61.6667,135.5 61.6667,134.5 61,133.5C 55.9853,128.318 50.8186,123.318 45.5,118.5C 41.1465,122.522 36.8131,126.522 32.5,130.5C 29.8333,129.833 27.1667,129.167 24.5,128.5C 30.8476,121.153 37.8476,114.486 45.5,108.5C 54.1192,115.617 62.2858,123.284 70,131.5C 72.1087,135.613 70.942,138.613 66.5,140.5 Z"/></g>
<g><path style="opacity:0.928" fill="#22158c" d="M 255.5,146.5 C 253.052,145.527 250.385,145.194 247.5,145.5C 248.458,144.038 249.624,142.705 251,141.5C 251.667,140.167 251.667,138.833 251,137.5C 244.652,130.985 238.152,124.652 231.5,118.5C 225.885,122.612 220.719,127.278 216,132.5C 215.333,133.833 215.333,135.167 216,136.5C 218.705,139.036 221.205,141.703 223.5,144.5C 220.167,144.5 216.833,144.5 213.5,144.5C 208.629,141.831 206.129,137.831 206,132.5C 214.047,123.951 222.547,115.951 231.5,108.5C 241.454,116.952 250.954,125.952 260,135.5C 262.221,140.508 260.721,144.175 255.5,146.5 Z"/></g>
<g><path style="opacity:0.861" fill="#0b178c" d="M 128.5,111.5 C 134.842,111.334 141.175,111.5 147.5,112C 148.576,113.726 148.743,115.559 148,117.5C 141.916,118.642 135.749,118.809 129.5,118C 128.577,115.959 128.244,113.792 128.5,111.5 Z"/></g>
<g><path style="opacity:0.816" fill="#53108e" d="M 24.5,128.5 C 27.1667,129.167 29.8333,129.833 32.5,130.5C 30.0381,133.464 27.3714,136.297 24.5,139C 25.056,139.383 25.3893,139.883 25.5,140.5C 22.1667,140.5 18.8333,140.5 15.5,140.5C 16.8837,135.428 19.8837,131.428 24.5,128.5 Z"/></g>
<g><path style="opacity:0.966" fill="#28148c" d="M 238.5,145.5 C 235.5,145.5 232.5,145.5 229.5,145.5C 230.458,144.038 231.624,142.705 233,141.5C 233.431,136.187 231.431,135.187 227,138.5C 224.019,137.557 223.019,135.557 224,132.5C 226.05,130.112 228.384,128.112 231,126.5C 235.573,129.066 239.573,132.399 243,136.5C 243.987,140.695 242.487,143.695 238.5,145.5 Z"/></g>
<g><path style="opacity:0.879" fill="#43118e" d="M 42.5,138.5 C 39.5,138.5 36.5,138.5 33.5,138.5C 36.4468,133.718 40.2801,129.718 45,126.5C 48.9855,127.987 51.8188,130.653 53.5,134.5C 51.9522,139.011 49.2856,139.677 45.5,136.5C 44.4822,137.193 43.4822,137.859 42.5,138.5 Z"/></g>
<g><path style="opacity:1" fill="#a60793" d="M 15.5,140.5 C 18.8333,140.5 22.1667,140.5 25.5,140.5C 26.5,141.833 27.5,143.167 28.5,144.5C 25.5,144.5 22.5,144.5 19.5,144.5C 17.8333,143.5 16.5,142.167 15.5,140.5 Z"/></g>
<g><path style="opacity:0.875" fill="#900992" d="M 57.5,140.5 C 60.5,140.5 63.5,140.5 66.5,140.5C 65.5,142.167 64.1667,143.5 62.5,144.5C 59.5,144.5 56.5,144.5 53.5,144.5C 54.5,142.833 55.8333,141.5 57.5,140.5 Z"/></g>
<g><path style="opacity:0.983" fill="#930992" d="M 75.5,141.5 C 78.3854,141.194 81.0521,141.527 83.5,142.5C 82.8333,143.833 81.8333,144.833 80.5,145.5C 77.1667,145.5 73.8333,145.5 70.5,145.5C 71.5846,143.413 73.2512,142.08 75.5,141.5 Z"/></g>
<g><path style="opacity:0.978" fill="#ac0693" d="M 33.5,138.5 C 36.5,138.5 39.5,138.5 42.5,138.5C 43.8823,141.394 45.8823,143.894 48.5,146C 50.4952,146.613 52.1619,146.113 53.5,144.5C 56.5,144.5 59.5,144.5 62.5,144.5C 61.8333,145.833 60.8333,146.833 59.5,147.5C 53.1667,147.5 46.8333,147.5 40.5,147.5C 37.8697,145.372 35.3697,143.039 33,140.5C 32.3083,139.563 32.475,138.897 33.5,138.5 Z"/></g>
<g><path style="opacity:1" fill="#730c90" d="M 213.5,144.5 C 216.833,144.5 220.167,144.5 223.5,144.5C 225.249,146.531 227.249,146.865 229.5,145.5C 232.5,145.5 235.5,145.5 238.5,145.5C 236.833,147.833 234.833,149.833 232.5,151.5C 228.5,151.5 224.5,151.5 220.5,151.5C 217.833,149.5 215.5,147.167 213.5,144.5 Z"/></g>
<g><path style="opacity:0.905" fill="#fb0097" d="M 19.5,144.5 C 22.5,144.5 25.5,144.5 28.5,144.5C 35.4795,151.145 42.4795,157.812 49.5,164.5C 55.4833,159.85 61.1499,154.85 66.5,149.5C 69.7131,149.19 72.7131,149.523 75.5,150.5C 67.1976,158.634 58.6976,166.634 50,174.5C 39.328,164.995 29.1613,154.995 19.5,144.5 Z"/></g>
<g><path style="opacity:0.953" fill="#cb0495" d="M 70.5,145.5 C 73.8333,145.5 77.1667,145.5 80.5,145.5C 79.1667,147.5 77.5,149.167 75.5,150.5C 72.7131,149.523 69.7131,149.19 66.5,149.5C 67.5,147.833 68.8333,146.5 70.5,145.5 Z"/></g>
<g><path style="opacity:0.903" fill="#12168c" d="M 135.5,182.5 C 133.167,182.5 130.833,182.5 128.5,182.5C 128.5,171.167 128.5,159.833 128.5,148.5C 130.833,148.5 133.167,148.5 135.5,148.5C 135.5,159.833 135.5,171.167 135.5,182.5 Z"/></g>
<g><path style="opacity:0.876" fill="#f60097" d="M 40.5,147.5 C 46.8333,147.5 53.1667,147.5 59.5,147.5C 56.8217,151.012 53.655,154.012 50,156.5C 46.345,154.012 43.1783,151.012 40.5,147.5 Z"/></g>
<g><path style="opacity:0.969" fill="#960992" d="M 198.5,147.5 C 201.5,147.5 204.5,147.5 207.5,147.5C 209.191,148.864 210.858,150.197 212.5,151.5C 209.167,151.5 205.833,151.5 202.5,151.5C 200.833,150.5 199.5,149.167 198.5,147.5 Z"/></g>
<g><path style="opacity:0.991" fill="#8a0a91" d="M 247.5,145.5 C 250.385,145.194 253.052,145.527 255.5,146.5C 253.5,149.167 251.167,151.5 248.5,153.5C 245.5,153.5 242.5,153.5 239.5,153.5C 241.833,150.5 244.5,147.833 247.5,145.5 Z"/></g>
<g><path style="opacity:1" fill="#c80494" d="M 202.5,151.5 C 205.833,151.5 209.167,151.5 212.5,151.5C 214.167,152.5 215.5,153.833 216.5,155.5C 213.287,155.19 210.287,155.523 207.5,156.5C 205.5,155.167 203.833,153.5 202.5,151.5 Z"/></g>
<g><path style="opacity:0.889" fill="#bd0494" d="M 220.5,151.5 C 224.5,151.5 228.5,151.5 232.5,151.5C 228.603,157.994 224.603,157.994 220.5,151.5 Z"/></g>
<g><path style="opacity:0.902" fill="#f80097" d="M 239.5,153.5 C 242.5,153.5 245.5,153.5 248.5,153.5C 241.819,161.18 234.486,168.18 226.5,174.5C 219.515,169.182 213.182,163.182 207.5,156.5C 210.287,155.523 213.287,155.19 216.5,155.5C 219.813,158.478 223.147,161.478 226.5,164.5C 231.146,161.186 235.479,157.519 239.5,153.5 Z"/></g>
<g><path style="opacity:0.865" fill="#2b158d" d="M 123.5,181.5 C 120.833,181.5 118.167,181.5 115.5,181.5C 116.477,170.581 116.81,159.581 116.5,148.5C 118.833,148.5 121.167,148.5 123.5,148.5C 123.5,159.5 123.5,170.5 123.5,181.5 Z"/></g>
<g><path style="opacity:0.959" fill="#24158d" d="M 112.5,175.5 C 109.167,175.5 105.833,175.5 102.5,175.5C 100.486,172.653 97.9865,170.32 95,168.5C 91.3447,171.322 87.8447,174.322 84.5,177.5C 81.2869,177.81 78.2869,177.477 75.5,176.5C 81.2481,169.581 87.7481,163.581 95,158.5C 101.952,162.951 107.786,168.618 112.5,175.5 Z"/></g>
<g><path style="opacity:0.999" fill="#591090" d="M 147.5,163.5 C 145.167,163.5 142.833,163.5 140.5,163.5C 140.334,159.154 140.501,154.821 141,150.5C 142.67,148.302 144.67,147.968 147,149.5C 147.499,154.155 147.666,158.821 147.5,163.5 Z"/></g>
<g><path style="opacity:0.92" fill="#23168d" d="M 160.5,178.5 C 158.167,178.5 155.833,178.5 153.5,178.5C 153.334,168.828 153.5,159.161 154,149.5C 156,148.167 158,148.167 160,149.5C 160.5,159.161 160.666,168.828 160.5,178.5 Z"/></g>
<g><path style="opacity:0.914" fill="#23158d" d="M 202.5,180.5 C 199.5,180.5 196.5,180.5 193.5,180.5C 190.772,176.263 187.439,172.429 183.5,169C 179.037,168.942 176.037,171.109 174.5,175.5C 171.167,175.5 167.833,175.5 164.5,175.5C 169.153,168.847 174.82,163.18 181.5,158.5C 189.09,164.586 196.257,171.253 203,178.5C 203.692,179.437 203.525,180.103 202.5,180.5 Z"/></g>
<g><path style="opacity:0.919" fill="#5b1090" d="M 209.5,167.5 C 206.5,167.5 203.5,167.5 200.5,167.5C 195.337,163.17 190.67,158.336 186.5,153C 187.469,149.925 189.469,148.925 192.5,150C 198.37,155.702 204.036,161.535 209.5,167.5 Z"/></g>
<g><path style="opacity:0.958" fill="#1d158c" d="M 67.5,183.5 C 64.5,183.5 61.5,183.5 58.5,183.5C 55.2228,181.823 54.7228,179.49 57,176.5C 65.5,168 74,159.5 82.5,151C 87.9361,148.049 90.1028,149.549 89,155.5C 81.3333,163.167 73.6667,170.833 66,178.5C 65.3872,180.495 65.8872,182.162 67.5,183.5 Z"/></g>
<g><path style="opacity:0.955" fill="#8a0b92" d="M 140.5,163.5 C 142.833,163.5 145.167,163.5 147.5,163.5C 147.5,168.5 147.5,173.5 147.5,178.5C 145.05,178.702 142.717,178.369 140.5,177.5C 140.5,172.833 140.5,168.167 140.5,163.5 Z"/></g>
<g><path style="opacity:0.948" fill="#640f90" d="M 102.5,175.5 C 105.833,175.5 109.167,175.5 112.5,175.5C 110.883,178.784 108.55,181.451 105.5,183.5C 101.702,182.517 97.7016,182.183 93.5,182.5C 91.3531,181.068 91.0198,179.235 92.5,177C 94.8661,176.438 97.1994,176.604 99.5,177.5C 101.038,177.547 102.038,176.88 102.5,175.5 Z"/></g>
<g><path style="opacity:0.999" fill="#5c0f90" d="M 164.5,175.5 C 167.833,175.5 171.167,175.5 174.5,175.5C 175.122,176.627 175.955,177.627 177,178.5C 180.669,175.328 183.503,175.828 185.5,180C 185.361,181.301 184.695,182.134 183.5,182.5C 179.167,182.5 174.833,182.5 170.5,182.5C 167.757,180.761 165.757,178.427 164.5,175.5 Z"/></g>
<g><path style="opacity:0.974" fill="#900a92" d="M 200.5,167.5 C 203.5,167.5 206.5,167.5 209.5,167.5C 213.131,170.629 216.631,173.963 220,177.5C 220.941,179.989 220.441,181.989 218.5,183.5C 215.302,184.036 212.635,183.369 210.5,181.5C 211.501,180.211 211.334,178.878 210,177.5C 206.629,174.297 203.462,170.964 200.5,167.5 Z"/></g>
<g><path style="opacity:0.957" fill="#9b0992" d="M 93.5,182.5 C 97.7016,182.183 101.702,182.517 105.5,183.5C 101.168,188.976 97.1683,188.643 93.5,182.5 Z"/></g>
<g><path style="opacity:0.899" fill="#940992" d="M 170.5,182.5 C 174.833,182.5 179.167,182.5 183.5,182.5C 179.167,189.167 174.833,189.167 170.5,182.5 Z"/></g>
<g><path style="opacity:0.928" fill="#920a92" d="M 75.5,176.5 C 78.2869,177.477 81.2869,177.81 84.5,177.5C 83.5876,178.738 83.4209,180.072 84,181.5C 85.3756,182.705 86.5423,184.038 87.5,185.5C 84.5,185.5 81.5,185.5 78.5,185.5C 76.3171,184.15 74.6504,182.316 73.5,180C 73.8082,178.541 74.4749,177.374 75.5,176.5 Z"/></g>
<g><path style="opacity:0.999" fill="#9e0993" d="M 153.5,178.5 C 155.833,178.5 158.167,178.5 160.5,178.5C 162.091,181.431 164.091,184.098 166.5,186.5C 163.713,187.477 160.713,187.81 157.5,187.5C 153.992,185.575 152.659,182.575 153.5,178.5 Z"/></g>
<g><path style="opacity:0.93" fill="#990993" d="M 193.5,180.5 C 196.5,180.5 199.5,180.5 202.5,180.5C 200.906,183.764 198.573,186.431 195.5,188.5C 192.5,188.5 189.5,188.5 186.5,188.5C 188.862,185.808 191.196,183.141 193.5,180.5 Z"/></g>
<g><path style="opacity:1" fill="#b40694" d="M 115.5,181.5 C 118.167,181.5 120.833,181.5 123.5,181.5C 121.57,185.1 118.903,188.1 115.5,190.5C 112.5,190.5 109.5,190.5 106.5,190.5C 109.167,187.167 112.167,184.167 115.5,181.5 Z"/></g>
<g><path style="opacity:0.999" fill="#720d91" d="M 58.5,183.5 C 61.5,183.5 64.5,183.5 67.5,183.5C 70.5,185.833 73.1667,188.5 75.5,191.5C 72.6146,191.194 69.9479,191.527 67.5,192.5C 64.1667,189.833 61.1667,186.833 58.5,183.5 Z"/></g>
<g><path style="opacity:0.875" fill="#630f90" d="M 128.5,182.5 C 130.833,182.5 133.167,182.5 135.5,182.5C 136.424,186.884 135.091,190.218 131.5,192.5C 128.5,192.5 125.5,192.5 122.5,192.5C 124.127,190.37 125.96,188.37 128,186.5C 128.49,185.207 128.657,183.873 128.5,182.5 Z"/></g>
<g><path style="opacity:0.894" fill="#f40097" d="M 78.5,185.5 C 81.5,185.5 84.5,185.5 87.5,185.5C 90.9641,188.462 94.2975,191.629 97.5,195C 98.8333,195.667 100.167,195.667 101.5,195C 103.037,193.293 104.704,191.793 106.5,190.5C 109.5,190.5 112.5,190.5 115.5,190.5C 110.789,196.213 105.455,201.213 99.5,205.5C 91.8756,199.544 84.8756,192.877 78.5,185.5 Z"/></g>
<g><path style="opacity:0.863" fill="#f10197" d="M 166.5,186.5 C 169.883,189.887 173.55,192.887 177.5,195.5C 180.779,193.558 183.779,191.224 186.5,188.5C 189.5,188.5 192.5,188.5 195.5,188.5C 190.084,195.086 183.918,200.753 177,205.5C 169.748,200.419 163.248,194.419 157.5,187.5C 160.713,187.81 163.713,187.477 166.5,186.5 Z"/></g>
<g><path style="opacity:0.878" fill="#c80495" d="M 140.5,177.5 C 142.717,178.369 145.05,178.702 147.5,178.5C 147.248,181.32 147.748,183.986 149,186.5C 152.371,189.703 155.538,193.036 158.5,196.5C 155.348,197.239 152.015,197.239 148.5,196.5C 141.198,192.218 138.531,185.885 140.5,177.5 Z"/></g>
<g><path style="opacity:0.899" fill="#930a92" d="M 122.5,192.5 C 125.5,192.5 128.5,192.5 131.5,192.5C 129.833,194.833 127.833,196.833 125.5,198.5C 122.5,198.5 119.5,198.5 116.5,198.5C 118.167,196.167 120.167,194.167 122.5,192.5 Z"/></g>
<g><path style="opacity:0.976" fill="#c50595" d="M 210.5,181.5 C 212.635,183.369 215.302,184.036 218.5,183.5C 212.833,189.833 206.833,195.833 200.5,201.5C 197.713,200.523 194.713,200.19 191.5,200.5C 197.5,193.833 203.833,187.5 210.5,181.5 Z"/></g>
<g><path style="opacity:1" fill="#ac0794" d="M 75.5,191.5 C 78.5,193.833 81.1667,196.5 83.5,199.5C 80.5,199.5 77.5,199.5 74.5,199.5C 71.8333,197.5 69.5,195.167 67.5,192.5C 69.9479,191.527 72.6146,191.194 75.5,191.5 Z"/></g>
<g><path style="opacity:0.998" fill="#d30395" d="M 116.5,198.5 C 119.5,198.5 122.5,198.5 125.5,198.5C 123.167,201.5 120.5,204.167 117.5,206.5C 114.5,206.5 111.5,206.5 108.5,206.5C 110.833,203.5 113.5,200.833 116.5,198.5 Z"/></g>
<g><path style="opacity:0.911" fill="#f80097" d="M 148.5,196.5 C 152.015,197.239 155.348,197.239 158.5,196.5C 164.508,202.342 170.675,208.008 177,213.5C 181.991,209.343 186.824,205.009 191.5,200.5C 194.713,200.19 197.713,200.523 200.5,201.5C 193.458,209.543 185.792,216.876 177.5,223.5C 176.062,223.281 174.729,222.781 173.5,222C 164.964,213.632 156.631,205.132 148.5,196.5 Z"/></g>
<g><path style="opacity:0.896" fill="#f90097" d="M 74.5,199.5 C 77.5,199.5 80.5,199.5 83.5,199.5C 88.2979,203.797 92.9645,208.297 97.5,213C 98.8333,213.667 100.167,213.667 101.5,213C 103.703,210.628 106.037,208.461 108.5,206.5C 111.5,206.5 114.5,206.5 117.5,206.5C 112.123,212.878 106.123,218.545 99.5,223.5C 90.541,216.209 82.2077,208.209 74.5,199.5 Z"/></g>
</svg>
