<svg width="697" height="352" viewBox="0 0 697 352" fill="none" xmlns="http://www.w3.org/2000/svg">
<g clip-path="url(#clip0_314_950)">
<path d="M136.18 109.88H172.67" stroke="white" stroke-width="3" stroke-miterlimit="10"/>
<path d="M136.18 118.45H172.67" stroke="white" stroke-width="3" stroke-miterlimit="10"/>
<path d="M121.89 114.47L125.14 117.73L131.71 111.17" stroke="white" stroke-width="3" stroke-miterlimit="10"/>
<path d="M136.18 134.72H172.67" stroke="white" stroke-width="3" stroke-miterlimit="10"/>
<path d="M136.18 143.29H172.67" stroke="white" stroke-width="3" stroke-miterlimit="10"/>
<path d="M121.89 139.31L125.14 142.57L131.71 136" stroke="white" stroke-width="3" stroke-miterlimit="10"/>
<path d="M599.73 240.94L649.12 246.43" stroke="#41E0DC" stroke-width="4" stroke-miterlimit="10"/>
<path d="M614.66 210.78L648.97 246.74" stroke="#41E0DC" stroke-width="4" stroke-miterlimit="10"/>
<path d="M645.49 197.28L648.65 246.87" stroke="#41E0DC" stroke-width="4" stroke-miterlimit="10"/>
<path d="M677.78 206.75L648.33 246.78" stroke="#41E0DC" stroke-width="4" stroke-miterlimit="10"/>
<path d="M696.431 234.77L648.141 246.49" stroke="#41E0DC" stroke-width="4" stroke-miterlimit="10"/>
<path d="M692.711 268.21L648.181 246.15" stroke="#41E0DC" stroke-width="4" stroke-miterlimit="10"/>
<path d="M668.361 291.44L648.421 245.92" stroke="#41E0DC" stroke-width="4" stroke-miterlimit="10"/>
<path d="M634.771 293.58L648.76 245.9" stroke="#41E0DC" stroke-width="4" stroke-miterlimit="10"/>
<path d="M607.671 273.64L649.041 246.1" stroke="#41E0DC" stroke-width="4" stroke-miterlimit="10"/>
<path d="M76.2203 127.86V127.88H76.2003V127.9H76.1803V127.92H76.1603V127.94H76.1403V127.96H76.1203V127.98H76.1003V128H76.0803V128.02H76.0603V128.04H76.0403V128.06H76.0203V128.08H76.0003V128.1H75.9803V128.12H75.9603V128.14H75.9403V128.16H75.9203V128.18H75.9003V128.2H75.8803V128.22H75.8603V128.24H75.8403V128.26H75.8203V128.28H75.8003V128.3H75.7803V128.32H75.7603V128.34H75.7403V128.36H75.7203V128.38H75.7003V128.4H75.6803V128.42H75.6603V128.44H75.6403V128.46H75.6203V128.48H75.6003V128.5H75.5803V128.52H75.5603V128.54H75.5403V128.56H75.5203V128.58H75.5003V128.6H75.4803V128.62H75.4603V128.64H75.4403V128.66H75.4203V128.68H75.4003V128.7H75.3803V128.72H75.3603V128.74H75.3403V128.76H75.3203V128.78H75.3003V128.8H75.2803V128.82H75.2603V128.84H75.2403V128.86H75.2203V128.88H75.2003V128.9H75.1803V128.92H75.1603V128.94H75.1403V128.96H75.1203V128.98H75.1003V129H75.0803V129.02H75.0603V129.04H75.0403V129.06H75.0203V129.08H75.0003V129.1H74.9803V129.12H74.9603V129.14H74.9403V129.16H74.9203V129.18H74.9003V129.2H74.8803V129.22H74.8603V129.24H74.8403V129.26H74.8203V129.28H74.8003V129.3H74.7803V129.32H74.7603V129.34H74.7403V129.36H74.7203V129.38H74.7003V129.4H74.6803V129.42H74.6603V129.44H74.6403V129.46H74.6203V129.48H74.6003V129.5H74.5803V129.52H74.5603V129.54H74.5403V129.56H74.5203V129.58H74.5003V129.6H74.4803V129.62H74.4603V129.64H74.4403V129.66H74.4203V129.68H74.4003V129.7H74.3803V129.72H74.3603V129.74H74.3403V129.76H74.3203V129.78H74.3003V129.8H74.2803V129.82H74.2603V129.84H74.2403V129.86H74.2203V133C73.4803 133.32 72.7803 133.7 72.1103 134.13L69.1403 131.16L69.1203 131.18L69.1003 131.2L69.0803 131.22L69.0603 131.24L69.0403 131.26L69.0203 131.28L69.0003 131.3L68.9803 131.32L68.9603 131.34L68.9403 131.36L68.9203 131.38L68.9003 131.4L68.8803 131.42L68.8603 131.44L68.8403 131.46L68.8203 131.48L68.8003 131.5L68.7803 131.52L68.7603 131.54L68.7403 131.56L68.7203 131.58L68.7003 131.6L68.6803 131.62L68.6603 131.64L68.6403 131.66L68.6203 131.68L68.6003 131.7L68.5803 131.72L68.5603 131.74L68.5403 131.76L68.5203 131.78L68.5003 131.8L68.4803 131.82L68.4603 131.84L68.4403 131.86L68.4203 131.88L68.4003 131.9L68.3803 131.92L68.3603 131.94L68.3403 131.96L68.3203 131.98L68.3003 132L68.2803 132.02L68.2603 132.04L68.2403 132.06L68.2203 132.08L68.2003 132.1L68.1803 132.12L68.1603 132.14L68.1403 132.16L68.1203 132.18L68.1003 132.2L68.0803 132.22L68.0603 132.24L68.0403 132.26L68.0203 132.28L68.0003 132.3L67.9803 132.32L67.9603 132.34L67.9403 132.36L67.9203 132.38L67.9003 132.4L67.8803 132.42L67.8603 132.44L67.8403 132.46L67.8203 132.48L67.8003 132.5L67.7803 132.52L67.7603 132.54L67.7403 132.56L67.7203 132.58L67.7003 132.6L67.6803 132.62L67.6603 132.64L67.6403 132.66L67.6203 132.68L67.6003 132.7L67.5803 132.72L67.5603 132.74L67.5403 132.76L67.5203 132.78L67.5003 132.8L67.4803 132.82L67.4603 132.84L67.4403 132.86L67.4203 132.88L67.4003 132.9L67.3803 132.92L67.3603 132.94L67.3403 132.96L67.3203 132.98L67.3003 133L67.2803 133.02L67.2603 133.04L67.2403 133.06L67.2203 133.08L67.2003 133.1L67.1803 133.12L67.1603 133.14L67.1403 133.16L62.3503 137.95L65.4103 141.01C64.9503 141.78 64.5603 142.6 64.2403 143.45H61.5303V143.47H61.5103V143.49H61.4903V143.51H61.4703V143.53H61.4503V143.55H61.4303V143.57H61.4103V143.59H61.3903V143.61H61.3703V143.63H61.3503V143.65H61.3303V143.67H61.3103V143.69H61.2903V143.71H61.2703V143.73H61.2503V143.75H61.2303V143.77H61.2103V143.79H61.1903V143.81H61.1703V143.83H61.1503V143.85H61.1303V143.87H61.1103V143.89H61.0903V143.91H61.0703V143.93H61.0503V143.95H61.0303V143.97H61.0103V143.99H60.9903V144.01H60.9703V144.03H60.9503V144.05H60.9303V144.07H60.9103V144.09H60.8903V144.11H60.8703V144.13H60.8503V144.15H60.8303V144.17H60.8103V144.19H60.7903V144.21H60.7703V144.23H60.7503V144.25H60.7303V144.27H60.7103V144.29H60.6903V144.31H60.6703V144.33H60.6503V144.35H60.6303V144.37H60.6103V144.39H60.5903V144.41H60.5703V144.43H60.5503V144.45H60.5303V144.47H60.5103V144.49H60.4903V144.51H60.4703V144.53H60.4503V144.55H60.4303V144.57H60.4103V144.59H60.3903V144.61H60.3703V144.63H60.3503V144.65H60.3303V144.67H60.3103V144.69H60.2903V144.71H60.2703V144.73H60.2503V144.75H60.2303V144.77H60.2103V144.79H60.1903V144.81H60.1703V144.83H60.1503V144.85H60.1303V144.87H60.1103V144.89H60.0903V144.91H60.0703V144.93H60.0503V144.95H60.0303V144.97H60.0103V144.99H59.9903V145.01H59.9703V145.03H59.9503V145.05H59.9303V145.07H59.9103V145.09H59.8903V145.11H59.8703V145.13H59.8503V145.15H59.8303V145.17H59.8103V145.19H59.7903V145.21H59.7703V145.23H59.7503V145.25H59.7303V145.27H59.7103V145.29H59.6903V145.31H59.6703V145.33H59.6503V145.35H59.6303V145.37H59.6103V145.39H59.5903V145.41H59.5703V145.43H59.5503V145.45H59.5303V152.22H64.0803C64.4503 153.75 65.0603 155.19 65.8603 156.5L62.7203 159.64L67.5103 164.43L67.5303 164.41L67.5503 164.39L67.5703 164.37L67.5903 164.35L67.6103 164.33L67.6303 164.31L67.6503 164.29L67.6703 164.27L67.6903 164.25L67.7103 164.23L67.7303 164.21L67.7503 164.19L67.7703 164.17L67.7903 164.15L67.8103 164.13L67.8303 164.11L67.8503 164.09L67.8703 164.07L67.8903 164.05L67.9103 164.03L67.9303 164.01L67.9503 163.99L67.9703 163.97L67.9903 163.95L68.0103 163.93L68.0303 163.91L68.0503 163.89L68.0703 163.87L68.0903 163.85L68.1103 163.83L68.1303 163.81L68.1503 163.79L68.1703 163.77L68.1903 163.75L68.2103 163.73L68.2303 163.71L68.2503 163.69L68.2703 163.67L68.2903 163.65L68.3103 163.63L68.3303 163.61L68.3503 163.59L68.3703 163.57L68.3903 163.55L68.4103 163.53L68.4303 163.51L68.4503 163.49L68.4703 163.47L68.4903 163.45L68.5103 163.43L68.5303 163.41L68.5503 163.39L68.5703 163.37L68.5903 163.35L68.6103 163.33L68.6303 163.31L68.6503 163.29L68.6703 163.27L68.6903 163.25L68.7103 163.23L68.7303 163.21L68.7503 163.19L68.7703 163.17L68.7903 163.15L68.8103 163.13L68.8303 163.11L68.8503 163.09L68.8703 163.07L68.8903 163.05L68.9103 163.03L68.9303 163.01L68.9503 162.99L68.9703 162.97L68.9903 162.95L69.0103 162.93L69.0303 162.91L69.0503 162.89L69.0703 162.87L69.0903 162.85L69.1103 162.83L69.1303 162.81L69.1503 162.79L69.1703 162.77L69.1903 162.75L69.2103 162.73L69.2303 162.71L69.2503 162.69L69.2703 162.67L69.2903 162.65L69.3103 162.63L69.3303 162.61L69.3503 162.59L69.3703 162.57L69.3903 162.55L69.4103 162.53L69.4303 162.51L69.4503 162.49L69.4703 162.47L69.4903 162.45L69.5103 162.43L70.4803 161.46C71.7903 162.25 73.2103 162.86 74.7403 163.22V167.65H81.5103V167.63H81.5303V167.61H81.5503V167.59H81.5703V167.57H81.5903V167.55H81.6103V167.53H81.6303V167.51H81.6503V167.49H81.6703V167.47H81.6903V167.45H81.7103V167.43H81.7303V167.41H81.7503V167.39H81.7703V167.37H81.7903V167.35H81.8103V167.33H81.8303V167.31H81.8503V167.29H81.8703V167.27H81.8903V167.25H81.9103V167.23H81.9303V167.21H81.9503V167.19H81.9703V167.17H81.9903V167.15H82.0103V167.13H82.0303V167.11H82.0503V167.09H82.0703V167.07H82.0903V167.05H82.1103V167.03H82.1303V167.01H82.1503V166.99H82.1703V166.97H82.1903V166.95H82.2103V166.93H82.2303V166.91H82.2503V166.89H82.2703V166.87H82.2903V166.85H82.3103V166.83H82.3303V166.81H82.3503V166.79H82.3703V166.77H82.3903V166.75H82.4103V166.73H82.4303V166.71H82.4503V166.69H82.4703V166.67H82.4903V166.65H82.5103V166.63H82.5303V166.61H82.5503V166.59H82.5703V166.57H82.5903V166.55H82.6103V166.53H82.6303V166.51H82.6503V166.49H82.6703V166.47H82.6903V166.45H82.7103V166.43H82.7303V166.41H82.7503V166.39H82.7703V166.37H82.7903V166.35H82.8103V166.33H82.8303V166.31H82.8503V166.29H82.8703V166.27H82.8903V166.25H82.9103V166.23H82.9303V166.21H82.9503V166.19H82.9703V166.17H82.9903V166.15H83.0103V166.13H83.0303V166.11H83.0503V166.09H83.0703V166.07H83.0903V166.05H83.1103V166.03H83.1303V166.01H83.1503V165.99H83.1703V165.97H83.1903V165.95H83.2103V165.93H83.2303V165.91H83.2503V165.89H83.2703V165.87H83.2903V165.85H83.3103V165.83H83.3303V165.81H83.3503V165.79H83.3703V165.77H83.3903V165.75H83.4103V165.73H83.4303V165.71H83.4503V165.69H83.4703V165.67H83.4903V165.65H83.5103V162.52C84.2903 162.2 85.0403 161.81 85.7603 161.37L88.7003 164.31L88.7203 164.29L88.7403 164.27L88.7603 164.25L88.7803 164.23L88.8003 164.21L88.8203 164.19L88.8403 164.17L88.8603 164.15L88.8803 164.13L88.9003 164.11L88.9203 164.09L88.9403 164.07L88.9603 164.05L88.9803 164.03L89.0003 164.01L89.0203 163.99L89.0403 163.97L89.0603 163.95L89.0803 163.93L89.1003 163.91L89.1203 163.89L89.1403 163.87L89.1603 163.85L89.1803 163.83L89.2003 163.81L89.2203 163.79L89.2403 163.77L89.2603 163.75L89.2803 163.73L89.3003 163.71L89.3203 163.69L89.3403 163.67L89.3603 163.65L89.3803 163.63L89.4003 163.61L89.4203 163.59L89.4403 163.57L89.4603 163.55L89.4803 163.53L89.5003 163.51L89.5203 163.49L89.5403 163.47L89.5603 163.45L89.5803 163.43L89.6003 163.41L89.6203 163.39L89.6403 163.37L89.6603 163.35L89.6803 163.33L89.7003 163.31L89.7203 163.29L89.7403 163.27L89.7603 163.25L89.7803 163.23L89.8003 163.21L89.8203 163.19L89.8403 163.17L89.8603 163.15L89.8803 163.13L89.9003 163.11L89.9203 163.09L89.9403 163.07L89.9603 163.05L89.9803 163.03L90.0003 163.01L90.0203 162.99L90.0403 162.97L90.0603 162.95L90.0803 162.93L90.1003 162.91L90.1203 162.89L90.1403 162.87L90.1603 162.85L90.1803 162.83L90.2003 162.81L90.2203 162.79L90.2403 162.77L90.2603 162.75L90.2803 162.73L90.3003 162.71L90.3203 162.69L90.3403 162.67L90.3603 162.65L90.3803 162.63L90.4003 162.61L90.4203 162.59L90.4403 162.57L90.4603 162.55L90.4803 162.53L90.5003 162.51L90.5203 162.49L90.5403 162.47L90.5603 162.45L90.5803 162.43L90.6003 162.41L90.6203 162.39L90.6403 162.37L90.6603 162.35L90.6803 162.33L90.7003 162.31L95.4903 157.52L92.5503 154.58C93.0403 153.79 93.4603 152.95 93.8003 152.07H96.2103V152.05H96.2303V152.03H96.2503V152.01H96.2703V151.99H96.2903V151.97H96.3103V151.95H96.3303V151.93H96.3503V151.91H96.3703V151.89H96.3903V151.87H96.4103V151.85H96.4303V151.83H96.4503V151.81H96.4703V151.79H96.4903V151.77H96.5103V151.75H96.5303V151.73H96.5503V151.71H96.5703V151.69H96.5903V151.67H96.6103V151.65H96.6303V151.63H96.6503V151.61H96.6703V151.59H96.6903V151.57H96.7103V151.55H96.7303V151.53H96.7503V151.51H96.7703V151.49H96.7903V151.47H96.8103V151.45H96.8303V151.43H96.8503V151.41H96.8703V151.39H96.8903V151.37H96.9103V151.35H96.9303V151.33H96.9503V151.31H96.9703V151.29H96.9903V151.27H97.0103V151.25H97.0303V151.23H97.0503V151.21H97.0703V151.19H97.0903V151.17H97.1103V151.15H97.1303V151.13H97.1503V151.11H97.1703V151.09H97.1903V151.07H97.2103V151.05H97.2303V151.03H97.2503V151.01H97.2703V150.99H97.2903V150.97H97.3103V150.95H97.3303V150.93H97.3503V150.91H97.3703V150.89H97.3903V150.87H97.4103V150.85H97.4303V150.83H97.4503V150.81H97.4703V150.79H97.4903V150.77H97.5103V150.75H97.5303V150.73H97.5503V150.71H97.5703V150.69H97.5903V150.67H97.6103V150.65H97.6303V150.63H97.6503V150.61H97.6703V150.59H97.6903V150.57H97.7103V150.55H97.7303V150.53H97.7503V150.51H97.7703V150.49H97.7903V150.47H97.8103V150.45H97.8303V150.43H97.8503V150.41H97.8703V150.39H97.8903V150.37H97.9103V150.35H97.9303V150.33H97.9503V150.31H97.9703V150.29H97.9903V150.27H98.0103V150.25H98.0303V150.23H98.0503V150.21H98.0703V150.19H98.0903V150.17H98.1103V150.15H98.1303V150.13H98.1503V150.11H98.1703V150.09H98.1903V150.07H98.2103V143.3H94.0503C93.6503 141.59 92.9703 140 92.0503 138.57L95.0203 135.6L90.2303 130.81L90.2103 130.83L90.1903 130.85L90.1703 130.87L90.1503 130.89L90.1303 130.91L90.1103 130.93L90.0903 130.95L90.0703 130.97L90.0503 130.99L90.0303 131.01L90.0103 131.03L89.9903 131.05L89.9703 131.07L89.9503 131.09L89.9303 131.11L89.9103 131.13L89.8903 131.15L89.8703 131.17L89.8503 131.19L89.8303 131.21L89.8103 131.23L89.7903 131.25L89.7703 131.27L89.7503 131.29L89.7303 131.31L89.7103 131.33L89.6903 131.35L89.6703 131.37L89.6503 131.39L89.6303 131.41L89.6103 131.43L89.5903 131.45L89.5703 131.47L89.5503 131.49L89.5303 131.51L89.5103 131.53L89.4903 131.55L89.4703 131.57L89.4503 131.59L89.4303 131.61L89.4103 131.63L89.3903 131.65L89.3703 131.67L89.3503 131.69L89.3303 131.71L89.3103 131.73L89.2903 131.75L89.2703 131.77L89.2503 131.79L89.2303 131.81L89.2103 131.83L89.1903 131.85L89.1703 131.87L89.1503 131.89L89.1303 131.91L89.1103 131.93L89.0903 131.95L89.0703 131.97L89.0503 131.99L89.0303 132.01L89.0103 132.03L88.9903 132.05L88.9703 132.07L88.9503 132.09L88.9303 132.11L88.9103 132.13L88.8903 132.15L88.8703 132.17L88.8503 132.19L88.8303 132.21L88.8103 132.23L88.7903 132.25L88.7703 132.27L88.7503 132.29L88.7303 132.31L88.7103 132.33L88.6903 132.35L88.6703 132.37L88.6503 132.39L88.6303 132.41L88.6103 132.43L88.5903 132.45L88.5703 132.47L88.5503 132.49L88.5303 132.51L88.5103 132.53L88.4903 132.55L88.4703 132.57L88.4503 132.59L88.4303 132.61L88.4103 132.63L88.3903 132.65L88.3703 132.67L88.3503 132.69L88.3303 132.71L88.3103 132.73L88.2903 132.75L88.2703 132.77L88.2503 132.79L88.2303 132.81L87.3003 133.74C85.9803 132.98 84.5403 132.4 83.0003 132.07V127.87H76.2303L76.2203 127.86ZM75.6903 144.13C76.2503 143.91 76.8503 143.78 77.4903 143.78C80.1903 143.78 82.3803 145.97 82.3803 148.67C82.3803 149.6 82.1103 150.47 81.6603 151.22C81.1003 151.44 80.5003 151.57 79.8603 151.57C77.1603 151.57 74.9703 149.38 74.9703 146.68C74.9703 145.75 75.2403 144.88 75.6903 144.13Z" fill="#9491F5"/>
<path d="M79.8805 141.77C82.5805 141.77 84.7705 143.96 84.7705 146.66C84.7705 149.36 82.5805 151.55 79.8805 151.55C77.1805 151.55 74.9905 149.36 74.9905 146.66C74.9905 143.96 77.1805 141.77 79.8805 141.77ZM76.2405 132.17C74.6305 132.57 73.1205 133.23 71.7605 134.11L68.7905 131.14L64.0005 135.93L67.0605 138.99C66.2505 140.35 65.6405 141.84 65.2805 143.43H60.8105V150.2H65.3605C65.7305 151.73 66.3405 153.17 67.1405 154.48L64.0005 157.62L68.7905 162.41L71.8905 159.31C73.2605 160.18 74.7705 160.82 76.3905 161.21V165.64H83.1605V161.26C84.8205 160.89 86.3705 160.24 87.7705 159.36L90.7105 162.3L95.5005 157.51L92.5605 154.57C93.4205 153.2 94.0605 151.68 94.4305 150.06H98.5905V143.29H94.4305C94.0305 141.58 93.3505 139.99 92.4305 138.56L95.4005 135.59L90.6105 130.8L87.5505 133.86C86.1605 133.03 84.6405 132.41 83.0105 132.06V127.86H76.2405V132.18V132.17Z" fill="white"/>
<path d="M647.98 159.65V153.88C650.1 153.43 652.08 152.63 653.89 151.58L655.17 152.86L655.2 152.89L655.23 152.92L655.26 152.95L655.29 152.98L655.32 153.01L655.35 153.04L655.38 153.07L655.41 153.1L655.44 153.13L655.47 153.16L655.5 153.19L655.53 153.22L655.56 153.25L655.59 153.28L655.62 153.31L655.65 153.34L655.68 153.37L655.71 153.4L655.74 153.43L655.77 153.46L655.8 153.49L655.83 153.52L655.86 153.55L655.89 153.58L655.92 153.61L655.95 153.64L655.98 153.67L656.01 153.7L656.04 153.73L656.07 153.76L656.1 153.79L656.13 153.82L656.16 153.85L656.19 153.88L656.22 153.91L656.25 153.94L656.28 153.97L656.31 154L656.34 154.03L656.37 154.06L656.4 154.09L656.43 154.12L656.46 154.15L656.49 154.18L656.52 154.21L656.55 154.24L656.58 154.27L656.61 154.3L656.64 154.33L656.67 154.36L656.7 154.39L656.73 154.42L656.76 154.45L656.79 154.48L656.82 154.51L656.85 154.54L656.88 154.57L656.91 154.6L656.94 154.63L656.97 154.66L657 154.69L657.03 154.72L657.06 154.75L657.09 154.78L657.12 154.81L657.15 154.84L657.18 154.87L657.21 154.9L657.24 154.93L657.27 154.96L657.3 154.99L657.33 155.02L657.36 155.05L657.39 155.08L657.42 155.11L657.45 155.14L657.48 155.17L657.51 155.2L657.54 155.23L657.57 155.26L657.6 155.29L657.63 155.32L657.66 155.35L657.69 155.38L657.72 155.41L657.75 155.44L657.78 155.47L657.81 155.5L657.84 155.53L657.87 155.56L657.9 155.59L657.93 155.62L657.96 155.65L657.99 155.68L658.02 155.71L658.05 155.74L658.08 155.77L658.11 155.8L658.14 155.83L658.17 155.86L664.75 149.28L660.66 145.19C661.93 143.23 662.87 141.03 663.42 138.69H669.14V129.38H669.11V129.35H669.08V129.32H669.05V129.29H669.02V129.26H668.99V129.23H668.96V129.2H668.93V129.17H668.9V129.14H668.87V129.11H668.84V129.08H668.81V129.05H668.78V129.02H668.75V128.99H668.72V128.96H668.69V128.93H668.66V128.9H668.63V128.87H668.6V128.84H668.57V128.81H668.54V128.78H668.51V128.75H668.48V128.72H668.45V128.69H668.42V128.66H668.39V128.63H668.36V128.6H668.33V128.57H668.3V128.54H668.27V128.51H668.24V128.48H668.21V128.45H668.18V128.42H668.15V128.39H668.12V128.36H668.09V128.33H668.06V128.3H668.03V128.27H668V128.24H667.97V128.21H667.94V128.18H667.91V128.15H667.88V128.12H667.85V128.09H667.82V128.06H667.79V128.03H667.76V128H667.73V127.97H667.7V127.94H667.67V127.91H667.64V127.88H667.61V127.85H667.58V127.82H667.55V127.79H667.52V127.76H667.49V127.73H667.46V127.7H667.43V127.67H667.4V127.64H667.37V127.61H667.34V127.58H667.31V127.55H667.28V127.52H667.25V127.49H667.22V127.46H667.19V127.43H667.16V127.4H667.13V127.37H667.1V127.34H667.07V127.31H667.04V127.28H667.01V127.25H666.98V127.22H666.95V127.19H666.92V127.16H666.89V127.13H666.86V127.1H666.83V127.07H666.8V127.04H666.77V127.01H666.74V126.98H666.71V126.95H666.68V126.92H666.65V126.89H666.62V126.86H666.59V126.83H666.56V126.8H666.53V126.77H666.5V126.74H666.47V126.71H666.44V126.68H666.41V126.65H666.38V126.62H666.35V126.59H666.32V126.56H666.29V126.53H666.26V126.5H666.23V126.47H666.2V126.44H666.17V126.41H666.14V126.38H662.82C662.35 125.17 661.78 124.01 661.11 122.92L665.16 118.87L658.58 112.29L658.55 112.26L658.52 112.23L658.49 112.2L658.46 112.17L658.43 112.14L658.4 112.11L658.37 112.08L658.34 112.05L658.31 112.02L658.28 111.99L658.25 111.96L658.22 111.93L658.19 111.9L658.16 111.87L658.13 111.84L658.1 111.81L658.07 111.78L658.04 111.75L658.01 111.72L657.98 111.69L657.95 111.66L657.92 111.63L657.89 111.6L657.86 111.57L657.83 111.54L657.8 111.51L657.77 111.48L657.74 111.45L657.71 111.42L657.68 111.39L657.65 111.36L657.62 111.33L657.59 111.3L657.56 111.27L657.53 111.24L657.5 111.21L657.47 111.18L657.44 111.15L657.41 111.12L657.38 111.09L657.35 111.06L657.32 111.03L657.29 111L657.26 110.97L657.23 110.94L657.2 110.91L657.17 110.88L657.14 110.85L657.11 110.82L657.08 110.79L657.05 110.76L657.02 110.73L656.99 110.7L656.96 110.67L656.93 110.64L656.9 110.61L656.87 110.58L656.84 110.55L656.81 110.52L656.78 110.49L656.75 110.46L656.72 110.43L656.69 110.4L656.66 110.37L656.63 110.34L656.6 110.31L656.57 110.28L656.54 110.25L656.51 110.22L656.48 110.19L656.45 110.16L656.42 110.13L656.39 110.1L656.36 110.07L656.33 110.04L656.3 110.01L656.27 109.98L656.24 109.95L656.21 109.92L656.18 109.89L656.15 109.86L656.12 109.83L656.09 109.8L656.06 109.77L656.03 109.74L656 109.71L655.97 109.68L655.94 109.65L655.91 109.62L655.88 109.59L655.85 109.56L655.82 109.53L655.79 109.5L655.76 109.47L655.73 109.44L655.7 109.41L655.67 109.38L655.64 109.35L655.61 109.32L655.58 109.29L651.53 113.34C650.55 112.73 649.52 112.2 648.44 111.76V107.46H648.41V107.43H648.38V107.4H648.35V107.37H648.32V107.34H648.29V107.31H648.26V107.28H648.23V107.25H648.2V107.22H648.17V107.19H648.14V107.16H648.11V107.13H648.08V107.1H648.05V107.07H648.02V107.04H647.99V107.01H647.96V106.98H647.93V106.95H647.9V106.92H647.87V106.89H647.84V106.86H647.81V106.83H647.78V106.8H647.75V106.77H647.72V106.74H647.69V106.71H647.66V106.68H647.63V106.65H647.6V106.62H647.57V106.59H647.54V106.56H647.51V106.53H647.48V106.5H647.45V106.47H647.42V106.44H647.39V106.41H647.36V106.38H647.33V106.35H647.3V106.32H647.27V106.29H647.24V106.26H647.21V106.23H647.18V106.2H647.15V106.17H647.12V106.14H647.09V106.11H647.06V106.08H647.03V106.05H647V106.02H646.97V105.99H646.94V105.96H646.91V105.93H646.88V105.9H646.85V105.87H646.82V105.84H646.79V105.81H646.76V105.78H646.73V105.75H646.7V105.72H646.67V105.69H646.64V105.66H646.61V105.63H646.58V105.6H646.55V105.57H646.52V105.54H646.49V105.51H646.46V105.48H646.43V105.45H646.4V105.42H646.37V105.39H646.34V105.36H646.31V105.33H646.28V105.3H646.25V105.27H646.22V105.24H646.19V105.21H646.16V105.18H646.13V105.15H646.1V105.12H646.07V105.09H646.04V105.06H646.01V105.03H645.98V105H645.95V104.97H645.92V104.94H645.89V104.91H645.86V104.88H645.83V104.85H645.8V104.82H645.77V104.79H645.74V104.76H645.71V104.73H645.68V104.7H645.65V104.67H645.62V104.64H645.59V104.61H645.56V104.58H645.53V104.55H645.5V104.52H645.47V104.49H645.44V104.46H636.13V110.56C634.03 111.06 632.06 111.89 630.27 112.99L628.94 111.66L628.91 111.63L628.88 111.6L628.85 111.57L628.82 111.54L628.79 111.51L628.76 111.48L628.73 111.45L628.7 111.42L628.67 111.39L628.64 111.36L628.61 111.33L628.58 111.3L628.55 111.27L628.52 111.24L628.49 111.21L628.46 111.18L628.43 111.15L628.4 111.12L628.37 111.09L628.34 111.06L628.31 111.03L628.28 111L628.25 110.97L628.22 110.94L628.19 110.91L628.16 110.88L628.13 110.85L628.1 110.82L628.07 110.79L628.04 110.76L628.01 110.73L627.98 110.7L627.95 110.67L627.92 110.64L627.89 110.61L627.86 110.58L627.83 110.55L627.8 110.52L627.77 110.49L627.74 110.46L627.71 110.43L627.68 110.4L627.65 110.37L627.62 110.34L627.59 110.31L627.56 110.28L627.53 110.25L627.5 110.22L627.47 110.19L627.44 110.16L627.41 110.13L627.38 110.1L627.35 110.07L627.32 110.04L627.29 110.01L627.26 109.98L627.23 109.95L627.2 109.92L627.17 109.89L627.14 109.86L627.11 109.83L627.08 109.8L627.05 109.77L627.02 109.74L626.99 109.71L626.96 109.68L626.93 109.65L626.9 109.62L626.87 109.59L626.84 109.56L626.81 109.53L626.78 109.5L626.75 109.47L626.72 109.44L626.69 109.41L626.66 109.38L626.63 109.35L626.6 109.32L626.57 109.29L626.54 109.26L626.51 109.23L626.48 109.2L626.45 109.17L626.42 109.14L626.39 109.11L626.36 109.08L626.33 109.05L626.3 109.02L626.27 108.99L626.24 108.96L626.21 108.93L626.18 108.9L626.15 108.87L626.12 108.84L626.09 108.81L626.06 108.78L626.03 108.75L626 108.72L625.97 108.69L625.94 108.66L619.36 115.24L623.67 119.55C622.57 121.35 621.73 123.32 621.22 125.43H614.97V134.74H615V134.77H615.03V134.8H615.06V134.83H615.09V134.86H615.12V134.89H615.15V134.92H615.18V134.95H615.21V134.98H615.24V135.01H615.27V135.04H615.3V135.07H615.33V135.1H615.36V135.13H615.39V135.16H615.42V135.19H615.45V135.22H615.48V135.25H615.51V135.28H615.54V135.31H615.57V135.34H615.6V135.37H615.63V135.4H615.66V135.43H615.69V135.46H615.72V135.49H615.75V135.52H615.78V135.55H615.81V135.58H615.84V135.61H615.87V135.64H615.9V135.67H615.93V135.7H615.96V135.73H615.99V135.76H616.02V135.79H616.05V135.82H616.08V135.85H616.11V135.88H616.14V135.91H616.17V135.94H616.2V135.97H616.23V136H616.26V136.03H616.29V136.06H616.32V136.09H616.35V136.12H616.38V136.15H616.41V136.18H616.44V136.21H616.47V136.24H616.5V136.27H616.53V136.3H616.56V136.33H616.59V136.36H616.62V136.39H616.65V136.42H616.68V136.45H616.71V136.48H616.74V136.51H616.77V136.54H616.8V136.57H616.83V136.6H616.86V136.63H616.89V136.66H616.92V136.69H616.95V136.72H616.98V136.75H617.01V136.78H617.04V136.81H617.07V136.84H617.1V136.87H617.13V136.9H617.16V136.93H617.19V136.96H617.22V136.99H617.25V137.02H617.28V137.05H617.31V137.08H617.34V137.11H617.37V137.14H617.4V137.17H617.43V137.2H617.46V137.23H617.49V137.26H617.52V137.29H617.55V137.32H617.58V137.35H617.61V137.38H617.64V137.41H617.67V137.44H617.7V137.47H617.73V137.5H617.76V137.53H617.79V137.56H617.82V137.59H617.85V137.62H617.88V137.65H617.91V137.68H617.94V137.71H617.97V137.74H621.69C622.13 138.91 622.67 140.04 623.3 141.1L619.09 145.31L625.67 151.89L625.7 151.92L625.73 151.95L625.76 151.98L625.79 152.01L625.82 152.04L625.85 152.07L625.88 152.1L625.91 152.13L625.94 152.16L625.97 152.19L626 152.22L626.03 152.25L626.06 152.28L626.09 152.31L626.12 152.34L626.15 152.37L626.18 152.4L626.21 152.43L626.24 152.46L626.27 152.49L626.3 152.52L626.33 152.55L626.36 152.58L626.39 152.61L626.42 152.64L626.45 152.67L626.48 152.7L626.51 152.73L626.54 152.76L626.57 152.79L626.6 152.82L626.63 152.85L626.66 152.88L626.69 152.91L626.72 152.94L626.75 152.97L626.78 153L626.81 153.03L626.84 153.06L626.87 153.09L626.9 153.12L626.93 153.15L626.96 153.18L626.99 153.21L627.02 153.24L627.05 153.27L627.08 153.3L627.11 153.33L627.14 153.36L627.17 153.39L627.2 153.42L627.23 153.45L627.26 153.48L627.29 153.51L627.32 153.54L627.35 153.57L627.38 153.6L627.41 153.63L627.44 153.66L627.47 153.69L627.5 153.72L627.53 153.75L627.56 153.78L627.59 153.81L627.62 153.84L627.65 153.87L627.68 153.9L627.71 153.93L627.74 153.96L627.77 153.99L627.8 154.02L627.83 154.05L627.86 154.08L627.89 154.11L627.92 154.14L627.95 154.17L627.98 154.2L628.01 154.23L628.04 154.26L628.07 154.29L628.1 154.32L628.13 154.35L628.16 154.38L628.19 154.41L628.22 154.44L628.25 154.47L628.28 154.5L628.31 154.53L628.34 154.56L628.37 154.59L628.4 154.62L628.43 154.65L628.46 154.68L628.49 154.71L628.52 154.74L628.55 154.77L628.58 154.8L628.61 154.83L628.64 154.86L628.67 154.89L632.76 150.8C633.68 151.4 634.65 151.92 635.67 152.36V156.67H635.7V156.7H635.73V156.73H635.76V156.76H635.79V156.79H635.82V156.82H635.85V156.85H635.88V156.88H635.91V156.91H635.94V156.94H635.97V156.97H636V157H636.03V157.03H636.06V157.06H636.09V157.09H636.12V157.12H636.15V157.15H636.18V157.18H636.21V157.21H636.24V157.24H636.27V157.27H636.3V157.3H636.33V157.33H636.36V157.36H636.39V157.39H636.42V157.42H636.45V157.45H636.48V157.48H636.51V157.51H636.54V157.54H636.57V157.57H636.6V157.6H636.63V157.63H636.66V157.66H636.69V157.69H636.72V157.72H636.75V157.75H636.78V157.78H636.81V157.81H636.84V157.84H636.87V157.87H636.9V157.9H636.93V157.93H636.96V157.96H636.99V157.99H637.02V158.02H637.05V158.05H637.08V158.08H637.11V158.11H637.14V158.14H637.17V158.17H637.2V158.2H637.23V158.23H637.26V158.26H637.29V158.29H637.32V158.32H637.35V158.35H637.38V158.38H637.41V158.41H637.44V158.44H637.47V158.47H637.5V158.5H637.53V158.53H637.56V158.56H637.59V158.59H637.62V158.62H637.65V158.65H637.68V158.68H637.71V158.71H637.74V158.74H637.77V158.77H637.8V158.8H637.83V158.83H637.86V158.86H637.89V158.89H637.92V158.92H637.95V158.95H637.98V158.98H638.01V159.01H638.04V159.04H638.07V159.07H638.1V159.1H638.13V159.13H638.16V159.16H638.19V159.19H638.22V159.22H638.25V159.25H638.28V159.28H638.31V159.31H638.34V159.34H638.37V159.37H638.4V159.4H638.43V159.43H638.46V159.46H638.49V159.49H638.52V159.52H638.55V159.55H638.58V159.58H638.61V159.61H638.64V159.64H638.67V159.67H647.98V159.65ZM636.94 133.77C636.94 130.06 639.95 127.05 643.66 127.05C644.53 127.05 645.37 127.22 646.13 127.53C646.75 128.55 647.12 129.75 647.12 131.03C647.12 134.74 644.11 137.75 640.4 137.75C639.53 137.75 638.69 137.58 637.93 137.27C637.31 136.25 636.94 135.05 636.94 133.77Z" fill="#D475C2"/>
<path d="M636.979 133.8C636.979 130.09 639.99 127.08 643.7 127.08C647.41 127.08 650.419 130.09 650.419 133.8C650.419 137.51 647.41 140.52 643.7 140.52C639.99 140.52 636.979 137.51 636.979 133.8ZM638.7 159.68H648.01V153.91C650.25 153.43 652.35 152.57 654.25 151.43L658.46 155.64L665.039 149.06L660.95 144.97C662.22 143.01 663.16 140.81 663.71 138.47H669.43V129.16H663.71C663.19 126.93 662.31 124.84 661.14 122.96L665.19 118.91L658.609 112.33L654.56 116.38C652.63 115.18 650.5 114.28 648.21 113.77V107.75H638.9V113.85C636.67 114.38 634.59 115.27 632.71 116.46L628.45 112.2L621.87 118.78L626.18 123.09C625.08 124.89 624.239 126.86 623.729 128.97H617.479V138.28H623.63C624.11 140.47 624.95 142.52 626.07 144.38L621.859 148.59L628.44 155.17L632.53 151.08C634.4 152.29 636.47 153.19 638.69 153.75V159.7L638.7 159.68Z" fill="#E8A3DE"/>
<path d="M566.43 21V67.9C566.43 73.0915 570.638 77.3 575.83 77.3H616.45C621.641 77.3 625.85 73.0915 625.85 67.9V21C625.85 15.8085 621.641 11.6 616.45 11.6H575.83C570.638 11.6 566.43 15.8085 566.43 21Z" fill="#0C188D"/>
<path d="M610.7 26.85V35.14H610.12C609.84 32.92 609.18 31.35 608.16 30.43C607.14 29.51 605.64 29.06 603.65 29.06H598.69V55.98C598.69 57.17 598.77 58.1 598.94 58.79C599.11 59.47 599.35 59.98 599.66 60.32C599.97 60.66 600.36 60.87 600.82 60.96C601.29 61.05 601.83 61.1 602.45 61.1H603.65V62.07H588.74V61.1H589.98C590.6 61.1 591.14 61.05 591.61 60.95C592.08 60.85 592.46 60.62 592.77 60.27C593.08 59.92 593.32 59.41 593.49 58.74C593.66 58.07 593.74 57.15 593.74 55.99V29.07H589.52C588.46 29.07 587.53 29.15 586.71 29.32C585.9 29.49 585.19 29.8 584.6 30.25C584.01 30.7 583.53 31.32 583.19 32.11C582.84 32.9 582.63 33.91 582.55 35.15H581.58V26.86H610.7V26.85Z" fill="white"/>
<path d="M17.4 242.81L53.56 264.05L57.34 222.28L71.38 261.8L101.13 232.22L86.48 271.53L128.28 267.99L91.8 288.69L126.09 312.84L84.84 305.25L95.58 345.79L68.86 313.46L51.03 351.43L51.35 309.48L13.28 327.1L40.49 295.18L0 284.21L41.36 277.24L17.4 242.81Z" fill="#41E0DC"/>
<path d="M494.9 59.15C492.89 57.65 490.7 56.38 488.36 55.38C487.43 54.98 486.47 54.63 485.49 54.32C482.56 53.4 479.44 52.91 476.21 52.91H255.74C254.66 52.91 253.6 52.96 252.55 53.07C252.03 53.12 251.51 53.19 250.99 53.27C248.41 53.67 245.93 54.38 243.59 55.38C243.12 55.58 242.66 55.79 242.21 56.01C231.73 61.08 224.46 71.83 224.46 84.2V304.67C224.46 321.88 238.54 335.95 255.74 335.95H476.21C493.42 335.95 507.49 321.87 507.49 304.67V84.2C507.49 73.98 502.53 64.87 494.89 59.15H494.9Z" fill="url(#paint0_linear_314_950)"/>
<path d="M269.75 65.93C269.75 62.64 267.08 59.97 263.79 59.97C260.5 59.97 257.83 62.64 257.83 65.93C257.83 69.22 260.5 71.89 263.79 71.89C267.08 71.89 269.75 69.22 269.75 65.93Z" stroke="white" stroke-width="2.5" stroke-miterlimit="10"/>
<path d="M285.49 65.93C285.49 62.64 282.82 59.97 279.53 59.97C276.24 59.97 273.57 62.64 273.57 65.93C273.57 69.22 276.24 71.89 279.53 71.89C282.82 71.89 285.49 69.22 285.49 65.93Z" stroke="white" stroke-width="2.5" stroke-miterlimit="10"/>
<path d="M301.231 65.93C301.231 62.64 298.561 59.97 295.271 59.97C291.981 59.97 289.311 62.64 289.311 65.93C289.311 69.22 291.981 71.89 295.271 71.89C298.561 71.89 301.231 69.22 301.231 65.93Z" stroke="white" stroke-width="2.5" stroke-miterlimit="10"/>
<path d="M454.291 65.93H469.411" stroke="white" stroke-width="2.5" stroke-miterlimit="10"/>
<path d="M431.921 75.67C437.3 75.67 441.661 71.3093 441.661 65.93C441.661 60.5508 437.3 56.19 431.921 56.19C426.541 56.19 422.181 60.5508 422.181 65.93C422.181 71.3093 426.541 75.67 431.921 75.67Z" stroke="white" stroke-width="2.5" stroke-miterlimit="10"/>
<path d="M436.721 64.34L432.011 69.47L431.921 69.39L427.221 64.26" stroke="white" stroke-width="2.5" stroke-miterlimit="10"/>
<path d="M461.851 58.37V73.49" stroke="white" stroke-width="2.5" stroke-miterlimit="10"/>
<path d="M489.331 58.47H483.811V63.99H489.331V58.47Z" stroke="white" stroke-width="2.5" stroke-miterlimit="10"/>
<path d="M499.51 58.47H493.99V63.99H499.51V58.47Z" stroke="white" stroke-width="2.5" stroke-miterlimit="10"/>
<path d="M489.331 67.87H483.811V73.39H489.331V67.87Z" stroke="white" stroke-width="2.5" stroke-miterlimit="10"/>
<path d="M499.51 67.87H493.99V73.39H499.51V67.87Z" stroke="white" stroke-width="2.5" stroke-miterlimit="10"/>
<path d="M507.14 46.38C505.13 44.87 502.93 43.6 500.59 42.61C499.65 42.21 498.7 41.86 497.72 41.55C494.78 40.63 491.66 40.14 488.43 40.14H267.72C266.64 40.14 265.58 40.2 264.53 40.3C264.01 40.35 263.48 40.42 262.97 40.5C260.39 40.9 257.9 41.61 255.56 42.61C255.09 42.81 254.63 43.02 254.17 43.24C243.68 48.31 236.4 59.08 236.4 71.46V292.17C236.4 309.39 250.49 323.49 267.72 323.49H488.43C505.65 323.49 519.75 309.4 519.75 292.17V71.46C519.75 61.23 514.78 52.11 507.14 46.39V46.38Z" stroke="white" stroke-width="2.5" stroke-miterlimit="10"/>
<path d="M199.83 137.65L230.06 99.61C230.06 99.61 238.81 99.63 232.8 113.77L224.7 133.67L199.83 137.65Z" fill="#E8A3DE"/>
<path d="M235.25 151.15C236.81 149.63 239.02 148.97 241.16 149.36L263.02 153.43C266.09 154 269.26 153.57 272.05 152.19C275.56 150.45 279.2 147.45 277.28 142.9L235.83 126.53C233.41 125.58 230.68 125.86 228.52 127.3L199.83 137.66L187.79 152.29L235.25 151.16V151.15Z" fill="#E8A3DE"/>
<path d="M128.46 176.46L128.9 235.65C128.9 235.65 141.59 235.35 157.47 233.42C185.08 230.08 226.49 221.83 246.28 201.73C247.74 200.24 249.62 199.24 251.63 198.67C258.44 196.73 273.95 191.51 270.52 185.11C265.49 175.72 236.98 182.27 236.98 182.27C236.98 182.27 215.63 189.03 214.32 180.4C213.31 173.75 226.92 165.07 233.2 161.45C235.09 160.36 237.39 160.26 239.37 161.18L259.55 170.51C262.38 171.82 265.56 172.19 268.61 171.53C272.44 170.71 276.71 168.7 275.97 163.82L239.84 137.73C237.73 136.21 235.02 135.81 232.56 136.67L187.8 152.28L167.2 175.72L128.47 176.45L128.46 176.46Z" fill="#E8A3DE"/>
<path d="M261.27 153.21L239.83 137.73C237.72 136.21 235.01 135.81 232.55 136.67L205.67 146.05" stroke="black" stroke-width="1.16" stroke-miterlimit="10"/>
<path d="M226.96 127.86L206.729 134.99" stroke="black" stroke-width="1.16" stroke-miterlimit="10"/>
<path d="M248.92 197.7C248.92 197.7 249.09 192.94 247.1 190.16" stroke="black" stroke-width="1.16" stroke-miterlimit="10"/>
<path d="M271.97 176.24C271.4 175.97 270.85 175.71 270.3 175.46C268.62 174.68 266.95 173.9 265.27 173.12C265.15 173.07 265.03 173.02 264.92 172.95C264.53 172.7 264.56 172.21 264.98 172.02C265.31 171.87 265.65 171.75 265.99 171.63C273.88 168.7 281.77 165.77 289.66 162.84C289.96 162.73 290.25 162.63 290.52 162.87C290.79 163.11 290.7 163.39 290.58 163.66C287.33 171.22 284.07 178.77 280.82 186.33C280.78 186.43 280.73 186.53 280.68 186.63C280.45 186.99 279.96 187.02 279.69 186.68C279.6 186.56 279.53 186.42 279.46 186.29C278.41 184.34 277.37 182.4 276.32 180.45C276.27 180.35 276.21 180.26 276.14 180.13C276.03 180.22 275.93 180.29 275.84 180.38C274.18 181.92 272.52 183.46 270.86 185C270.77 185.09 270.68 185.18 270.57 185.25C270.34 185.41 270.07 185.41 269.84 185.25C269.83 185.25 269.82 185.23 269.81 185.22C268.7 184.19 267.59 183.16 266.48 182.13C266.23 181.89 266.25 181.62 266.48 181.36C266.54 181.29 266.62 181.22 266.69 181.16C267.33 180.56 267.98 179.97 268.62 179.37C269.64 178.43 270.65 177.48 271.67 176.54C271.76 176.45 271.85 176.36 271.96 176.25L271.97 176.24Z" fill="white"/>
<path d="M517.1 213.38C507.33 207.49 504.31 213.73 504.31 213.73C498.68 210.44 493.89 212.16 491.18 213.82L466.16 189.67C466.16 189.67 455.28 191.17 465.15 207.76L486.41 236.98C492.55 246.48 501.61 262.1 499.16 266C496.79 269.76 492.03 268.1 488.91 266.38C485.72 264.62 482.88 262.27 479.75 260.4C475.5 257.86 470.95 255.65 466.22 254.15C463.6 253.31 459.26 251.95 456.89 254.1C452.07 258.46 461.66 266.49 466 271.11C476.44 282.26 542.2 351.48 542.2 351.48L605.24 312.56C605.24 312.56 550.57 236.69 541.77 226.69C523.86 206.33 517.1 213.38 517.1 213.38Z" fill="white"/>
<path d="M504.32 212.97C504.32 212.97 515.36 218.97 524.24 228.88" stroke="black" stroke-width="1.04" stroke-miterlimit="10"/>
<path d="M491.33 213.64C491.33 213.64 505.09 226.75 514.09 237.35" stroke="black" stroke-width="1.04" stroke-miterlimit="10"/>
<path d="M517.21 212.87C517.21 212.87 522.38 214.73 531.27 223.5" stroke="black" stroke-width="1.04" stroke-miterlimit="10"/>
<path d="M495.39 251.25C495.39 251.25 492.74 260.64 488.63 258.04C482.24 254 481.51 228.46 481.51 228.46L495.39 251.25Z" fill="white"/>
<path d="M481.391 230.26L495.221 251.78" stroke="black" stroke-width="1.04" stroke-miterlimit="10"/>
<path d="M469.181 183.2L472.391 177.8" stroke="white" stroke-width="1.22" stroke-miterlimit="10"/>
<path d="M462.1 182.9L461.13 176.7" stroke="white" stroke-width="1.22" stroke-miterlimit="10"/>
<path d="M456.46 187.19L451.75 183.03" stroke="white" stroke-width="1.22" stroke-miterlimit="10"/>
<path d="M454.84 194.09L448.57 193.88" stroke="white" stroke-width="1.22" stroke-miterlimit="10"/>
<path d="M160.76 345.77H254.12C257.34 345.77 259.95 343.16 259.95 339.94V266C259.95 262.78 257.34 260.17 254.12 260.17H160.76C157.54 260.17 154.93 262.78 154.93 266V339.94C154.93 343.16 157.54 345.77 160.76 345.77Z" fill="white"/>
<path d="M259.38 318.1L274.2 303.29L259.38 288.47V318.1Z" fill="white"/>
<path d="M216.99 275.29L220.48 275.75C223.11 276.1 225.23 277.28 226.83 279.29C228.43 281.3 229.23 284 229.23 287.38V292.04C229.23 294.11 229.78 295.88 230.87 297.37C231.96 298.85 233.33 299.85 234.98 300.37C235.22 300.93 235.33 301.73 235.33 302.77C235.33 303.81 235.21 304.6 234.98 305.17C233.34 305.66 231.96 306.65 230.87 308.12C229.78 309.59 229.23 311.37 229.23 313.46V318.05C229.23 321.48 228.43 324.19 226.83 326.18C225.23 328.17 223.12 329.35 220.48 329.72L216.99 330.18C216.66 329.85 216.39 329.39 216.18 328.79C215.97 328.19 215.83 327.56 215.76 326.9C215.69 326.24 215.71 325.65 215.83 325.14L218.69 324.36C219.89 324.05 220.75 323.31 221.26 322.14C221.78 320.96 222.04 319.58 222.04 317.98V313.61C222.04 311.38 222.6 309.27 223.73 307.28C224.86 305.29 226.34 303.89 228.17 303.07V302.51C226.34 301.69 224.85 300.28 223.73 298.28C222.6 296.28 222.04 294.17 222.04 291.93V287.49C222.04 285.91 221.78 284.54 221.26 283.36C220.74 282.19 219.88 281.44 218.69 281.14L215.83 280.4C215.71 279.88 215.69 279.3 215.76 278.64C215.83 277.98 215.97 277.35 216.18 276.75C216.39 276.15 216.66 275.67 216.99 275.32V275.29Z" fill="black"/>
<path d="M197.88 275.29C198.21 275.64 198.48 276.12 198.69 276.72C198.9 277.32 199.05 277.95 199.13 278.61C199.21 279.27 199.19 279.86 199.08 280.37L196.19 281.11C195.02 281.42 194.17 282.16 193.65 283.33C193.13 284.51 192.87 285.88 192.87 287.46V291.9C192.87 294.13 192.31 296.25 191.18 298.25C190.05 300.25 188.57 301.66 186.74 302.48V303.04C188.57 303.86 190.05 305.27 191.18 307.25C192.31 309.24 192.87 311.35 192.87 313.58V317.95C192.87 319.55 193.13 320.94 193.65 322.11C194.17 323.28 195.01 324.03 196.19 324.33L199.08 325.11C199.2 325.63 199.22 326.22 199.13 326.87C199.05 327.53 198.9 328.16 198.69 328.76C198.48 329.36 198.21 329.82 197.88 330.15L194.39 329.69C191.76 329.31 189.65 328.13 188.06 326.15C186.47 324.16 185.68 321.45 185.68 318.02V313.43C185.68 311.34 185.13 309.56 184.04 308.09C182.95 306.62 181.58 305.64 179.93 305.14C179.67 304.58 179.54 303.78 179.54 302.74C179.54 301.7 179.67 300.91 179.93 300.34C181.58 299.82 182.94 298.82 184.04 297.34C185.13 295.86 185.68 294.08 185.68 292.01V287.35C185.68 283.97 186.47 281.27 188.06 279.26C189.65 277.25 191.76 276.07 194.39 275.72L197.88 275.26V275.29Z" fill="black"/>
<path d="M586.46 101.62H504.31C501.471 101.62 499.17 103.921 499.17 106.76V171.82C499.17 174.659 501.471 176.96 504.31 176.96H586.46C589.299 176.96 591.6 174.659 591.6 171.82V106.76C591.6 103.921 589.299 101.62 586.46 101.62Z" fill="#41E0DC"/>
<path d="M499.67 152.61L486.63 139.57L499.67 126.53V152.61Z" fill="#41E0DC"/>
<path d="M531.82 128.74C532.45 129.11 532.99 129.65 533.44 130.39C533.89 131.12 534.15 131.92 534.21 132.79L522.35 139.01C521.88 139.24 521.25 139.54 520.46 139.91C519.67 140.28 519.07 140.55 518.68 140.73V141.05C519.08 141.22 519.67 141.48 520.46 141.84C521.25 142.2 521.88 142.5 522.35 142.75L534.21 148.97C534.13 149.82 533.85 150.62 533.39 151.38C532.92 152.14 532.4 152.7 531.82 153.07L513.39 142.96C513.22 142.34 513.13 141.66 513.1 140.91C513.07 140.16 513.17 139.47 513.39 138.84L531.82 128.75V128.74Z" fill="black"/>
<path d="M551.04 121C551.79 121.05 552.57 121.22 553.37 121.51C554.18 121.8 554.89 122.19 555.5 122.67L539.75 164.54C539 164.47 538.23 164.3 537.43 164.02C536.63 163.74 535.91 163.35 535.26 162.85L551.04 121Z" fill="black"/>
<path d="M558.93 152.99C558.33 152.62 557.8 152.08 557.34 151.34C556.88 150.61 556.61 149.81 556.53 148.94L568.42 142.7C568.89 142.45 569.51 142.15 570.29 141.79C571.07 141.43 571.67 141.17 572.09 141V140.68C571.67 140.5 571.07 140.23 570.29 139.87C569.51 139.51 568.88 139.22 568.42 138.98L556.53 132.76C556.63 131.89 556.91 131.09 557.37 130.34C557.83 129.59 558.36 129.03 558.95 128.67L577.4 138.78C577.55 139.38 577.64 140.06 577.66 140.81C577.68 141.57 577.6 142.26 577.4 142.9L558.92 152.99H558.93Z" fill="black"/>
</g>
<defs>
<linearGradient id="paint0_linear_314_950" x1="233.64" y1="326.77" x2="498.3" y2="62.11" gradientUnits="userSpaceOnUse">
<stop stop-color="#DA0093"/>
<stop offset="0.06" stop-color="#C50391"/>
<stop offset="0.24" stop-color="#900B8E"/>
<stop offset="0.41" stop-color="#65118C"/>
<stop offset="0.58" stop-color="#43178A"/>
<stop offset="0.74" stop-color="#2A1A89"/>
<stop offset="0.88" stop-color="#1C1D88"/>
<stop offset="1" stop-color="#171E88"/>
</linearGradient>
<clipPath id="clip0_314_950">
<rect width="696.9" height="351.48" fill="white"/>
</clipPath>
</defs>
</svg>
