<svg width="306" height="220" viewBox="0 0 306 220" fill="none" xmlns="http://www.w3.org/2000/svg">
<g clip-path="url(#clip0_39_902)">
<path d="M32.6576 219.179H24.7622L19.6005 197.462H19.3947L14.1859 219.179H6.49625L0 192.624H5.62029L10.2118 214.288H10.4175L15.3676 192.624H23.7275L28.6305 214.288H28.8363L33.4807 192.624H39.0539L32.6576 219.179Z" fill="white"/>
<path d="M55.562 191.797C60.3063 191.797 63.7631 194.061 65.0565 196.735H65.2094C65.1565 196.172 65.1094 195.498 65.1094 194.108V192.618H70.2182V219.173H65.1094V217.267C65.1094 216.082 65.1623 215.314 65.2094 214.593H65.0565C63.6632 217.73 60.0006 219.994 55.3562 219.994C47.3079 219.994 41.9404 214.077 41.9404 205.896C41.9404 197.714 47.6136 191.797 55.562 191.797ZM64.8978 205.849C64.8978 200.494 61.2881 196.688 56.2322 196.688C51.1763 196.688 47.5666 200.494 47.5666 205.849C47.5666 211.203 51.2821 215.009 56.2322 215.009C61.1823 215.009 64.8978 211.15 64.8978 205.849Z" fill="white"/>
<path d="M84.0869 219.179L74.8511 192.624H80.8359L87.6966 214.288H87.9024L94.7631 192.624H100.695L91.5121 219.179H84.081H84.0869Z" fill="white"/>
<path d="M117.056 220C108.802 220 102.87 213.977 102.87 205.901C102.87 197.826 108.802 191.803 116.956 191.803C125.11 191.803 130.06 197.773 130.06 205.901C130.06 206.517 130.007 207.391 129.907 207.907H108.702C109.425 212.282 112.57 215.009 117.109 215.009C120.413 215.009 122.782 213.825 124.693 211.408L127.944 214.751C125.316 218.252 121.6 220 117.056 220ZM108.696 203.896H124.534C124.123 199.673 121.13 196.688 116.844 196.688C112.559 196.688 109.413 199.521 108.69 203.896H108.696Z" fill="white"/>
<path d="M150.537 220C146.257 220 142.488 218.2 140.783 215.062H140.631C140.684 215.731 140.736 216.552 140.736 217.736V219.179H135.575V180.578H141.148V193.75C141.148 195.14 141.095 195.808 140.995 196.377H141.148C142.694 193.65 146.41 191.797 150.384 191.797C158.379 191.797 163.9 197.662 163.9 205.896C163.9 214.129 158.485 219.994 150.537 219.994V220ZM158.273 205.849C158.273 200.494 154.558 196.688 149.555 196.688C144.552 196.688 140.942 200.494 140.942 205.849C140.942 211.203 144.499 215.009 149.555 215.009C154.611 215.009 158.273 211.15 158.273 205.849Z" fill="white"/>
<path d="M169.056 185.006C169.056 183.1 170.549 181.663 172.46 181.663C174.37 181.663 175.864 183.106 175.864 185.006C175.864 186.906 174.317 188.349 172.46 188.349C170.602 188.349 169.056 186.906 169.056 185.006ZM169.673 219.179V192.624H175.246V219.179H169.673Z" fill="white"/>
<path d="M205.064 192.624V219.179H199.491V197.462H188.45V219.179H182.877V192.624H205.058H205.064Z" fill="white"/>
<path d="M224.406 191.797C228.327 191.797 232.096 193.445 233.589 196.172H233.795C233.689 195.603 233.642 194.987 233.642 193.545V180.578H239.162V219.179H234.053V217.478C234.053 216.294 234.106 215.472 234.159 214.804H234.006C232.254 218.147 228.539 220 224.206 220C216.263 220 210.896 214.135 210.896 205.901C210.896 197.667 216.416 191.803 224.412 191.803L224.406 191.797ZM233.847 205.849C233.847 200.494 230.238 196.688 225.182 196.688C220.126 196.688 216.516 200.494 216.516 205.849C216.516 211.203 220.232 215.009 225.182 215.009C230.132 215.009 233.847 211.15 233.847 205.849Z" fill="white"/>
<path d="M259.074 220C250.82 220 244.888 213.977 244.888 205.901C244.888 197.826 250.82 191.803 258.974 191.803C267.128 191.803 272.078 197.773 272.078 205.901C272.078 206.517 272.025 207.391 271.926 207.907H250.72C251.443 212.282 254.588 215.009 259.127 215.009C262.431 215.009 264.8 213.825 266.711 211.408L269.962 214.751C267.334 218.252 263.619 220 259.074 220ZM250.72 203.896H266.558C266.147 199.673 263.154 196.688 258.868 196.688C254.583 196.688 251.437 199.521 250.714 203.896H250.72Z" fill="white"/>
<path d="M289.927 192.624V197.562H283.166V219.179H277.593V192.624H289.921H289.927Z" fill="white"/>
<path d="M293.496 212.939H291.45V211.725H296.941V212.939H294.918V218.886H293.496V212.939ZM300.474 218.886L299.557 212.921H299.051V218.886H297.681V211.725H300.774L301.597 217.637H302.102L302.943 211.725H306V218.886H304.648V212.921H304.16L303.261 218.886H300.468H300.474Z" fill="white"/>
<path d="M179.996 36.132H176.48C176.022 36.132 175.581 36.3138 175.258 36.6364L173.082 38.8063C172.406 39.4807 171.313 39.4807 170.637 38.8063L168.462 36.6364C168.138 36.3138 167.697 36.132 167.239 36.132H163.723C162.183 36.132 161.413 37.9911 162.5 39.076L170.637 47.1927C171.313 47.8671 172.406 47.8671 173.082 47.1927L181.219 39.076C182.307 37.9911 181.536 36.132 179.996 36.132Z" fill="white"/>
<path d="M135.369 47.1986L143.506 39.0819C144.593 37.997 143.823 36.1379 142.283 36.1379H138.767C138.309 36.1379 137.868 36.3197 137.544 36.6422L135.369 38.8122C134.693 39.4866 133.599 39.4866 132.923 38.8122L130.748 36.6422C130.425 36.3197 129.984 36.1379 129.525 36.1379H126.01C124.469 36.1379 123.699 37.997 124.787 39.0819L132.923 47.1986C133.599 47.873 134.693 47.873 135.369 47.1986Z" fill="white"/>
<path d="M160.084 51.685H145.916C144.903 51.685 144.082 52.5042 144.082 53.5148V55.7844C144.082 56.7949 144.903 57.6142 145.916 57.6142H160.084C161.097 57.6142 161.918 56.7949 161.918 55.7844V53.5148C161.918 52.5042 161.097 51.685 160.084 51.685Z" fill="white"/>
<path d="M267.875 75.6772L242.654 50.518C241.496 49.3626 239.609 49.3626 238.451 50.518L217.433 71.484C216.275 72.6394 216.275 74.5219 217.433 75.6772L234.247 92.4501C235.405 93.6054 237.292 93.6054 238.451 92.4501L251.061 79.8704C252.219 78.7151 252.219 76.8326 251.061 75.6772L242.654 67.2908C241.496 66.1355 239.609 66.1355 238.451 67.2908L234.247 71.484C233.089 72.6394 233.089 74.5219 234.247 75.6772C235.405 76.8326 237.292 76.8326 238.451 75.6772C239.609 74.5219 241.496 74.5219 242.654 75.6772C243.812 76.8326 243.812 78.7151 242.654 79.8704L238.451 84.0637C237.292 85.219 235.405 85.219 234.247 84.0637L225.84 75.6772C224.682 74.5219 224.682 72.6394 225.84 71.484L238.451 58.9044C239.609 57.749 241.496 57.749 242.654 58.9044L259.468 75.6772C260.626 76.8326 260.626 78.7151 259.468 79.8704L238.415 100.872C237.269 102.015 235.417 102.033 234.247 100.907L197.598 65.5842V38.0849C197.598 28.9185 193.947 20.1274 187.451 13.6411L183.923 10.1224C177.427 3.64194 168.608 0 159.42 0H146.598C137.409 0 128.596 3.64194 122.094 10.1224L118.531 13.6763C112.053 20.1392 108.408 28.895 108.384 38.0321L108.314 65.6898L71.7702 100.907C70.6062 102.033 68.7484 102.015 67.602 100.872L46.5495 79.8704C45.3913 78.7151 45.3913 76.8326 46.5495 75.6772L63.3633 58.9044C64.5214 57.749 66.4086 57.749 67.5668 58.9044L80.1771 71.484C81.3353 72.6394 81.3353 74.5219 80.1771 75.6772L71.7702 84.0637C70.6121 85.219 68.7249 85.219 67.5668 84.0637L63.3633 79.8704C62.2051 78.7151 62.2051 76.8326 63.3633 75.6772C64.5214 74.5219 66.4086 74.5219 67.5668 75.6772C68.7249 76.8326 70.6121 76.8326 71.7702 75.6772C72.9284 74.5219 72.9284 72.6394 71.7702 71.484L67.5668 67.2908C66.4086 66.1355 64.5214 66.1355 63.3633 67.2908L54.9564 75.6772C53.7982 76.8326 53.7982 78.7151 54.9564 79.8704L67.5668 92.4501C68.7249 93.6054 70.6121 93.6054 71.7702 92.4501L88.584 75.6772C89.7422 74.5219 89.7422 72.6394 88.584 71.484L67.5668 50.518C66.4086 49.3626 64.5214 49.3626 63.3633 50.518L38.1425 75.6772C36.9844 76.8326 36.9844 78.7151 38.1425 79.8704L67.5903 109.246C68.7425 110.396 70.6062 110.408 71.7702 109.27L108.29 73.5836L108.42 77.1493H114.363V40.5481C114.363 31.3817 118.014 22.5906 124.51 16.1043C131.007 9.62386 139.825 5.98193 149.014 5.98193H156.998C166.186 5.98193 174.999 9.62386 181.501 16.1043C187.997 22.5847 191.648 31.3817 191.648 40.5481V77.1493H197.592L197.721 73.5836L234.241 109.27C235.405 110.408 237.269 110.396 238.421 109.246L267.869 79.8704C269.027 78.7151 269.027 76.8326 267.869 75.6772H267.875Z" fill="url(#paint0_linear_39_902)"/>
<path d="M170.519 86.562C168.879 86.562 167.544 87.8874 167.544 89.5295V117.867C167.544 118.653 167.856 119.41 168.415 119.967L187.48 138.986C188.638 140.141 190.525 140.141 191.683 138.986L212.701 118.02C213.859 116.865 213.859 114.982 212.701 113.827L195.887 97.0538C194.729 95.8985 192.842 95.8985 191.683 97.0538L179.073 109.633C177.915 110.789 177.915 112.671 179.073 113.827L187.48 122.213C188.638 123.368 190.525 123.368 191.683 122.213L195.887 118.02C197.045 116.865 197.045 114.982 195.887 113.827C194.729 112.671 192.842 112.671 191.683 113.827C190.525 114.982 188.638 114.982 187.48 113.827C186.322 112.671 186.322 110.789 187.48 109.633L191.683 105.44C192.842 104.285 194.729 104.285 195.887 105.44L204.294 113.827C205.452 114.982 205.452 116.865 204.294 118.02L191.683 130.6C190.525 131.755 188.638 131.755 187.48 130.6L174.358 117.51C173.8 116.953 173.488 116.202 173.488 115.41V89.5295C173.488 87.8933 172.159 86.562 170.513 86.562H170.519Z" fill="url(#paint1_linear_39_902)"/>
<path d="M204.3 88.6615C203.142 87.5062 201.254 87.5062 200.096 88.6615C198.938 89.8169 198.938 91.6994 200.096 92.8547L221.114 113.821C222.272 114.976 222.272 116.859 221.114 118.014L191.684 147.367C190.525 148.522 188.638 148.522 187.48 147.367L162.471 122.412C161.912 121.855 161.601 121.105 161.601 120.313V89.5178C161.601 87.8815 160.272 86.5503 158.626 86.5503C156.986 86.5503 155.651 87.8757 155.651 89.5178V122.77C155.651 123.556 155.963 124.313 156.521 124.87L187.48 155.753C188.638 156.908 190.525 156.908 191.684 155.753L229.521 118.008C230.679 116.853 230.679 114.97 229.521 113.815L204.3 88.6557V88.6615Z" fill="url(#paint2_linear_39_902)"/>
<path d="M110.107 97.048L93.2929 113.821C92.1348 114.976 92.1348 116.859 93.2929 118.014L114.31 138.98C115.468 140.135 117.356 140.135 118.514 138.98L137.579 119.961C138.138 119.404 138.449 118.653 138.449 117.862V86.5561H132.506V115.404C132.506 116.19 132.194 116.947 131.636 117.504L118.514 130.594C117.356 131.749 115.468 131.749 114.31 130.594L101.7 118.014C100.542 116.859 100.542 114.976 101.7 113.821L110.107 105.434C111.265 104.279 113.152 104.279 114.31 105.434L118.514 109.628C119.672 110.783 119.672 112.665 118.514 113.821C117.356 114.976 115.468 114.976 114.31 113.821C113.152 112.665 111.265 112.665 110.107 113.821C108.949 114.976 108.949 116.859 110.107 118.014L114.31 122.207C115.468 123.363 117.356 123.363 118.514 122.207L126.921 113.821C128.079 112.665 128.079 110.783 126.921 109.628L114.31 97.048C113.152 95.8926 111.265 95.8926 110.107 97.048Z" fill="url(#paint3_linear_39_902)"/>
<path d="M144.399 120.325C144.399 121.111 144.088 121.867 143.529 122.424L118.514 147.372C117.356 148.528 115.469 148.528 114.311 147.372L84.8805 118.014C83.7224 116.859 83.7224 114.976 84.8805 113.821L105.898 92.8547C107.056 91.6994 107.056 89.8169 105.898 88.6615C104.74 87.5062 102.852 87.5062 101.694 88.6615L76.4736 113.821C75.3154 114.976 75.3154 116.859 76.4736 118.014L114.311 155.759C115.469 156.914 117.356 156.914 118.514 155.759L149.473 124.876C150.031 124.319 150.343 123.568 150.343 122.776V86.562H144.399V120.319V120.325Z" fill="url(#paint4_linear_39_902)"/>
</g>
<defs>
<linearGradient id="paint0_linear_39_902" x1="157.391" y1="-19.582" x2="152.383" y2="92.0524" gradientUnits="userSpaceOnUse">
<stop stop-color="white"/>
<stop offset="0.74" stop-color="white"/>
<stop offset="0.78" stop-color="#FEFBFD"/>
<stop offset="0.81" stop-color="#FEF0F7"/>
<stop offset="0.84" stop-color="#FDDEEE"/>
<stop offset="0.87" stop-color="#FCC4E1"/>
<stop offset="0.9" stop-color="#FAA3D0"/>
<stop offset="0.93" stop-color="#F87ABC"/>
<stop offset="0.96" stop-color="#F549A4"/>
<stop offset="0.99" stop-color="#FF0080"/>
<stop offset="1" stop-color="#FF0080"/>
</linearGradient>
<linearGradient id="paint1_linear_39_902" x1="191.654" y1="78.5744" x2="189.349" y2="129.843" gradientUnits="userSpaceOnUse">
<stop stop-color="white"/>
<stop offset="0.59" stop-color="white"/>
<stop offset="1" stop-color="#FF0080"/>
</linearGradient>
<linearGradient id="paint2_linear_39_902" x1="194.247" y1="75.6069" x2="191.205" y2="143.467" gradientUnits="userSpaceOnUse">
<stop stop-color="white"/>
<stop offset="0.59" stop-color="white"/>
<stop offset="1" stop-color="#FF0080"/>
</linearGradient>
<linearGradient id="paint3_linear_39_902" x1="117.267" y1="76.3634" x2="114.886" y2="129.433" gradientUnits="userSpaceOnUse">
<stop stop-color="white"/>
<stop offset="0.59" stop-color="white"/>
<stop offset="1" stop-color="#FF0080"/>
</linearGradient>
<linearGradient id="paint4_linear_39_902" x1="115.081" y1="72.7801" x2="111.933" y2="142.775" gradientUnits="userSpaceOnUse">
<stop stop-color="white"/>
<stop offset="0.59" stop-color="white"/>
<stop offset="1" stop-color="#FF0080"/>
</linearGradient>
<clipPath id="clip0_39_902">
<rect width="306" height="220" fill="white"/>
</clipPath>
</defs>
</svg>
