<svg width="142" height="24" viewBox="0 0 142 24" fill="none" xmlns="http://www.w3.org/2000/svg">
<path d="M53.6481 17.8248H51.1007L49.4353 10.8009H49.3689L47.6883 17.8248H45.2073L43.1113 9.23605H44.9247L46.4061 16.2428H46.4725L48.0696 9.23605H50.7668L52.3488 16.2428H52.4151L53.9136 9.23605H55.7118L53.6481 17.8248Z" fill="#0C188D"/>
<path d="M61.0384 8.96881C62.5692 8.96881 63.6845 9.70098 64.1018 10.5659H64.1511C64.134 10.3838 64.1189 10.1657 64.1189 9.71615V9.23436H65.7672V17.8231H64.1189V17.2066C64.1189 16.8235 64.1359 16.575 64.1511 16.3417H64.1018C63.6522 17.3565 62.4705 18.0886 60.9721 18.0886C58.3753 18.0886 56.6436 16.1748 56.6436 13.5287C56.6436 10.8827 58.474 8.96881 61.0384 8.96881ZM64.0506 13.5136C64.0506 11.7818 62.8859 10.5507 61.2547 10.5507C59.6234 10.5507 58.4588 11.7818 58.4588 13.5136C58.4588 15.2453 59.6576 16.4764 61.2547 16.4764C62.8518 16.4764 64.0506 15.2283 64.0506 13.5136Z" fill="#0C188D"/>
<path d="M70.2416 17.8248L67.2617 9.23605H69.1927L71.4062 16.2428H71.4726L73.6862 9.23605H75.6001L72.6373 17.8248H70.2397H70.2416Z" fill="#0C188D"/>
<path d="M80.8787 18.0905C78.2156 18.0905 76.3018 16.1425 76.3018 13.5306C76.3018 10.9187 78.2156 8.9707 80.8465 8.9707C83.4774 8.9707 85.0745 10.9016 85.0745 13.5306C85.0745 13.7298 85.0574 14.0124 85.0252 14.1793H78.1834C78.4167 15.5943 79.4315 16.4764 80.8958 16.4764C81.9618 16.4764 82.7262 16.0932 83.3427 15.3117L84.3916 16.3929C83.5438 17.5253 82.345 18.0905 80.8787 18.0905ZM78.1815 12.88H83.2915C83.1587 11.5143 82.1932 10.5488 80.8105 10.5488C79.4277 10.5488 78.4129 11.465 78.1796 12.88H78.1815Z" fill="#0C188D"/>
<path d="M91.6809 18.0903C90.3 18.0903 89.0842 17.508 88.5341 16.4932H88.4848C88.5018 16.7095 88.5189 16.975 88.5189 17.3582V17.8248H86.8535V5.34003H88.6517V9.60025C88.6517 10.0498 88.6346 10.266 88.6024 10.45H88.6517C89.1505 9.568 90.3493 8.96861 91.6316 8.96861C94.2112 8.96861 95.9923 10.8654 95.9923 13.5285C95.9923 16.1916 94.2454 18.0884 91.6809 18.0884V18.0903ZM94.1771 13.5134C94.1771 11.7816 92.9783 10.5505 91.3641 10.5505C89.7499 10.5505 88.5853 11.7816 88.5853 13.5134C88.5853 15.2451 89.7329 16.4762 91.3641 16.4762C92.9954 16.4762 94.1771 15.2281 94.1771 13.5134Z" fill="#0C188D"/>
<path d="M97.6562 6.77228C97.6562 6.15582 98.138 5.6911 98.7545 5.6911C99.371 5.6911 99.8528 6.15772 99.8528 6.77228C99.8528 7.38684 99.3539 7.85345 98.7545 7.85345C98.1551 7.85345 97.6562 7.38684 97.6562 6.77228ZM97.8554 17.8249V9.23623H99.6536V17.8249H97.8554Z" fill="#0C188D"/>
<path d="M109.273 9.23605V17.8248H107.475V10.8009H103.912V17.8248H102.114V9.23605H109.271H109.273Z" fill="#0C188D"/>
<path d="M115.514 8.96861C116.779 8.96861 117.995 9.50162 118.477 10.3836H118.543C118.509 10.1996 118.494 10.0005 118.494 9.53386V5.34003H120.275V17.8248H118.627V17.2747C118.627 16.8916 118.644 16.626 118.661 16.4098H118.612C118.046 17.4909 116.848 18.0903 115.45 18.0903C112.887 18.0903 111.155 16.1935 111.155 13.5304C111.155 10.8673 112.936 8.97051 115.516 8.97051L115.514 8.96861ZM118.56 13.5134C118.56 11.7816 117.396 10.5505 115.765 10.5505C114.133 10.5505 112.969 11.7816 112.969 13.5134C112.969 15.2451 114.167 16.4762 115.765 16.4762C117.362 16.4762 118.56 15.2281 118.56 13.5134Z" fill="#0C188D"/>
<path d="M126.7 18.0905C124.037 18.0905 122.123 16.1425 122.123 13.5306C122.123 10.9187 124.037 8.9707 126.668 8.9707C129.299 8.9707 130.896 10.9016 130.896 13.5306C130.896 13.7298 130.879 14.0124 130.846 14.1793H124.005C124.238 15.5943 125.253 16.4764 126.717 16.4764C127.783 16.4764 128.548 16.0932 129.164 15.3117L130.213 16.3929C129.365 17.5253 128.166 18.0905 126.7 18.0905ZM124.005 12.88H129.115C128.982 11.5143 128.016 10.5488 126.634 10.5488C125.251 10.5488 124.236 11.465 124.003 12.88H124.005Z" fill="#0C188D"/>
<path d="M136.654 9.23605V10.8332H134.473V17.8248H132.675V9.23605H136.652H136.654Z" fill="#0C188D"/>
<path d="M137.806 15.8068H137.146V15.4142H138.917V15.8068H138.265V17.7302H137.806V15.8068ZM140.057 17.7302L139.761 15.8011H139.598V17.7302H139.156V15.4142H140.154L140.419 17.3262H140.583L140.854 15.4142H141.84V17.7302H141.404V15.8011H141.246L140.956 17.7302H140.055H140.057Z" fill="#0C188D"/>
<path d="M21.4885 5.45126H20.959C20.8898 5.45126 20.8239 5.47878 20.7747 5.52714L20.447 5.85483C20.3453 5.95655 20.1802 5.95655 20.0785 5.85483L19.7508 5.52714C19.7016 5.47795 19.6358 5.45126 19.5665 5.45126H19.0371C18.8053 5.45126 18.6894 5.73142 18.8528 5.89568L20.0777 7.12055C20.1794 7.22227 20.3445 7.22227 20.4462 7.12055L21.6711 5.89568C21.8353 5.73142 21.7186 5.45126 21.4868 5.45126H21.4885Z" fill="#0C188D"/>
<path d="M14.7711 7.12055L15.996 5.89568C16.1603 5.73142 16.0435 5.45126 15.8117 5.45126H15.2823C15.213 5.45126 15.1472 5.47878 15.098 5.52714L14.7703 5.85483C14.6686 5.95655 14.5035 5.95655 14.4017 5.85483L14.0741 5.52714C14.0249 5.47795 13.959 5.45126 13.8898 5.45126H13.3603C13.1285 5.45126 13.0126 5.73142 13.1761 5.89568L14.4009 7.12055C14.5026 7.22227 14.6677 7.22227 14.7695 7.12055H14.7711Z" fill="#0C188D"/>
<path d="M18.491 7.79758H16.359C16.2066 7.79758 16.083 7.92114 16.083 8.07357V8.41626C16.083 8.56869 16.2066 8.69225 16.359 8.69225H18.491C18.6435 8.69225 18.767 8.56869 18.767 8.41626V8.07357C18.767 7.92114 18.6435 7.79758 18.491 7.79758Z" fill="#0C188D"/>
<path d="M34.7143 11.4173L30.918 7.621C30.7429 7.4459 30.4603 7.4459 30.2852 7.621L27.1217 10.7845C26.9466 10.9596 26.9466 11.2422 27.1217 11.4173L29.6523 13.9479C29.8274 14.123 30.1101 14.123 30.2852 13.9479L32.1829 12.0502C32.358 11.8751 32.358 11.5924 32.1829 11.4173L30.9172 10.1516C30.7421 9.97651 30.4594 9.97651 30.2843 10.1516L29.6515 10.7845C29.4764 10.9596 29.4764 11.2422 29.6515 11.4173C29.8266 11.5924 30.1092 11.5924 30.2843 11.4173C30.4594 11.2422 30.7421 11.2422 30.9172 11.4173C31.0923 11.5924 31.0923 11.8751 30.9172 12.0502L30.2843 12.6831C30.1092 12.8582 29.8266 12.8582 29.6515 12.6831L28.3857 11.4173C28.2106 11.2422 28.2106 10.9596 28.3857 10.7845L30.2835 8.88672C30.4586 8.71162 30.7412 8.71162 30.9163 8.88672L33.4469 11.4173C33.6221 11.5924 33.6221 11.8751 33.4469 12.0502L30.2776 15.2195C30.1051 15.3921 29.8257 15.3946 29.6506 15.2245L24.1341 9.89563V5.7466C24.1341 4.36332 23.5847 3.03673 22.6066 2.05867L22.0755 1.52754C21.0974 0.549479 19.7708 0 18.3875 0H16.4581C15.0748 0 13.7482 0.549479 12.7702 1.52754L12.234 2.06367C11.2593 3.0384 10.7098 4.35915 10.7065 5.73827L10.6957 9.91064L5.19504 15.2245C5.01994 15.3938 4.74061 15.3921 4.56802 15.2195L1.39871 12.0502C1.22361 11.8751 1.22361 11.5924 1.39871 11.4173L3.92932 8.88672C4.10442 8.71162 4.38708 8.71162 4.56218 8.88672L6.45993 10.7845C6.63503 10.9596 6.63503 11.2422 6.45993 11.4173L5.19421 12.6831C5.01911 12.8582 4.73645 12.8582 4.56135 12.6831L3.92849 12.0502C3.75339 11.8751 3.75339 11.5924 3.92849 11.4173C4.10359 11.2422 4.38625 11.2422 4.56135 11.4173C4.73645 11.5924 5.01911 11.5924 5.19421 11.4173C5.36931 11.2422 5.36931 10.9596 5.19421 10.7845L4.56135 10.1516C4.38625 9.97651 4.10359 9.97651 3.92849 10.1516L2.66277 11.4173C2.48767 11.5924 2.48767 11.8751 2.66277 12.0502L4.56051 13.9479C4.73561 14.123 5.01827 14.123 5.19337 13.9479L7.72398 11.4173C7.89908 11.2422 7.89908 10.9596 7.72398 10.7845L4.56051 7.621C4.38541 7.4459 4.10275 7.4459 3.92765 7.621L0.131325 11.4173C-0.0437749 11.5924 -0.0437749 11.8751 0.131325 12.0502L4.56385 16.4827C4.73728 16.6561 5.01827 16.6578 5.19337 16.486L10.6898 11.1013L10.709 11.6391H11.6037V6.11681C11.6037 4.73353 12.1532 3.40694 13.1312 2.42888C14.1093 1.45083 15.4359 0.901346 16.8192 0.901346H18.0207C19.404 0.901346 20.7305 1.45083 21.7086 2.42888C22.6867 3.40694 23.2361 4.73353 23.2361 6.11681V11.6391H24.1308L24.15 11.1013L29.6465 16.486C29.8216 16.6578 30.1025 16.6561 30.276 16.4827L34.7085 12.0502C34.8836 11.8751 34.8836 11.5924 34.7085 11.4173H34.7143Z" fill="url(#paint0_linear_335_570)"/>
<path d="M20.062 13.0606C19.8152 13.0606 19.6143 13.2607 19.6143 13.5083V17.7841C19.6143 17.9025 19.6618 18.0167 19.7452 18.1001L22.6151 20.9701C22.7902 21.1452 23.0729 21.1452 23.248 20.9701L26.4115 17.8066C26.5866 17.6315 26.5866 17.3489 26.4115 17.1738L23.8809 14.6431C23.7058 14.468 23.4231 14.468 23.248 14.6431L21.3502 16.5409C21.1751 16.716 21.1751 16.9987 21.3502 17.1738L22.616 18.4395C22.7911 18.6146 23.0737 18.6146 23.2488 18.4395L23.8817 17.8066C24.0568 17.6315 24.0568 17.3489 23.8817 17.1738C23.7066 16.9987 23.4239 16.9987 23.2488 17.1738C23.0737 17.3489 22.7911 17.3489 22.616 17.1738C22.4409 16.9987 22.4409 16.716 22.616 16.5409L23.2488 15.908C23.4239 15.7329 23.7066 15.7329 23.8817 15.908L25.1474 17.1738C25.3225 17.3489 25.3225 17.6315 25.1474 17.8066L23.2497 19.7044C23.0746 19.8795 22.7919 19.8795 22.6168 19.7044L20.6415 17.7291C20.5573 17.6449 20.5106 17.5315 20.5106 17.4131V13.5083C20.5106 13.2615 20.3105 13.0606 20.0628 13.0606H20.062Z" fill="url(#paint1_linear_335_570)"/>
<path d="M25.1467 13.3766C24.9716 13.2015 24.689 13.2015 24.5139 13.3766C24.3388 13.5517 24.3388 13.8344 24.5139 14.0095L27.6773 17.1729C27.8524 17.348 27.8524 17.6307 27.6773 17.8058L23.2481 22.235C23.073 22.4101 22.7904 22.4101 22.6153 22.235L18.8506 18.4703C18.7664 18.3861 18.7197 18.2727 18.7197 18.1543V13.5083C18.7197 13.2615 18.5196 13.0606 18.272 13.0606C18.0252 13.0606 17.8242 13.2607 17.8242 13.5083V18.5254C17.8242 18.6438 17.8709 18.758 17.9551 18.8414L22.6144 23.5007C22.7895 23.6758 23.0722 23.6758 23.2473 23.5007L28.9414 17.8066C29.1165 17.6315 29.1165 17.3489 28.9414 17.1738L25.1451 13.3774L25.1467 13.3766Z" fill="url(#paint2_linear_335_570)"/>
<path d="M10.9705 14.6423L8.43992 17.1729C8.26482 17.348 8.26482 17.6306 8.43992 17.8057L11.6034 20.9692C11.7785 21.1443 12.0611 21.1443 12.2362 20.9692L15.1062 18.0992C15.1904 18.015 15.2371 17.9016 15.2371 17.7832V13.0605H14.3424V17.413C14.3424 17.5314 14.2958 17.6457 14.2115 17.729L12.2362 19.7043C12.0611 19.8794 11.7785 19.8794 11.6034 19.7043L9.70564 17.8066C9.53054 17.6315 9.53054 17.3488 9.70564 17.1737L10.9714 15.908C11.1465 15.7329 11.4291 15.7329 11.6042 15.908L12.2371 16.5409C12.4122 16.716 12.4122 16.9986 12.2371 17.1737C12.062 17.3488 11.7793 17.3488 11.6042 17.1737C11.4291 16.9986 11.1465 16.9986 10.9714 17.1737C10.7963 17.3488 10.7963 17.6315 10.9714 17.8066L11.6042 18.4394C11.7793 18.6145 12.062 18.6145 12.2371 18.4394L13.5028 17.1737C13.6779 16.9986 13.6779 16.716 13.5028 16.5409L11.6042 14.6431C11.4291 14.468 11.1465 14.468 10.9714 14.6431L10.9705 14.6423Z" fill="url(#paint3_linear_335_570)"/>
<path d="M16.131 18.1535C16.131 18.2719 16.0843 18.3861 16.0001 18.4695L12.2355 22.2341C12.0604 22.4092 11.7777 22.4092 11.6026 22.2341L7.17341 17.805C6.99831 17.6299 6.99831 17.3472 7.17341 17.1721L10.3369 14.0086C10.512 13.8335 10.512 13.5509 10.3369 13.3758C10.1618 13.2007 9.87912 13.2007 9.70402 13.3758L5.90769 17.1721C5.73259 17.3472 5.73259 17.6299 5.90769 17.805L11.6018 23.499C11.7769 23.6741 12.0595 23.6741 12.2346 23.499L16.8939 18.8397C16.9782 18.7555 17.0248 18.6421 17.0248 18.5237V13.0598H16.1302V18.1535H16.131Z" fill="url(#paint4_linear_335_570)"/>
<defs>
<linearGradient id="paint0_linear_335_570" x1="18.0865" y1="-2.95502" x2="17.3286" y2="13.8879" gradientUnits="userSpaceOnUse">
<stop stop-color="#0C188D"/>
<stop offset="0.74" stop-color="#15178D"/>
<stop offset="0.78" stop-color="#18168D"/>
<stop offset="0.81" stop-color="#23158D"/>
<stop offset="0.84" stop-color="#35138E"/>
<stop offset="0.88" stop-color="#4F118F"/>
<stop offset="0.91" stop-color="#700D91"/>
<stop offset="0.94" stop-color="#990993"/>
<stop offset="0.97" stop-color="#C90595"/>
<stop offset="1" stop-color="#FF0098"/>
</linearGradient>
<linearGradient id="paint1_linear_335_570" x1="23.243" y1="11.8549" x2="22.8945" y2="19.5893" gradientUnits="userSpaceOnUse">
<stop stop-color="#0C188D"/>
<stop offset="0.59" stop-color="#15178D"/>
<stop offset="1" stop-color="#FF0098"/>
</linearGradient>
<linearGradient id="paint2_linear_335_570" x1="23.6342" y1="11.4063" x2="23.1731" y2="21.6446" gradientUnits="userSpaceOnUse">
<stop stop-color="#0C188D"/>
<stop offset="1" stop-color="#FF0098"/>
</linearGradient>
<linearGradient id="paint3_linear_335_570" x1="12.0478" y1="11.5213" x2="11.6876" y2="19.5276" gradientUnits="userSpaceOnUse">
<stop stop-color="#0C188D"/>
<stop offset="0.59" stop-color="#15178D"/>
<stop offset="1" stop-color="#FF0098"/>
</linearGradient>
<linearGradient id="paint4_linear_335_570" x1="11.7177" y1="10.9802" x2="11.2424" y2="21.5404" gradientUnits="userSpaceOnUse">
<stop stop-color="#0C188D"/>
<stop offset="0.59" stop-color="#15178D"/>
<stop offset="1" stop-color="#FF0098"/>
</linearGradient>
</defs>
</svg>
