<svg width="306" height="226" viewBox="0 0 306 226" fill="none" xmlns="http://www.w3.org/2000/svg">
<path d="M32.6577 224.518H24.7622L19.6005 202.748H19.3947L14.186 224.518H6.49626L0 197.898H5.62029L10.2118 219.615H10.4175L15.3676 197.898H23.7275L28.6306 219.615H28.8363L33.4807 197.898H39.054L32.6577 224.518Z" fill="#0C188D"/>
<path d="M55.562 197.069C60.3063 197.069 63.7632 199.338 65.0565 202.019H65.2094C65.1565 201.455 65.1094 200.779 65.1094 199.386V197.892H70.2183V224.512H65.1094V222.602C65.1094 221.414 65.1624 220.644 65.2094 219.921H65.0565C63.6632 223.066 60.0006 225.335 55.3562 225.335C47.3079 225.335 41.9404 219.403 41.9404 211.202C41.9404 203.001 47.6136 197.069 55.562 197.069ZM64.8978 211.155C64.8978 205.788 61.2881 201.972 56.2322 201.972C51.1763 201.972 47.5666 205.788 47.5666 211.155C47.5666 216.523 51.2821 220.338 56.2322 220.338C61.1823 220.338 64.8978 216.47 64.8978 211.155Z" fill="#0C188D"/>
<path d="M84.0874 224.518L74.8516 197.898H80.8364L87.6971 219.615H87.9029L94.7636 197.898H100.696L91.5126 224.518H84.0815H84.0874Z" fill="#0C188D"/>
<path d="M117.056 225.341C108.802 225.341 102.87 219.304 102.87 211.208C102.87 203.113 108.802 197.075 116.956 197.075C125.11 197.075 130.06 203.06 130.06 211.208C130.06 211.826 130.007 212.702 129.907 213.219H108.702C109.425 217.605 112.57 220.338 117.109 220.338C120.413 220.338 122.782 219.151 124.693 216.729L127.944 220.08C125.316 223.589 121.601 225.341 117.056 225.341ZM108.696 209.192H124.534C124.123 204.959 121.13 201.967 116.844 201.967C112.559 201.967 109.413 204.806 108.69 209.192H108.696Z" fill="#0C188D"/>
<path d="M150.536 225.341C146.256 225.341 142.488 223.536 140.783 220.391H140.63C140.683 221.061 140.736 221.884 140.736 223.071V224.518H135.574V185.822H141.147V199.026C141.147 200.42 141.095 201.09 140.995 201.66H141.147C142.694 198.926 146.409 197.069 150.383 197.069C158.379 197.069 163.899 202.948 163.899 211.202C163.899 219.456 158.485 225.335 150.536 225.335V225.341ZM158.273 211.155C158.273 205.787 154.557 201.972 149.554 201.972C144.551 201.972 140.942 205.787 140.942 211.155C140.942 216.522 144.498 220.338 149.554 220.338C154.61 220.338 158.273 216.469 158.273 211.155Z" fill="#0C188D"/>
<path d="M169.056 190.261C169.056 188.351 170.549 186.91 172.46 186.91C174.37 186.91 175.864 188.356 175.864 190.261C175.864 192.166 174.317 193.612 172.46 193.612C170.602 193.612 169.056 192.166 169.056 190.261ZM169.673 224.518V197.898H175.246V224.518H169.673Z" fill="#0C188D"/>
<path d="M205.064 197.898V224.518H199.491V202.748H188.45V224.518H182.877V197.898H205.058H205.064Z" fill="#0C188D"/>
<path d="M224.406 197.069C228.328 197.069 232.096 198.721 233.589 201.454H233.795C233.689 200.884 233.642 200.267 233.642 198.821V185.822H239.163V224.518H234.054V222.813C234.054 221.625 234.107 220.802 234.16 220.132H234.007C232.255 223.483 228.539 225.341 224.206 225.341C216.264 225.341 210.896 219.462 210.896 211.208C210.896 202.954 216.417 197.075 224.412 197.075L224.406 197.069ZM233.848 211.155C233.848 205.787 230.238 201.972 225.182 201.972C220.126 201.972 216.517 205.787 216.517 211.155C216.517 216.522 220.232 220.338 225.182 220.338C230.132 220.338 233.848 216.469 233.848 211.155Z" fill="#0C188D"/>
<path d="M259.075 225.341C250.821 225.341 244.889 219.304 244.889 211.208C244.889 203.113 250.821 197.075 258.975 197.075C267.129 197.075 272.079 203.06 272.079 211.208C272.079 211.826 272.026 212.702 271.926 213.219H250.721C251.444 217.605 254.589 220.338 259.128 220.338C262.432 220.338 264.801 219.151 266.711 216.729L269.962 220.08C267.335 223.589 263.619 225.341 259.075 225.341ZM250.721 209.192H266.559C266.147 204.959 263.155 201.967 258.869 201.967C254.583 201.967 251.438 204.806 250.715 209.192H250.721Z" fill="#0C188D"/>
<path d="M289.928 197.898V202.848H283.167V224.518H277.594V197.898H289.922H289.928Z" fill="#0C188D"/>
<path d="M293.496 218.263H291.45V217.046H296.941V218.263H294.919V224.224H293.496V218.263ZM300.474 224.224L299.557 218.245H299.052V224.224H297.682V217.046H300.774L301.597 222.972H302.103L302.944 217.046H306.001V224.224H304.648V218.245H304.161L303.261 224.224H300.469H300.474Z" fill="#0C188D"/>
<path d="M181.648 38.4371H177.915C177.427 38.4371 176.962 38.6311 176.615 38.9721L174.305 41.2825C173.588 41.9997 172.424 41.9997 171.706 41.2825L169.396 38.9721C169.049 38.6252 168.585 38.4371 168.097 38.4371H164.364C162.729 38.4371 161.912 40.4124 163.064 41.5706L171.701 50.2068C172.418 50.924 173.582 50.924 174.299 50.2068L182.935 41.5706C184.093 40.4124 183.27 38.4371 181.636 38.4371H181.648Z" fill="#0C188D"/>
<path d="M134.287 50.2068L142.924 41.5706C144.082 40.4124 143.259 38.4371 141.624 38.4371H137.891C137.403 38.4371 136.939 38.6311 136.592 38.9721L134.282 41.2825C133.564 41.9997 132.4 41.9997 131.683 41.2825L129.373 38.9721C129.026 38.6252 128.561 38.4371 128.073 38.4371H124.34C122.706 38.4371 121.889 40.4124 123.041 41.5706L131.677 50.2068C132.394 50.924 133.558 50.924 134.276 50.2068H134.287Z" fill="#0C188D"/>
<path d="M160.519 54.9796H145.487C144.412 54.9796 143.541 55.8509 143.541 56.9256V59.3418C143.541 60.4165 144.412 61.2878 145.487 61.2878H160.519C161.594 61.2878 162.465 60.4165 162.465 59.3418V56.9256C162.465 55.8509 161.594 54.9796 160.519 54.9796Z" fill="#0C188D"/>
<path d="M274.901 80.5009L248.134 53.7339C246.899 52.4993 244.906 52.4993 243.672 53.7339L221.367 76.0387C220.132 77.2733 220.132 79.2663 221.367 80.5009L239.21 98.3435C240.444 99.5781 242.437 99.5781 243.672 98.3435L257.052 84.963C258.287 83.7284 258.287 81.7354 257.052 80.5009L248.128 71.5766C246.893 70.342 244.9 70.342 243.666 71.5766L239.204 76.0387C237.969 77.2733 237.969 79.2663 239.204 80.5009C240.438 81.7354 242.431 81.7354 243.666 80.5009C244.9 79.2663 246.893 79.2663 248.128 80.5009C249.362 81.7354 249.362 83.7284 248.128 84.963L243.666 89.4251C242.431 90.6597 240.438 90.6597 239.204 89.4251L230.279 80.5009C229.045 79.2663 229.045 77.2733 230.279 76.0387L243.66 62.6582C244.894 61.4236 246.887 61.4236 248.122 62.6582L265.965 80.5009C267.199 81.7354 267.199 83.7284 265.965 84.963L243.619 107.309C242.402 108.526 240.432 108.544 239.198 107.344L200.302 69.7717V40.518C200.302 30.7648 196.428 21.4113 189.532 14.5153L185.787 10.7704C178.891 3.87438 169.538 0.000137329 159.785 0.000137329H146.181C136.427 0.000137329 127.074 3.87438 120.178 10.7704L116.398 14.5506C109.525 21.4231 105.651 30.7354 105.628 40.4592L105.551 69.8776L66.7676 107.344C65.533 108.538 63.5636 108.526 62.3466 107.309L40.0006 84.963C38.7661 83.7284 38.7661 81.7354 40.0006 80.5009L57.8433 62.6582C59.0779 61.4236 61.0709 61.4236 62.3055 62.6582L75.686 76.0387C76.9206 77.2733 76.9206 79.2663 75.686 80.5009L66.7617 89.4251C65.5271 90.6597 63.5342 90.6597 62.2996 89.4251L57.8374 84.963C56.6028 83.7284 56.6028 81.7354 57.8374 80.5009C59.072 79.2663 61.065 79.2663 62.2996 80.5009C63.5342 81.7354 65.5271 81.7354 66.7617 80.5009C67.9963 79.2663 67.9963 77.2733 66.7617 76.0387L62.2996 71.5766C61.065 70.342 59.072 70.342 57.8374 71.5766L48.9132 80.5009C47.6786 81.7354 47.6786 83.7284 48.9132 84.963L62.2937 98.3435C63.5283 99.5781 65.5212 99.5781 66.7558 98.3435L84.5985 80.5009C85.8331 79.2663 85.8331 77.2733 84.5985 76.0387L62.2937 53.7339C61.0591 52.4993 59.0661 52.4993 57.8316 53.7339L31.0646 80.5009C29.83 81.7354 29.83 83.7284 31.0646 84.963L62.3172 116.216C63.54 117.438 65.5212 117.45 66.7558 116.239L105.51 78.2727L105.645 82.0647H111.953V43.1283C111.953 33.375 115.828 24.0216 122.724 17.1256C129.62 10.2295 138.973 6.3553 148.726 6.3553H157.198C166.951 6.3553 176.305 10.2295 183.201 17.1256C190.097 24.0216 193.971 33.375 193.971 43.1283V82.0647H200.279L200.414 78.2727L239.168 116.239C240.403 117.45 242.384 117.438 243.607 116.216L274.86 84.963C276.094 83.7284 276.094 81.7354 274.86 80.5009H274.901Z" fill="url(#paint0_linear_39_1243)"/>
<path d="M171.59 92.0882C169.849 92.0882 168.433 93.4992 168.433 95.2452V125.393C168.433 126.227 168.768 127.033 169.356 127.621L189.591 147.856C190.826 149.091 192.819 149.091 194.053 147.856L216.358 125.551C217.593 124.317 217.593 122.324 216.358 121.089L198.515 103.246C197.281 102.012 195.288 102.012 194.053 103.246L180.673 116.627C179.438 117.862 179.438 119.855 180.673 121.089L189.597 130.013C190.831 131.248 192.824 131.248 194.059 130.013L198.521 125.551C199.756 124.317 199.756 122.324 198.521 121.089C197.287 119.855 195.294 119.855 194.059 121.089C192.824 122.324 190.831 122.324 189.597 121.089C188.362 119.855 188.362 117.862 189.597 116.627L194.059 112.165C195.294 110.93 197.287 110.93 198.521 112.165L207.445 121.089C208.68 122.324 208.68 124.317 207.445 125.551L194.065 138.932C192.83 140.166 190.837 140.166 189.603 138.932L175.676 125.005C175.082 124.411 174.753 123.611 174.753 122.776V95.2452C174.753 93.505 173.342 92.0882 171.596 92.0882H171.59Z" fill="url(#paint1_linear_39_1243)"/>
<path d="M207.44 94.3163C206.205 93.0818 204.212 93.0818 202.978 94.3163C201.743 95.5509 201.743 97.5439 202.978 98.7785L225.282 121.083C226.517 122.318 226.517 124.311 225.282 125.545L194.053 156.775C192.819 158.009 190.826 158.009 189.591 156.775L163.048 130.231C162.454 129.637 162.125 128.838 162.125 128.003V95.2452C162.125 93.505 160.714 92.0882 158.968 92.0882C157.227 92.0882 155.811 93.4992 155.811 95.2452V130.619C155.811 131.454 156.14 132.259 156.734 132.847L189.585 165.699C190.82 166.933 192.813 166.933 194.047 165.699L234.195 125.551C235.429 124.317 235.429 122.324 234.195 121.089L207.428 94.3222L207.44 94.3163Z" fill="url(#paint2_linear_39_1243)"/>
<path d="M107.484 103.241L89.6418 121.083C88.4072 122.318 88.4072 124.311 89.6418 125.545L111.947 147.85C113.181 149.085 115.174 149.085 116.409 147.85L136.644 127.615C137.238 127.021 137.567 126.222 137.567 125.387V92.0882H131.259V122.776C131.259 123.611 130.93 124.417 130.336 125.005L116.409 138.932C115.174 140.166 113.181 140.166 111.947 138.932L98.566 125.551C97.3315 124.317 97.3315 122.324 98.566 121.089L107.49 112.165C108.725 110.93 110.718 110.93 111.952 112.165L116.415 116.627C117.649 117.862 117.649 119.855 116.415 121.089C115.18 122.324 113.187 122.324 111.952 121.089C110.718 119.855 108.725 119.855 107.49 121.089C106.256 122.324 106.256 124.317 107.49 125.551L111.952 130.013C113.187 131.248 115.18 131.248 116.415 130.013L125.339 121.089C126.573 119.855 126.573 117.862 125.339 116.627L111.952 103.246C110.718 102.012 108.725 102.012 107.49 103.246L107.484 103.241Z" fill="url(#paint3_linear_39_1243)"/>
<path d="M143.875 127.997C143.875 128.832 143.546 129.637 142.952 130.225L116.409 156.768C115.174 158.003 113.181 158.003 111.946 156.768L80.7174 125.539C79.4828 124.305 79.4828 122.312 80.7174 121.077L103.022 98.7724C104.257 97.5379 104.257 95.5449 103.022 94.3103C101.788 93.0757 99.7946 93.0757 98.5601 94.3103L71.7931 121.077C70.5585 122.312 70.5585 124.305 71.7931 125.539L111.941 165.687C113.175 166.921 115.168 166.921 116.403 165.687L149.254 132.835C149.848 132.241 150.177 131.442 150.177 130.607V92.0822H143.869V127.997H143.875Z" fill="url(#paint4_linear_39_1243)"/>
<defs>
<linearGradient id="paint0_linear_39_1243" x1="157.662" y1="-20.8349" x2="152.318" y2="97.9202" gradientUnits="userSpaceOnUse">
<stop stop-color="#0C188D"/>
<stop offset="0.74" stop-color="#15178D"/>
<stop offset="0.78" stop-color="#18168D"/>
<stop offset="0.81" stop-color="#23158D"/>
<stop offset="0.84" stop-color="#35138E"/>
<stop offset="0.88" stop-color="#4F118F"/>
<stop offset="0.91" stop-color="#700D91"/>
<stop offset="0.94" stop-color="#990993"/>
<stop offset="0.97" stop-color="#C90595"/>
<stop offset="1" stop-color="#FF0098"/>
</linearGradient>
<linearGradient id="paint1_linear_39_1243" x1="194.018" y1="83.5872" x2="191.56" y2="138.121" gradientUnits="userSpaceOnUse">
<stop stop-color="#0C188D"/>
<stop offset="0.59" stop-color="#15178D"/>
<stop offset="1" stop-color="#FF0098"/>
</linearGradient>
<linearGradient id="paint2_linear_39_1243" x1="196.775" y1="80.4243" x2="193.524" y2="152.612" gradientUnits="userSpaceOnUse">
<stop stop-color="#0C188D"/>
<stop offset="1" stop-color="#FF0098"/>
</linearGradient>
<linearGradient id="paint3_linear_39_1243" x1="115.08" y1="81.2356" x2="112.54" y2="137.685" gradientUnits="userSpaceOnUse">
<stop stop-color="#0C188D"/>
<stop offset="0.59" stop-color="#15178D"/>
<stop offset="1" stop-color="#FF0098"/>
</linearGradient>
<linearGradient id="paint4_linear_39_1243" x1="112.758" y1="77.42" x2="109.407" y2="151.877" gradientUnits="userSpaceOnUse">
<stop stop-color="#0C188D"/>
<stop offset="0.59" stop-color="#15178D"/>
<stop offset="1" stop-color="#FF0098"/>
</linearGradient>
</defs>
</svg>
