<svg width="39" height="28" viewBox="0 0 39 28" fill="none" xmlns="http://www.w3.org/2000/svg">
<path d="M23.6684 7.38293H23.0849C23.0083 7.38293 22.9354 7.41438 22.8825 7.46803L22.5214 7.83431C22.4102 7.94715 22.2278 7.94715 22.1166 7.83431L21.7555 7.46803C21.7027 7.41438 21.6297 7.38293 21.5531 7.38293H20.9696C20.7143 7.38293 20.5866 7.69557 20.7672 7.87871L22.1166 9.24762C22.2278 9.36047 22.4102 9.36047 22.5214 9.24762L23.8709 7.87871C24.0514 7.69557 23.9237 7.38293 23.6684 7.38293Z" fill="#0C188D"/>
<path d="M16.2705 9.24943L17.6199 7.88051C17.8004 7.69737 17.6728 7.38474 17.4175 7.38474H16.8339C16.7573 7.38474 16.6844 7.41618 16.6315 7.46983L16.2705 7.83611C16.1592 7.94895 15.9769 7.94895 15.8656 7.83611L15.5046 7.46983C15.4517 7.41618 15.3769 7.38474 15.3022 7.38474H14.7186C14.4633 7.38474 14.3357 7.69737 14.5162 7.88051L15.8656 9.24943C15.9769 9.36227 16.1592 9.36227 16.2705 9.24943Z" fill="#0C188D"/>
<path d="M20.3681 10.0061H18.0194C17.8512 10.0061 17.7148 10.1444 17.7148 10.315V10.6979C17.7148 10.8685 17.8512 11.0069 18.0194 11.0069H20.3681C20.5363 11.0069 20.6726 10.8685 20.6726 10.6979V10.315C20.6726 10.1444 20.5363 10.0061 20.3681 10.0061Z" fill="#0C188D"/>
<path d="M38.2407 13.5061L34.0575 9.2624C33.8642 9.06631 33.5523 9.06631 33.3609 9.2624L29.8761 12.7975C29.6828 12.9936 29.6828 13.31 29.8761 13.5042L32.6643 16.3327C32.8576 16.5288 33.1694 16.5288 33.3609 16.3327L35.4525 14.2109C35.6458 14.0148 35.6458 13.6984 35.4525 13.5042L34.0575 12.089C33.8642 11.8929 33.5523 11.8929 33.3609 12.089L32.6807 12.779C32.4965 12.9659 32.4673 13.2693 32.6351 13.4709C32.8174 13.6892 33.1347 13.7077 33.339 13.5245C33.5323 13.3507 33.8186 13.3026 34.0192 13.4672C34.2489 13.6577 34.2635 14.0018 34.0575 14.2109L33.3609 14.9175C33.1676 15.1136 32.8557 15.1136 32.6643 14.9175L31.2711 13.5024C31.0778 13.3063 31.0778 12.9899 31.2711 12.7957L33.3627 10.6739C33.556 10.4778 33.8678 10.4778 34.0593 10.6739L36.8475 13.5024C37.0408 13.6984 37.0408 14.0148 36.8475 14.209L33.3554 17.7516C33.1657 17.9439 32.8576 17.9476 32.6643 17.7571L26.5864 11.8005V6.42282C26.5864 4.87631 25.981 3.39455 24.9033 2.30126L24.3179 1.70745C23.2402 0.614164 21.7795 0 20.255 0H18.1288C16.6043 0 15.1436 0.614164 14.0659 1.70745L13.4751 2.30681C12.401 3.3964 11.7956 4.87261 11.792 6.41357L11.781 11.8171L5.72138 17.7552C5.52808 17.9439 5.2199 17.9421 5.03025 17.7497L1.53816 14.2072C1.34487 14.0111 1.34487 13.6947 1.53816 13.5005L4.32636 10.672C4.51966 10.4759 4.83149 10.4759 5.02296 10.672L7.11457 12.7938C7.30786 12.9899 7.30786 13.3063 7.11457 13.5005L5.72138 14.9157C5.52808 15.1118 5.21625 15.1118 5.02478 14.9157L4.3446 14.2257C4.16042 14.0388 4.13124 13.7354 4.29901 13.5338C4.48136 13.3155 4.79866 13.297 5.0029 13.4802C5.19619 13.654 5.48249 13.7021 5.68308 13.5375C5.91285 13.347 5.92744 13.0029 5.72138 12.7938L5.02478 12.0872C4.83149 11.8911 4.51966 11.8911 4.32819 12.0872L2.93317 13.5024C2.73988 13.6984 2.73988 14.0148 2.93317 14.209L5.02478 16.3308C5.21808 16.5269 5.5299 16.5269 5.72138 16.3308L8.50958 13.5024C8.70287 13.3063 8.70287 12.9899 8.50958 12.7957L5.02478 9.26055C4.83149 9.06446 4.51966 9.06446 4.32819 9.26055L0.144972 13.5042C-0.048324 13.7003 -0.048324 14.0166 0.144972 14.2109L5.02843 19.1649C5.2199 19.3591 5.52808 19.361 5.72138 19.1686L11.7774 13.1509L12.6581 12.2315C12.7384 12.1464 12.784 12.0335 12.784 11.917V6.8409C12.784 5.29439 13.3894 3.81262 14.4671 2.71934C15.5448 1.62605 17.0055 1.01189 18.53 1.01189H19.8539C21.3783 1.01189 22.839 1.62605 23.9167 2.71934C24.9944 3.81262 25.5999 5.29439 25.5999 6.8409V11.9614C25.5999 12.0835 25.6473 12.1982 25.733 12.2833L26.6064 13.1509L32.6624 19.1686C32.8557 19.361 33.1639 19.3591 33.3554 19.1649L38.2388 14.2109C38.4321 14.0148 38.4321 13.6984 38.2388 13.5042L38.2407 13.5061Z" fill="url(#paint0_linear_459_502)"/>
<path d="M22.0988 15.158C21.8271 15.158 21.6064 15.3818 21.6064 15.6575V20.6207C21.6064 20.7539 21.6575 20.8797 21.7505 20.974L24.9125 24.1818C25.1058 24.3778 25.4177 24.3778 25.6091 24.1818L29.0939 20.6466C29.2872 20.4505 29.2872 20.1342 29.0939 19.94L26.3057 17.1115C26.1124 16.9154 25.8006 16.9154 25.6091 17.1115L23.5175 19.2333C23.3242 19.4294 23.3242 19.7457 23.5175 19.94L24.9125 21.3551C25.1058 21.5512 25.4177 21.5512 25.6091 21.3551L26.3057 20.6485C26.499 20.4524 26.499 20.136 26.3057 19.9418C26.1124 19.7457 25.8006 19.7457 25.6091 19.9418C25.4158 20.1379 25.104 20.1379 24.9125 19.9418C24.7192 19.7457 24.7192 19.4294 24.9125 19.2351L25.6091 18.5285C25.8024 18.3324 26.1142 18.3324 26.3057 18.5285L27.7007 19.9437C27.894 20.1397 27.894 20.4561 27.7007 20.6503L25.6091 22.7721C25.4158 22.9682 25.104 22.9682 24.9125 22.7721L22.737 20.5652C22.644 20.4709 22.593 20.3451 22.593 20.2119V15.663C22.593 15.3874 22.3723 15.1635 22.1006 15.1635L22.0988 15.158Z" fill="url(#paint1_linear_459_502)"/>
<path d="M27.7004 15.6963C27.5071 15.5002 27.1953 15.5002 27.0038 15.6963C26.8105 15.8924 26.8105 16.2087 27.0038 16.403L30.4886 19.9381C30.6819 20.1342 30.6819 20.4505 30.4886 20.6448L25.6088 25.5951C25.4155 25.7912 25.1037 25.7912 24.9122 25.5951L20.7655 21.3884C20.6725 21.2941 20.6214 21.1683 20.6214 21.0351V15.6575C20.6214 15.3818 20.4008 15.158 20.1291 15.158C19.8574 15.158 19.6367 15.3818 19.6367 15.6575V21.4495C19.6367 21.5827 19.6878 21.7085 19.7808 21.8028L24.9141 27.0102C25.1074 27.2063 25.4192 27.2063 25.6107 27.0102L31.8837 20.6466C32.077 20.4505 32.077 20.1342 31.8837 19.94L27.7004 15.6963Z" fill="url(#paint2_linear_459_502)"/>
<path d="M12.0816 17.1096L9.29341 19.9381C9.10011 20.1342 9.10011 20.4505 9.29341 20.6448L12.7782 24.1799C12.9715 24.376 13.2833 24.376 13.4748 24.1799L16.6368 20.9722C16.7298 20.8778 16.7809 20.752 16.7809 20.6189V15.6556C16.7809 15.38 16.5602 15.1561 16.2885 15.1561C16.0168 15.1561 15.7962 15.38 15.7962 15.6556V20.2045C15.7962 20.3377 15.7451 20.4635 15.6521 20.5578L13.4766 22.7647C13.2833 22.9608 12.9715 22.9608 12.78 22.7647L10.6884 20.6429C10.4951 20.4468 10.4951 20.1305 10.6884 19.9362L12.0834 18.5211C12.2767 18.325 12.5886 18.325 12.78 18.5211L13.4766 19.2277C13.6699 19.4238 13.6699 19.7402 13.4766 19.9344C13.2833 20.1305 12.9715 20.1305 12.78 19.9344C12.5867 19.7383 12.2749 19.7383 12.0834 19.9344C11.8901 20.1305 11.8901 20.4468 12.0834 20.6411L12.78 21.3477C12.9733 21.5438 13.2852 21.5438 13.4766 21.3477L14.8716 19.9325C15.0649 19.7365 15.0649 19.4201 14.8716 19.2259L12.78 17.1041C12.5867 16.908 12.2749 16.908 12.0834 17.1041L12.0816 17.1096Z" fill="url(#paint3_linear_459_502)"/>
<path d="M17.7675 21.0351C17.7675 21.1683 17.7165 21.2941 17.6235 21.3884L13.4767 25.5951C13.2834 25.7912 12.9716 25.7912 12.7801 25.5951L7.90034 20.6448C7.70704 20.4487 7.70704 20.1323 7.90034 19.9381L11.3851 16.403C11.5784 16.2069 11.5784 15.8905 11.3851 15.6963C11.1918 15.5002 10.88 15.5002 10.6885 15.6963L6.50532 19.94C6.31203 20.136 6.31203 20.4524 6.50532 20.6466L12.7783 27.0102C12.9716 27.2063 13.2834 27.2063 13.4749 27.0102L18.6082 21.8028C18.7012 21.7085 18.7523 21.5827 18.7523 21.4495V15.6575C18.7523 15.3818 18.5316 15.158 18.2599 15.158C17.9882 15.158 17.7675 15.3818 17.7675 15.6575V21.0351Z" fill="url(#paint4_linear_459_502)"/>
<defs>
<linearGradient id="paint0_linear_459_502" x1="19.9596" y1="-3.4223" x2="19.0683" y2="16.1243" gradientUnits="userSpaceOnUse">
<stop stop-color="#0C188D"/>
<stop offset="0.74" stop-color="#0C188D"/>
<stop offset="0.78" stop-color="#0F178C"/>
<stop offset="0.81" stop-color="#1A168C"/>
<stop offset="0.85" stop-color="#2C148B"/>
<stop offset="0.88" stop-color="#461189"/>
<stop offset="0.91" stop-color="#670E87"/>
<stop offset="0.94" stop-color="#900A84"/>
<stop offset="0.97" stop-color="#C00582"/>
<stop offset="1" stop-color="#F2007F"/>
</linearGradient>
<linearGradient id="paint1_linear_459_502" x1="25.6091" y1="13.778" x2="25.2057" y2="22.6033" gradientUnits="userSpaceOnUse">
<stop stop-color="#0C188D"/>
<stop offset="0.59" stop-color="#0C188D"/>
<stop offset="1" stop-color="#FF008C"/>
</linearGradient>
<linearGradient id="paint2_linear_459_502" x1="26.0319" y1="13.4209" x2="25.5065" y2="24.9229" gradientUnits="userSpaceOnUse">
<stop stop-color="#0C188D"/>
<stop offset="0.59" stop-color="#0C188D"/>
<stop offset="1" stop-color="#FF0098"/>
</linearGradient>
<linearGradient id="paint3_linear_459_502" x1="13.276" y1="13.432" x2="12.8613" y2="22.5385" gradientUnits="userSpaceOnUse">
<stop stop-color="#0C188D"/>
<stop offset="0.59" stop-color="#0C188D"/>
<stop offset="1" stop-color="#FF0098"/>
</linearGradient>
<linearGradient id="paint4_linear_459_502" x1="12.9133" y1="12.8271" x2="12.3672" y2="24.7878" gradientUnits="userSpaceOnUse">
<stop stop-color="#0C188D"/>
<stop offset="0.59" stop-color="#0C188D"/>
<stop offset="1" stop-color="#FF0098"/>
</linearGradient>
</defs>
</svg>
