<svg version="1.1" xmlns="http://www.w3.org/2000/svg" viewBox="0 0 2048 1504" preserveAspectRatio="none">
    <defs>
        <linearGradient id="Gradient1" gradientUnits="userSpaceOnUse" x1="348.897" y1="499.485" x2="919.745" y2="1071.76">
            <stop class="stop0" offset="0" stop-opacity="1" stop-color="rgb(218,0,124)"/>
            <stop class="stop1" offset="1" stop-opacity="1" stop-color="rgb(125,7,152)"/>
        </linearGradient>
        <linearGradient id="Gradient2" gradientUnits="userSpaceOnUse" x1="536.022" y1="425.444" x2="1241.04" y2="1106.92">
            <stop class="stop0" offset="0" stop-opacity="1" stop-color="rgb(207,2,124)"/>
            <stop class="stop1" offset="1" stop-opacity="1" stop-color="rgb(101,5,151)"/>
        </linearGradient>
        <linearGradient id="Gradient3" gradientUnits="userSpaceOnUse" x1="880.115" y1="125" x2="1155.88" y2="401">
            <stop class="stop0" offset="0" stop-opacity="1" stop-color="rgb(201,3,128)"/>
            <stop class="stop1" offset="1" stop-opacity="1" stop-color="rgb(153,4,136)"/>
        </linearGradient>
        <linearGradient id="Gradient4" gradientUnits="userSpaceOnUse" x1="644.15" y1="401.088" x2="1040.51" y2="714.811">
            <stop class="stop0" offset="0" stop-opacity="1" stop-color="rgb(200,3,129)"/>
            <stop class="stop1" offset="1" stop-opacity="1" stop-color="rgb(141,3,142)"/>
        </linearGradient>
    </defs>
    <path fill="url(#Gradient4)" d="M 700.402 324.241 C 710.974 326.575 777.835 365.629 792.136 373.363 L 918.121 441.806 C 934.643 450.825 968.423 467.977 982.846 478.144 C 984.492 496.834 983.264 533.884 983.256 554.581 L 983.15 707.266 C 983.07 723.613 983.091 739.96 983.211 756.307 C 983.301 763.423 984.381 788.632 982.978 794.333 C 980.802 793.536 967.805 785.899 964.808 784.231 L 919.032 758.862 L 741.631 660.796 C 729.985 654.396 711.971 645.255 701.291 637.148 C 700.157 636.112 699.856 631.462 699.881 629.948 C 700.917 566.376 698.421 502.59 701.366 439.099 C 701.513 430.655 700.052 421.607 700.236 413.229 C 700.873 384.122 698.501 353.157 700.402 324.241 z M 709.215 631.777 C 729.144 644.295 764.501 662.251 786.286 674.158 L 911.864 743.856 C 927.9 752.754 955.4 766.716 969.906 776.165 L 972.215 777.613 L 973.601 776.959 C 974.49 772.488 973.72 762.034 973.73 756.527 L 973.886 704.206 L 973.854 558.737 C 973.85 533.973 973.334 507.615 973.951 483.064 L 785.959 381.257 C 761.289 367.969 734.204 352.087 709.527 339.917 C 708.357 358.608 710.14 379.28 709.488 398.157 C 708.862 416.261 711.895 434.299 710.336 452.287 C 709.709 459.533 709.545 466.663 709.521 473.869 L 709.215 631.777 z"/>
    <path fill="rgb(149,5,140)" d="M 1334.46 323.792 L 1336.41 324.544 C 1337.86 327.444 1337.18 373.005 1337.18 379.825 L 1337.07 556.753 L 1337.16 604.248 C 1337.21 612.951 1337.77 627.048 1336.62 635.309 C 1333.4 640.575 1271.25 673.495 1261.68 678.794 L 1129.35 752.023 C 1104.39 765.812 1079.04 779.2 1054.47 793.594 C 1051.9 784.549 1054.05 723.339 1054 708.256 C 1053.44 654.305 1053.28 600.351 1053.51 546.397 C 1053.53 525.99 1052.97 499.751 1054.5 479.726 C 1054.91 474.372 1112.9 444.759 1119.98 440.933 L 1256.25 367.064 C 1277.98 355.331 1314.79 336.789 1334.46 323.792 z M 1063.13 482.623 L 1063.4 700.732 L 1063.41 756.578 C 1063.39 761.154 1062.63 773.045 1063.26 776.309 L 1064.45 777.03 L 1066.5 776.18 L 1222.59 689.729 C 1256.49 670.994 1292.99 649.83 1327.14 632.128 L 1327.38 478.447 C 1327.32 464.737 1326.52 450.82 1326.59 437.297 L 1327.08 365.898 C 1327.12 361.719 1328.19 342.56 1326.4 340.297 L 1325.62 340.009 C 1307.67 348.872 1287.03 360.796 1269.18 370.509 L 1171.49 423.392 L 1099.56 462.437 C 1090.08 467.607 1071.77 476.948 1063.13 482.623 z"/>
    <path fill="url(#Gradient3)" d="M 1015.25 109.829 C 1025.31 109.678 1047.86 124.046 1057.74 129.59 L 1109.32 158.151 L 1299.57 263.55 C 1290.93 269.209 1275.05 276.978 1265.56 282.09 L 1205.43 314.795 C 1144.28 348.012 1082.54 382.304 1021.1 414.86 C 1012.33 415.374 971.815 391.453 960.704 385.411 L 871.479 337.126 L 792.625 294.243 C 776.183 285.384 753.058 273.686 737.615 263.708 C 744.534 259.053 759.91 251.316 767.779 247.015 L 824.081 215.941 L 1015.25 109.829 z M 755.29 263.374 C 771.736 270.159 809.907 292.188 826.698 301.356 L 964.434 376.099 C 973.449 380.977 1012.54 403.459 1019.53 405.495 L 1198.62 308.107 C 1224.4 294.148 1255.18 276.167 1280.87 263.575 C 1261.4 254.727 1227.61 234.905 1207.8 223.941 L 1076.31 151.386 C 1067.31 146.436 1022.74 120.081 1016.55 119.951 C 996.979 129.663 972.754 144.039 953.23 154.843 L 829.438 223.476 C 806.776 236.092 778.432 253.768 755.29 263.374 z"/>
    <path fill="rgb(56,10,157)" d="M 1635.96 1039.78 C 1647.09 1040.79 1760.08 1108.44 1783.53 1120.07 C 1796.16 1126.33 1912.8 1189.85 1916.32 1193.89 C 1914.37 1198.16 1871.63 1219.98 1863.65 1224.31 L 1767.18 1276.74 L 1685.46 1321.05 C 1670.73 1329.06 1654.91 1338.28 1639.96 1345.55 C 1631.92 1346.17 1588.39 1320.53 1577.9 1314.81 L 1480.16 1261.65 L 1401.68 1219.19 C 1387.97 1211.79 1369.11 1202.24 1356.51 1194.11 L 1528.16 1099.3 C 1562.91 1080.04 1600.98 1057.86 1635.96 1039.78 z M 1374.05 1193.73 C 1394.18 1202.93 1423.53 1220.18 1443.66 1231.15 L 1581.22 1305.77 C 1593.1 1312.11 1627.67 1332.58 1638.29 1336.16 L 1808.7 1243.45 L 1865.92 1212.35 C 1876.17 1206.78 1889.89 1198.85 1900.29 1194.15 C 1875.86 1182.5 1844.69 1164.19 1820.25 1150.67 C 1779.82 1128.83 1739.57 1106.65 1699.52 1084.12 C 1690.09 1078.84 1642.9 1051.16 1636.98 1049.9 L 1453.94 1151.1 L 1408.94 1176.05 C 1400.14 1180.96 1383.23 1190.94 1374.05 1193.73 z"/>
    <path fill="rgb(149,5,140)" d="M 396.808 1039.76 C 400.198 1039.98 403.36 1040.73 406.338 1042.41 C 497.259 1093.65 590.1 1142.49 680.567 1194.47 C 588.141 1243.94 495.086 1296.51 402.47 1344.96 C 397.756 1345.22 394.317 1344.15 390.179 1341.97 C 369.236 1330.95 348.318 1319.45 327.532 1308.15 L 213.604 1246.37 L 154.176 1214.15 C 145.991 1209.71 128.197 1200.71 121.6 1195.58 L 121.506 1193.98 C 127.277 1187.58 142.839 1181.43 150.837 1176.7 C 230.307 1129.68 317.923 1087.23 396.808 1039.76 z M 136.259 1194.22 C 147.801 1198.59 173.536 1213.3 185.356 1219.69 L 315.34 1290.65 L 364.754 1317.58 C 371.873 1321.49 394.502 1335.21 401.368 1335.47 L 584.778 1235.97 C 606.81 1224.11 640.772 1203.94 662.323 1194.36 C 638.79 1183.01 610.622 1166.53 587.322 1153.65 L 471.652 1089.71 C 449.248 1077.15 426.282 1064.46 403.693 1052.12 C 401.74 1051.05 400.089 1050.9 397.936 1050.91 C 381.125 1058.11 347.258 1078.44 329.945 1087.98 L 195.692 1161.83 C 182.095 1169.38 149.549 1188.59 136.259 1194.22 z"/>
    <path fill="url(#Gradient2)" d="M 1406.71 502.288 C 1436.06 519.687 1468.24 536.794 1498.2 553.451 L 1687.07 658.766 C 1683.05 659.684 1681.87 658.637 1678.34 656.975 C 1675.78 657.687 1676.78 656.978 1675.27 659.223 C 1676.5 661.91 1678.19 662.395 1680.94 664.272 L 1680.29 665.558 C 1667.49 659.751 1645.53 646.722 1632.67 639.557 L 1539.8 587.713 L 1458.84 542.76 C 1448.45 537.026 1423.8 524.129 1415.15 517.973 C 1417.11 540.716 1415.75 571.902 1415.72 595.346 C 1415.68 618.905 1420.11 671.716 1406.08 688.073 C 1402.85 691.812 1399.06 695.031 1394.85 697.616 C 1376.18 709.186 1349.1 723.077 1329.03 734.157 L 1208.1 801.188 L 1095.25 863.836 C 1075.94 874.561 1056.72 885.448 1037.23 895.848 C 1031.58 898.862 1028.22 899.123 1022.09 899.753 C 1005.38 901.472 993.26 893.476 979.108 885.633 C 963.348 876.899 947.298 867.852 931.346 859.033 L 787.178 778.778 L 684.064 721.363 C 669.587 713.278 646.722 701.706 634.386 692.038 C 614.376 676.354 619.573 626.66 619.559 603.364 C 619.331 575.062 619.511 546.758 620.101 518.46 C 595.437 531.099 570.932 545.317 546.701 558.873 L 436.15 620.44 L 324.572 682.346 C 313.95 688.272 273.574 709.552 267.51 716.131 C 266.05 729.377 267.378 767.968 267.387 783.978 L 267.288 945.658 C 267.251 963.968 268.411 1004.09 266.978 1020.63 C 275.678 1014.74 286.387 1008.97 295.663 1003.97 C 325.419 987.922 354.933 970.012 385.386 955.542 C 408.92 944.359 442.389 969.84 463.351 981.498 L 531.641 1019.73 L 745.541 1139.11 C 767.164 1151.17 784.791 1140.14 800.291 1165.47 C 814.919 1189.38 805.586 1199.12 798.089 1222.55 C 797.043 1225.82 797.838 1244.19 797.842 1249.26 L 797.819 1308.56 C 797.775 1371.28 796.179 1441.71 797.911 1504 L 787.973 1504 C 788.418 1437.19 788.481 1370.38 788.161 1303.57 L 788.057 1249.2 C 788.039 1242.44 787.287 1226.65 788.289 1221.82 C 792.751 1200.74 806.527 1190.18 791.374 1168.9 C 779.395 1152.07 766.629 1158.5 751.239 1152.1 C 735.358 1145.5 717.333 1134.01 701.981 1125.48 L 514.045 1021 C 482.475 1003.4 450.522 983.463 418.104 967.71 C 412.555 965.013 407.068 962.273 400.791 962.319 C 395.647 962.358 390.476 963.478 385.672 965.287 C 367.02 972.309 266.708 1034.31 258.417 1032.62 C 257.425 1024.89 258.237 996.793 258.218 987.302 L 258.27 878.72 L 258.031 764.565 C 258.028 751.79 257.279 721.141 258.891 710.245 C 262.316 705.644 316.107 676.682 325.782 671.252 L 528.829 558.353 C 557.539 542.196 586.43 526.236 615.01 509.953 C 620.033 507.092 646.763 506.705 651.06 508.749 C 649.554 512.966 634.745 519.857 630.188 522.255 L 630.082 612.766 C 629.991 629.125 629.51 645.794 630.328 662.099 C 630.823 671.975 635.567 682.783 644.39 687.901 C 661.475 697.812 678.869 707.216 696.119 716.837 C 732.34 737.272 768.693 757.474 805.174 777.441 L 928.132 845.89 C 951.055 858.69 973.929 871.702 997.068 884.103 C 1008.87 890.426 1021.6 893.481 1034.02 886.768 C 1058.53 873.517 1082.8 859.734 1107.2 846.229 L 1265.5 758.365 L 1351.36 710.93 C 1405.82 680.834 1406.22 688.343 1406.15 624.646 L 1406.01 546.664 C 1405.99 534.78 1405.38 514.851 1406.57 503.577 L 1406.71 502.288 z"/>
    <path fill="url(#Gradient1)" d="M 620.428 414.211 C 620.089 369.813 619.987 325.413 620.123 281.013 C 620.362 242.13 625.688 231.888 660.237 214.508 C 671.539 208.823 685.627 200.399 697.022 194.094 L 798.988 137.383 L 930.764 64.0026 C 953.283 51.4575 975.666 38.7364 998.445 26.5704 C 1010.42 19.9209 1027.4 21.2905 1039.51 27.0201 C 1052 32.9277 1064.7 40.5266 1076.88 47.363 L 1135.96 80.039 L 1363.72 205.67 C 1385.32 217.559 1397.94 209.39 1414.24 225.002 C 1421.37 231.825 1426.28 245.594 1427.07 255.556 C 1428.76 269.425 1417.86 279.076 1417.61 292.576 C 1416.88 332.346 1418.25 372.174 1416.84 411.938 C 1424.27 417.115 1437.74 423.881 1446.16 428.489 L 1495.17 455.736 L 1700.06 570.043 L 1761.11 603.861 C 1769.83 608.703 1783.96 616.015 1791.92 621.477 L 1790.42 622.637 C 1721.24 585.951 1653.18 545.636 1584.51 507.93 C 1563.89 496.607 1542.24 485.61 1522.23 473.256 C 1520.19 474.143 1518.41 475.499 1516.48 476.147 C 1536.96 488.065 1791.15 628.454 1792.72 630.734 L 1791.76 631.636 C 1771.13 622.492 1733.08 599.439 1711.65 587.476 L 1557.21 501.481 L 1460.33 447.517 C 1448.51 441.018 1417.18 424.77 1407.96 417.996 L 1407.93 334.953 C 1407.93 319.148 1407.9 303.162 1408.36 287.604 C 1408.7 275.88 1418.92 267.582 1417.85 256.472 C 1414.9 225.988 1395.62 223.662 1370.59 219.355 C 1366.19 218.598 1348 208.218 1343.28 205.569 L 1145.61 96.6999 L 1078.5 59.7724 C 1064.88 52.2451 1051.39 44.721 1037.58 37.5079 C 1025.32 31.1028 1012.87 28.53 1000.12 35.6668 C 975.206 49.6128 950.32 63.6476 925.365 77.554 L 772.697 162.444 C 753.86 172.955 648.754 228.94 640.962 237.481 C 635.605 243.353 632.701 251.222 631.386 258.951 C 629.352 270.904 630.373 284.271 630.388 296.382 L 630.509 372.139 C 630.523 379.206 632.149 416.806 627.286 419.792 C 605.412 433.224 581.972 445.51 559.455 458.046 L 310.896 596.479 L 236.627 637.711 C 228.052 642.52 209.763 652.115 202.721 657.296 C 196.332 661.951 191.846 668.762 190.091 676.47 C 186.628 691.611 187.984 756.925 187.992 775.954 L 187.936 977.528 L 187.922 1038.02 C 187.966 1048.53 188.562 1063.2 187.907 1073.38 C 176.039 1081.1 158.688 1089.88 145.954 1096.93 L 67.4985 1140.5 C 52.2593 1148.97 31.6126 1159.16 18.8171 1170.09 L 19.0628 1504 L 10.0513 1504 C 8.31637 1487.17 9.11904 1458.88 9.11263 1441.31 L 9.11026 1329.01 L 9.0527 1228.74 C 9.04927 1207.9 7.88601 1185.65 11.0966 1165.16 C 11.7896 1160.74 15.8234 1158.88 19.4995 1156.89 C 35.4586 1148.22 51.3092 1139.36 67.1766 1130.52 L 179.137 1068.27 C 177.55 989.207 178.997 909.787 178.961 830.689 C 178.95 804.813 176.127 686.587 181.705 669.437 C 183.942 662.559 190.214 654.779 196.101 650.654 C 213.902 638.181 234.998 628.329 254.036 617.802 L 357.334 560.227 L 517.624 470.901 C 551.309 452.06 586.208 431.907 620.428 414.211 z"/>
    <path fill="rgb(56,10,157)" d="M 1680.29 665.558 L 1680.94 664.272 C 1678.19 662.395 1676.5 661.91 1675.27 659.223 C 1676.78 656.978 1675.78 657.687 1678.34 656.975 C 1681.87 658.637 1683.05 659.684 1687.07 658.766 C 1697.71 663.745 1774.56 706.56 1776.86 710.253 C 1779.9 724.599 1778.14 782.406 1778.03 799.528 L 1777.87 953.458 C 1777.77 969.421 1777.89 985.385 1778.2 1001.34 C 1778.36 1010.21 1779.16 1024.36 1777.99 1032.68 L 1776.89 1033.84 C 1767.53 1032.72 1755.61 1023.66 1747.47 1019.04 C 1727.92 1007.97 1656.36 965.715 1639.4 963.381 C 1632.9 962.486 1627.49 963.281 1621.56 966.083 C 1595.83 978.252 1570.91 993.941 1546 1007.81 L 1397.54 1090.44 L 1304.17 1142.54 C 1242.87 1176.82 1247.02 1168.94 1247.48 1240.32 L 1247.76 1314.43 L 1247.71 1431.46 C 1247.64 1455 1247.05 1480.61 1247.87 1504 L 1239.01 1504 L 1239.34 1284.3 C 1239.37 1253.86 1238.86 1223.44 1239.11 1192.99 C 1239.24 1177.46 1246.64 1164.17 1260.1 1156.16 C 1277.45 1145.83 1295.52 1136.22 1313.21 1126.43 L 1418.11 1068.15 L 1557.99 990.297 C 1575.52 980.526 1610.26 959.959 1628.78 952.994 C 1643.36 947.51 1680.47 970.991 1695.58 979.408 C 1720.13 992.952 1744.59 1006.65 1768.97 1020.49 C 1768.28 1011.05 1768.69 996.759 1768.69 987.04 L 1768.68 924.157 L 1768.69 714.528 C 1750.74 705.135 1732.95 695.455 1715.31 685.491 C 1704.44 679.464 1690.54 672.223 1680.29 665.558 z"/>
    <path fill="rgb(56,10,157)" d="M 1791.76 631.636 L 1792.72 630.734 C 1791.15 628.454 1536.96 488.065 1516.48 476.147 C 1518.41 475.499 1520.19 474.143 1522.23 473.256 C 1542.24 485.61 1563.89 496.607 1584.51 507.93 C 1653.18 545.636 1721.24 585.951 1790.42 622.637 L 1791.92 621.477 C 1803.34 627.451 1814.81 633.806 1826.09 639.928 C 1849 652.358 1858.94 663.634 1859.54 690.251 C 1860.1 715.493 1859.89 740.56 1859.88 765.736 L 1859.63 909.501 L 1859.66 1013.54 C 1859.65 1027.4 1860.36 1054.04 1859.27 1066.92 C 1868.78 1073.13 1879.05 1078.7 1889.05 1084.13 C 1923.15 1102.61 1956.67 1122.36 1990.89 1140.6 C 2001.16 1146.08 2013.62 1142.04 2025.48 1149.99 C 2035.4 1156.7 2042.33 1166.98 2044.82 1178.69 C 2048.98 1197.89 2040.86 1202.5 2036.27 1219.04 C 2035.45 1222.01 2035.8 1242.94 2035.74 1247.84 C 2034.7 1332.59 2037.42 1419.42 2035.32 1504 L 2026.59 1504 C 2027.13 1410.57 2027.16 1317.13 2026.66 1223.7 C 2026.46 1204.97 2038.63 1198.21 2035.07 1179.97 C 2033.21 1170.41 2028.79 1163.61 2020.67 1158.09 C 2010.39 1151.11 1997.39 1154.57 1987.4 1149.28 C 1959.12 1134.76 1931.69 1118.43 1903.81 1103.14 C 1895.57 1098.61 1887.28 1093.99 1879.09 1089.38 C 1869.97 1084.24 1859.35 1079.44 1850.96 1073.36 L 1849.88 1072.57 C 1849.09 1066.32 1849.67 1049.43 1849.68 1042.01 L 1849.76 978.396 L 1849.88 762.904 C 1849.92 736.709 1851.05 701.861 1848.42 676.157 C 1846.35 655.919 1809.66 644.05 1792.82 632.377 L 1791.76 631.636 z"/>
    <path fill="rgb(149,5,140)" d="M 435.136 1504 C 435.199 1492.86 434.083 1412.65 437.222 1406.86 C 444.117 1401.6 457.275 1395.05 465.445 1390.65 L 513.374 1364.76 L 648.595 1291.32 C 673.834 1277.65 705.816 1261.25 730.121 1246.51 C 727.522 1252.53 719.486 1268.08 719.121 1272.5 C 717.184 1296.02 718.259 1322.74 718.277 1346.46 L 718.343 1504 L 708.259 1504 C 709.632 1450.19 708.208 1395.89 708.712 1342.07 C 708.906 1321.45 707.702 1288.43 709.504 1268.61 C 689.744 1280.44 662.69 1294 641.968 1305.23 L 517.831 1372.59 C 499.363 1382.52 459.487 1402.6 444.239 1412.97 C 442.963 1439.42 444.367 1476.99 444.865 1504 L 435.136 1504 z"/>
    <path fill="rgb(56,10,157)" d="M 1672.83 1504 C 1672.8 1489.86 1671.35 1415.63 1674.59 1407.48 C 1681.89 1401.87 1697.06 1394.23 1705.71 1389.53 L 1758.7 1360.8 C 1824.28 1325.26 1891.76 1289.39 1956.72 1252.98 C 1955.51 1279.65 1955.52 1308.02 1955.92 1334.79 C 1956.74 1390.92 1954.55 1447.98 1956.19 1504 L 1946.84 1504 C 1946.06 1497.15 1946.56 1482.54 1946.58 1475.05 L 1946.65 1418.31 L 1946.6 1327.6 C 1946.6 1309.05 1946.21 1287.3 1947.31 1268.94 L 1765.43 1367.96 C 1739.74 1381.9 1706.98 1398.29 1682.66 1412.91 C 1680.52 1439.27 1683.17 1475.88 1682.22 1504 L 1672.83 1504 z"/>
    <path fill="rgb(149,5,140)" d="M 81.7962 1504 C 80.2143 1492.84 81.4293 1455.46 81.4405 1441.72 L 81.4093 1305.57 C 81.4082 1299.07 80.3012 1259.54 82.0621 1256.11 C 82.7454 1255.95 83.4287 1255.79 84.112 1255.63 C 173.982 1304.3 263.562 1353.52 353.57 1401.94 C 356.846 1403.7 360.873 1406.03 363.751 1408.35 C 365.141 1439.35 364.482 1472.91 364.395 1504 L 355.041 1504 C 357.114 1482.43 355.628 1437.65 355.666 1414.21 C 351.348 1410.94 337.916 1404.17 332.513 1401.3 C 319.961 1394.64 307.456 1387.89 294.999 1381.05 L 160.962 1308.44 C 141.34 1297.82 107.547 1280.84 89.7657 1269.2 C 91.7112 1280.99 90.792 1329.56 90.8049 1345.15 L 90.7618 1504 L 81.7962 1504 z"/>
    <path fill="rgb(56,10,157)" d="M 1328.43 1265.73 C 1331.41 1262.89 1330.44 1262.91 1333.68 1262.62 C 1354.83 1273 1377.18 1285.76 1398.07 1297.1 L 1505.82 1355.61 L 1565.41 1387.95 C 1575.28 1393.3 1592.8 1402.18 1601.36 1408.46 C 1604.03 1416.66 1603.14 1492.24 1602.43 1504 L 1592.78 1504 C 1592.5 1473.68 1592.61 1443.37 1593.1 1413.05 C 1569.36 1401.96 1537.93 1383.67 1513.99 1370.78 L 1329.84 1270.91 L 1330.35 1268.83 L 1328.43 1265.73 z"/>
    <path fill="rgb(56,10,157)" d="M 1328.43 1265.73 L 1330.35 1268.83 L 1329.84 1270.91 C 1327.74 1274.22 1328.99 1283.52 1329.03 1288.05 L 1329.14 1331.81 C 1329.21 1388.03 1330.38 1448.24 1329.13 1504 L 1320.01 1504 L 1319.85 1271.08 L 1328.43 1265.73 z"/>
</svg>